<svg width="212" height="150" viewBox="0 0 212 150" fill="none" xmlns="http://www.w3.org/2000/svg">
<path d="M204.781 48.9375C200.998 1.46988 162.925 5.82916 108.012 6.31352C101.483 6.37407 89.6466 6.13189 83.301 7.64552C76.3454 9.3408 70.1829 12.6103 63.3493 14.4872C56.0275 16.4246 48.2177 16.6668 40.6519 17.3933C30.4014 18.3015 19.3578 20.3601 12.7682 27.0806C3.31095 36.6468 6.36167 50.8145 6.84979 62.3181C7.64298 81.5716 11.1818 99.493 15.0257 118.383C16.002 123.106 17.0392 128.01 20.273 131.643C23.0797 134.791 27.1676 136.486 31.1946 137.818C50.2922 143.933 70.7931 143.267 90.6228 143.267C110.758 143.267 130.892 143.812 151.027 143.994C167.562 144.115 186.111 142.359 194.592 128.373C198.863 121.289 199.351 113.055 200.998 105.245C202.035 100.583 203.5 95.9814 204.354 91.2589C206.978 77.5756 205.94 62.6814 204.781 48.9375Z" fill="#FFC525"/>
<path fill-rule="evenodd" clip-rule="evenodd" d="M15.0256 118.383C11.1816 99.4931 7.64279 81.5717 6.8496 62.3182C6.77024 60.4479 6.62314 58.5072 6.47308 56.5273C5.70012 46.3294 4.84835 35.0916 12.768 27.0807C19.3576 20.3602 30.4012 18.3016 40.6517 17.3935C42.3552 17.2299 44.0712 17.0908 45.7911 16.9515C51.7098 16.4719 57.676 15.9885 63.3491 14.4873C66.5446 13.6096 69.5933 12.4275 72.645 11.2441C76.1195 9.89691 79.5977 8.54818 83.3009 7.64564C88.6901 6.36011 98.0403 6.34107 104.735 6.32743C105.923 6.32501 107.028 6.32276 108.012 6.31364C112.089 6.27768 116.073 6.22035 119.958 6.16446C168.39 5.46765 201.279 4.99445 204.781 48.9377C205.94 62.6815 206.977 77.5757 204.354 91.259C203.848 94.0531 203.129 96.8049 202.412 99.5519C201.916 101.448 201.422 103.341 200.998 105.245C200.609 107.091 200.284 108.961 199.959 110.834C198.908 116.884 197.853 122.964 194.591 128.373C186.11 142.359 167.562 144.115 151.027 143.994C142.973 143.921 134.919 143.791 126.865 143.66C114.784 143.464 102.703 143.268 90.6226 143.268C88.8531 143.268 87.0782 143.273 85.2995 143.278C67.1452 143.332 48.5878 143.388 31.1944 137.818C27.1675 136.486 23.0795 134.791 20.2728 131.643C17.039 128.01 16.0018 123.106 15.0256 118.383ZM210.252 92.358C209.783 94.9437 209.157 97.4476 208.552 99.7808C208.436 100.231 208.32 100.674 208.206 101.109C207.716 102.987 207.258 104.742 206.862 106.517C206.499 108.243 206.193 110.003 205.865 111.892L205.814 112.185C205.472 114.156 205.102 116.262 204.639 118.37C203.71 122.595 202.343 127.137 199.73 131.471L199.726 131.478L199.722 131.484C194.442 140.192 186.137 144.821 177.446 147.252C168.844 149.659 159.383 150.055 150.983 149.994L150.973 149.994C142.819 149.92 134.734 149.789 126.674 149.658C114.649 149.462 102.68 149.268 90.6226 149.268C88.8419 149.268 87.0431 149.274 85.2288 149.28C67.2297 149.341 47.7136 149.408 29.3647 143.533L29.3374 143.524L29.3102 143.515C25.1953 142.154 19.742 140.064 15.7941 135.635L15.7912 135.632C11.447 130.752 10.1421 124.416 9.23457 120.009C9.20594 119.87 9.17771 119.733 9.14978 119.598L9.1479 119.589L9.14605 119.58C5.30943 100.725 1.6707 82.3639 0.854838 62.5689C0.792137 61.0934 0.663936 59.3848 0.52547 57.5394C0.202729 53.238 -0.17578 48.1934 0.0893747 43.6253C0.494077 36.653 2.36126 29.0784 8.4925 22.8712C16.7829 14.4239 29.9462 12.3198 40.1001 11.4188C42.0123 11.2354 43.8595 11.0849 45.6538 10.9388C51.4464 10.4669 56.6883 10.0399 61.7871 8.69409C64.6669 7.90119 67.4391 6.82681 70.5511 5.62075C70.7371 5.54866 70.9243 5.4761 71.1128 5.40311C74.3628 4.14477 77.9762 2.76775 81.8801 1.81628L81.8944 1.8128L81.9087 1.80938C85.7378 0.896007 90.8315 0.573889 95.4088 0.437397C98.6866 0.339657 102.048 0.332691 104.831 0.326924C105.989 0.324525 107.046 0.322333 107.956 0.313898L107.959 0.313872C111.949 0.278676 115.884 0.222086 119.744 0.166586C128.993 0.0335685 137.808 -0.0931939 145.906 0.0957957C157.403 0.364091 168.037 1.26915 177.208 3.87155C186.479 6.50225 194.54 10.9498 200.49 18.4579C206.405 25.9238 209.752 35.811 210.761 48.4483C211.912 62.099 213.045 77.7642 210.252 92.358Z" fill="white"/>
<path d="M172.679 99.3052C172.583 98.8948 172.391 98.5118 172.104 98.1562C171.844 97.8279 171.516 97.5406 171.133 97.3081C170.49 96.9114 169.656 96.6515 168.657 96.5421C167.946 96.46 167.221 96.4463 166.482 96.5147C166.455 96.3369 166.455 96.159 166.496 95.9812C166.523 95.8171 166.564 95.694 166.633 95.5982C166.674 95.5298 166.769 95.4477 166.906 95.352C167.016 95.2699 167.111 95.2015 167.193 95.1605C167.576 95.1331 168.041 95.0921 168.575 95.0374C169.368 94.9279 170.066 94.7228 170.654 94.4218C171.352 94.0525 171.844 93.56 172.131 92.9582C172.323 92.5615 172.419 92.1238 172.405 91.6176C172.405 91.1799 172.323 90.7285 172.173 90.2497C171.94 89.47 171.625 88.9502 171.229 88.6903C170.846 88.4168 170.572 88.2663 170.408 88.2116C170.244 88.1705 170.011 88.1432 169.697 88.1295C169.382 88.1295 168.835 88.1705 168.055 88.2663C167.262 88.362 166.769 88.3757 166.578 88.3073V88.0885C166.578 87.7738 166.619 87.514 166.715 87.2951C166.879 87.2404 167.057 87.213 167.275 87.1993H167.918C168.616 87.1993 169.259 87.1036 169.847 86.9258C170.517 86.7342 171.078 86.4196 171.53 86.0093C171.954 85.6263 172.268 85.1612 172.473 84.614C172.692 84.1079 172.761 83.5607 172.706 83.0136C172.651 82.4527 172.46 81.9329 172.131 81.4542C171.913 81.1259 171.639 80.8386 171.324 80.6198C170.271 80.6061 169.054 80.6471 167.699 80.7429C165.579 80.9344 163.979 81.0575 162.912 81.1259C162.31 81.1669 161.941 81.1943 161.763 81.208C161.339 81.249 160.956 81.3037 160.627 81.3721C159.916 81.5089 159.301 81.7414 158.822 82.0697C157.782 83.0546 157.645 84.1489 158.398 85.3527C158.425 85.681 158.398 86.7753 158.316 88.6356C158.247 90.496 158.193 92.1648 158.152 93.6421C158.111 95.1194 158.097 95.9675 158.111 96.2001C158.124 96.4189 158.152 96.7883 158.179 97.2807C158.206 97.7732 158.247 98.2656 158.302 98.7307C158.357 99.2095 158.411 99.6198 158.466 99.9755C158.521 100.331 158.576 100.646 158.617 100.906L158.849 101.713C158.918 101.945 159.027 102.178 159.15 102.383C159.342 102.711 159.615 102.985 159.985 103.19C160.354 103.409 160.751 103.587 161.161 103.71C161.585 103.819 162.365 103.901 163.514 103.956C164.649 103.997 165.757 103.956 166.838 103.847C167.918 103.737 168.903 103.546 169.82 103.272C170.736 103.012 171.53 102.547 172.173 101.891C172.364 101.535 172.514 101.152 172.624 100.741C172.761 100.235 172.774 99.7566 172.679 99.3052Z" fill="white"/>
<path d="M171.051 83.3141C170.982 82.9448 170.75 82.6438 170.367 82.3976C170.189 82.2882 169.997 82.2061 169.765 82.124C164.676 82.3566 161.886 82.507 161.421 82.5618C160.942 82.6301 160.586 82.7396 160.354 82.9174C160.135 83.0952 159.984 83.3004 159.916 83.533C159.861 83.7655 159.848 83.9844 159.875 84.1896C159.902 84.3947 159.957 84.5726 160.025 84.723C160.08 84.8325 160.203 84.9419 160.381 85.0513C160.108 90.605 160.272 96.1449 160.901 101.644C161.024 101.822 161.188 101.959 161.393 102.082C161.599 102.205 161.845 102.3 162.132 102.369C162.351 102.41 162.611 102.451 162.925 102.465C163.39 102.492 164.02 102.451 164.799 102.355C165.579 102.259 166.195 102.205 166.646 102.164C167.097 102.123 167.631 102.082 168.233 102.027C168.835 101.959 169.286 101.849 169.587 101.685C169.874 101.521 170.093 101.329 170.244 101.11C170.38 100.905 170.476 100.659 170.545 100.385C170.613 100.057 170.531 99.7425 170.326 99.4279C170.134 99.1406 169.929 98.9628 169.696 98.8671C169.478 98.785 169.204 98.7303 168.889 98.7029C168.575 98.6756 168.055 98.6756 167.303 98.6756C166.564 98.6756 165.907 98.7029 165.36 98.7303C164.813 98.7713 164.444 98.785 164.252 98.7576C164.074 97.0067 163.992 95.2558 164.02 93.5049C164.293 93.3544 164.635 93.2724 165.032 93.2587C165.155 93.2587 165.62 93.286 166.427 93.3408C167.097 93.3681 167.754 93.3134 168.411 93.1766C168.63 93.1356 168.821 93.0809 168.972 93.0125C169.163 92.9304 169.313 92.8073 169.423 92.6705C169.546 92.52 169.628 92.3285 169.669 92.1097C169.696 91.9592 169.71 91.7403 169.696 91.4668C169.696 91.2205 169.683 91.029 169.655 90.8786C169.601 90.6734 169.519 90.4955 169.409 90.3588C169.272 90.1946 169.067 90.0852 168.807 90.0305C168.616 89.9894 168.37 89.9757 168.055 89.9894C167.139 90.0031 165.866 90.0168 164.266 90.0441C164.143 88.5531 164.129 87.0621 164.239 85.5711C164.895 85.5438 165.606 85.5027 166.359 85.4617C167.74 85.3933 168.616 85.3249 168.972 85.2839C169.341 85.2292 169.669 85.1334 169.956 84.9966C170.298 84.8325 170.572 84.5999 170.777 84.2853C171.051 83.9844 171.119 83.6561 171.051 83.3141Z" fill="#FE451D"/>
<path d="M138.056 91.3332C138.015 90.8681 137.851 90.4714 137.564 90.1431C137.523 90.1021 137.427 90.0063 137.277 89.8696L137.263 89.8422C137.249 89.8148 137.236 89.7738 137.222 89.6917L137.167 89.4729C137.14 89.3771 137.113 89.2814 137.099 89.213C137.085 88.8436 137.031 88.3786 136.962 87.7904C136.88 87.0791 136.839 86.313 136.839 85.4649C136.853 84.6989 136.921 83.9055 137.058 83.0985C137.208 82.2914 137.277 81.7443 137.277 81.4433C137.277 80.9098 137.126 80.349 136.812 79.7745C136.497 79.1453 136.073 78.6665 135.553 78.3382C134.185 77.4627 132.681 77.8458 131.039 79.4736C130.943 79.5693 130.848 79.6787 130.779 79.7882C130.492 80.0207 130.232 80.8141 130.027 82.1957C129.808 83.5772 129.685 84.9588 129.644 86.3541C129.617 87.7493 129.288 88.3101 128.686 88.0502C128.372 87.1338 128.344 86.0121 128.632 84.6579C129.001 82.8659 128.714 81.2108 127.756 79.7061C127.578 79.5556 127.373 79.4599 127.127 79.4188C126.826 79.3641 126.525 79.3094 126.238 79.2547C125.691 79.1589 125.239 79.1179 124.87 79.1179C124.391 79.1179 124.022 79.1589 123.748 79.241C123.557 79.2 123.27 79.2684 122.873 79.4462C122.216 79.7335 121.806 79.9797 121.669 80.1849C121.259 80.7183 121.013 81.2245 120.93 81.6895C120.903 81.8263 120.862 82.3324 120.807 83.1942C120.753 84.015 120.725 84.5211 120.725 84.7263C120.725 84.8357 120.753 85.2871 120.807 86.0805C120.862 86.8739 120.889 87.5988 120.889 88.2554V89.6917C120.876 89.7191 120.848 89.979 120.807 90.4578C120.766 90.7861 120.684 91.0323 120.588 91.1691C120.192 91.7709 119.918 92.195 119.74 92.4686C119.398 92.8379 119.166 93.1935 119.029 93.5492C118.851 94.0143 118.769 94.5888 118.81 95.2591C118.824 95.9293 118.892 96.4765 119.015 96.9142C119.125 97.3519 119.234 97.776 119.33 98.159C119.426 98.5557 119.535 98.7609 119.658 98.7882C119.768 98.8156 119.973 98.925 120.26 99.1165C120.274 99.1576 120.274 99.1849 120.288 99.1986C120.342 100.936 120.506 102.441 120.766 103.713C120.78 103.767 120.794 103.822 120.807 103.877C120.889 104.109 120.985 104.356 121.067 104.643L121.081 104.67C121.108 104.698 121.136 104.725 121.163 104.766C121.286 105.012 121.464 105.258 121.724 105.505C122.326 106.079 123.092 106.407 123.995 106.448L125.267 106.572C126.388 106.448 127.236 105.792 127.797 104.602C128.372 103.412 128.536 102.14 128.303 100.785C128.071 99.4312 128.085 98.4463 128.331 97.8581C128.7 96.9963 129.042 97.0373 129.343 97.9675C129.343 97.9948 129.343 98.0085 129.357 98.0359C129.425 98.4326 129.466 98.884 129.48 99.4175C129.493 99.5269 129.493 99.992 129.493 100.813C129.507 101.387 129.521 101.852 129.548 102.208C129.589 102.714 129.671 103.179 129.794 103.576C130.082 104.588 130.574 105.354 131.299 105.874C131.504 106.011 131.709 106.106 131.915 106.161C132.188 106.257 132.517 106.312 132.886 106.312C133.611 106.312 134.254 106.189 134.842 105.956C135.772 105.587 136.333 105.163 136.524 104.698C136.648 104.479 136.716 104.246 136.743 103.986C136.784 103.863 136.894 103.425 137.058 102.673C137.29 101.688 137.345 100.074 137.208 97.8581C137.181 97.393 137.167 97.1878 137.181 97.2835C137.126 96.6543 137.099 96.285 137.099 96.1755C137.099 96.1345 137.072 95.9977 137.044 95.7378C137.031 95.5463 137.017 95.2727 137.017 94.8897V94.794C137.126 94.2605 137.277 93.8091 137.468 93.4124C137.496 93.3577 137.564 93.2209 137.687 93.0157C137.769 92.8516 137.838 92.7285 137.879 92.619C138.043 92.2087 138.111 91.7709 138.056 91.3332Z" fill="white"/>
<path d="M135.266 80.226C134.829 79.7335 134.268 79.4873 133.597 79.4873C132.312 79.4873 131.669 80.226 131.669 81.7033C131.669 82.3736 131.559 85.3829 131.327 90.704L126.266 91.812C126.293 90.3484 126.361 88.9121 126.498 87.4758C126.895 86.1216 127.086 84.9452 127.086 83.9466C127.086 81.9632 126.457 80.9783 125.171 80.9783C124.419 80.9783 123.817 81.4024 123.379 82.2505C123.051 82.9344 122.873 83.6731 122.846 84.4801C122.805 87.9956 122.777 90.7041 122.777 92.5917C121.41 93.0705 120.726 93.9049 120.726 95.1087C120.726 96.2714 121.341 96.8596 122.572 96.8596H122.709C122.668 99.7458 122.641 101.757 122.627 102.906C122.6 104.315 123.215 105.012 124.46 105.012C125.117 105.012 125.636 104.766 126.033 104.301C126.443 103.836 126.649 103.275 126.635 102.618C126.457 99.0208 126.334 96.627 126.266 95.437C127.565 95.0676 129.193 94.753 131.149 94.4931C131.012 97.7761 130.93 99.9921 130.93 101.141C130.93 102.017 131.108 102.796 131.45 103.48C131.888 104.356 132.517 104.793 133.338 104.793C134.158 104.793 134.774 104.356 135.171 103.48C135.444 102.824 135.595 102.044 135.595 101.114C135.595 100.197 135.458 99.1576 135.198 97.9813C135.13 96.8596 135.102 95.5054 135.116 93.9049C135.759 93.6177 136.087 92.9474 136.087 91.9078C136.087 90.9913 135.813 90.4031 135.266 90.1295C135.376 87.9819 135.567 85.2735 135.841 82.0042C135.896 81.3066 135.704 80.7047 135.266 80.226Z" fill="#FE451D"/>
<path d="M61.9907 79.359C61.512 78.7981 60.8143 78.4562 59.8842 78.3331C59.2412 78.251 57.8186 78.292 55.6026 78.4425C53.3867 78.593 51.581 78.8392 50.1721 79.1538C48.7632 79.4547 47.5594 79.8104 46.5609 80.2071C45.4665 80.6311 44.3175 81.1646 43.1274 81.7938C41.527 82.6283 40.6379 83.3943 40.46 84.0509C40.2822 84.7075 40.2412 85.364 40.3233 86.0343C40.4053 86.7046 40.6242 87.2654 40.9662 87.7442C41.2534 88.1546 41.6228 88.5102 42.0331 88.8112C41.8416 91.0135 41.6775 93.462 41.5407 96.1567C41.4039 98.8378 41.4313 100.849 41.5954 102.217C41.7596 103.571 42.1973 104.597 42.9359 105.322C43.6609 106.033 44.5774 106.348 45.7128 106.252C46.8481 106.156 47.6689 105.951 48.1887 105.595C48.6948 105.253 49.0915 104.816 49.3924 104.282C49.6797 103.762 49.9669 101.3 50.2405 96.9091C50.432 93.7629 50.5962 91.7658 50.7056 90.9314C50.7329 90.9451 50.7466 90.9724 50.774 91.0135C50.8834 91.1639 50.9381 91.3281 50.9518 91.5332L51.499 98.0855C51.5947 99.2208 51.7041 100.069 51.7999 100.657C51.9777 101.601 52.265 102.558 52.6754 103.543C53.072 104.528 53.6602 105.226 54.4263 105.623C55.1786 106.019 55.9857 106.17 56.8201 106.047C57.6545 105.937 58.2837 105.568 58.7351 104.952C59.1865 104.337 59.5559 103.434 59.8568 102.23C60.0757 101.327 60.2125 100.643 60.2398 100.165C60.0757 94.8573 59.9799 91.629 59.9799 90.4937C59.9526 89.3446 59.9252 88.647 59.9115 88.3871C59.8842 88.1272 59.8568 87.8263 59.8294 87.4843C59.7747 87.0192 59.7474 86.431 59.7474 85.6923C60.2672 85.2683 60.6912 84.9126 60.9922 84.6117C61.4983 84.1056 61.895 83.5858 62.1685 83.066C62.4832 82.4368 62.6336 81.8075 62.6336 81.1509C62.62 80.4396 62.4011 79.8377 61.9907 79.359Z" fill="white"/>
<path d="M57.6407 84.7758C58.5024 84.5569 59.2821 84.2012 59.9798 83.7225C60.6774 83.2437 60.951 82.5734 60.7868 81.7254C60.6227 80.8773 60.2807 80.3027 59.7609 80.0292C59.2274 79.7556 58.5435 79.6462 57.6954 79.6735C56.3412 79.7145 55.069 79.824 53.8926 79.9881C52.853 80.1523 51.8134 80.3575 50.7738 80.5626C49.5564 80.8499 48.3253 81.1919 47.0942 81.6022C45.8494 82.0126 44.7824 82.4777 43.8933 82.9838C43.0042 83.4899 42.4433 84.2012 42.2108 85.1314C41.9646 86.0479 42.3202 86.6498 43.2778 86.937L43.6608 86.9781C43.6471 87.0465 43.6471 87.1149 43.6471 87.1833C43.6334 87.3337 43.565 88.0861 43.4282 89.4129C43.4282 89.4676 43.4145 89.536 43.4009 89.6044C43.2641 90.9313 43.0726 92.7916 42.8674 95.2128C42.6212 97.7434 42.7443 99.9594 43.2367 101.888C43.7292 103.803 44.6593 104.556 46.0135 104.118C47.3678 103.68 48.0107 102.422 47.9286 100.342C47.8602 98.2632 47.8328 96.0609 47.8602 93.7218C47.8465 91.3827 47.9149 89.0983 48.0244 86.8686V86.7318C49.7205 85.9385 51.362 85.4597 52.9351 85.2956C52.8804 85.6512 52.8804 86.4309 52.9214 87.6347C52.9898 88.8521 53.0582 90.5483 53.1266 92.7232C53.1813 94.8982 53.2634 97.0184 53.3455 99.0429C53.4412 101.081 53.6874 102.476 54.0841 103.229C54.4671 103.967 55.2879 104.309 56.5463 104.255C57.7911 104.2 58.3793 102.969 58.3109 100.575C58.2425 98.1811 58.1468 95.76 58.0373 93.3114C57.9279 90.8629 57.8458 89.0162 57.7501 87.7578C57.668 86.4993 57.627 85.5144 57.6407 84.7758Z" fill="#FE451D"/>
<path d="M99.1955 83.3038C98.9903 82.5515 98.7304 82.0043 98.3885 81.6623C98.3474 81.6213 98.2927 81.5666 98.238 81.5255C98.1286 81.4298 97.6088 81.1973 96.7196 80.8006C95.8305 80.4176 94.4626 80.1166 92.6023 79.8704C90.7556 79.6515 89.1688 79.46 87.883 79.2822C86.5972 79.0907 85.6944 79.0633 85.2019 79.1864C84.6958 79.3096 84.2718 79.4874 83.9161 79.7199C83.5742 79.9525 83.1775 80.4586 82.7261 81.2246C82.2747 82.0043 82.6987 83.3038 83.9572 85.1642C84.7642 85.5472 85.3114 85.8755 85.5986 86.1627C85.5439 87.6948 85.5166 89.5277 85.5166 89.5277H85.4755C85.4618 89.6782 85.4482 89.815 85.4482 89.9518C85.4345 90.2801 85.4208 90.6084 85.3661 90.9367C85.3524 91.2239 85.3387 91.5112 85.3387 91.8121C85.3114 92.8654 85.243 93.8913 85.1746 94.9309C85.1062 95.7927 85.0652 96.6408 85.0378 97.5162C85.0241 97.9676 85.0104 98.4054 85.0104 98.8431C84.9831 99.2945 84.9831 99.7596 84.9694 100.211C84.9694 100.526 84.9557 100.84 84.9557 101.155V101.866C84.9557 102.263 84.9831 102.673 85.0515 103.056C85.0788 103.207 85.1062 103.371 85.1472 103.535C85.1746 103.631 85.1883 103.74 85.2156 103.836C85.2293 103.863 85.2703 103.932 85.3661 104.096C85.4618 104.246 85.8312 104.602 86.5151 105.135C87.1991 105.669 88.3891 105.737 90.0853 105.341L90.0033 105.3L90.099 105.341C90.1674 105.313 90.2358 105.3 90.3042 105.272C91.4396 104.999 92.1782 104.342 92.5475 103.289C92.5749 103.207 92.5886 103.138 92.6023 103.056C92.6296 102.947 92.6433 102.837 92.6433 102.728V101.702L92.7801 100.922V100.58C92.7801 100.58 92.7117 100.184 92.6433 99.9785V99.8417V99.7049C92.7117 99.5407 92.698 99.3629 92.698 99.1851C92.698 99.0073 92.6843 98.8294 92.7801 98.6516V98.419C92.6843 98.2412 92.698 98.0771 92.698 97.9129C92.698 97.612 92.7117 97.3111 92.7117 97.0101C92.7117 96.7776 92.7254 96.545 92.7391 96.3262C92.7527 96.08 92.7527 95.8337 92.7664 95.5875C92.7801 95.2045 92.7938 94.8215 92.7938 94.4248C92.7938 94.1512 92.8074 93.8913 92.8074 93.6177C92.8211 93.3442 92.8348 93.0706 92.8348 92.8107C92.8485 92.5508 92.8622 92.1131 92.8485 91.4975C92.8485 90.882 92.9169 89.5688 93.0673 87.5853C94.2301 87.8999 95.4748 88.0094 96.7743 87.941C98.3337 87.6127 99.1682 86.45 99.2913 84.4802C99.2639 83.9057 99.2502 83.5227 99.1955 83.3038Z" fill="white"/>
<path d="M97.4718 85.0003C97.5812 84.5079 97.4992 84.0155 97.2393 83.5367C96.9657 83.0442 96.7605 82.7296 96.5827 82.6065C96.4049 82.4834 96.1313 82.3603 95.7619 82.2235C95.3789 82.1004 94.9549 81.9773 94.4761 81.8542C93.9974 81.7447 93.4912 81.6353 92.9851 81.5396C92.4653 81.4438 91.7677 81.348 90.9196 81.2523C90.0578 81.1565 89.2508 81.0471 88.4847 80.9377C87.8965 80.8693 87.3083 80.8283 86.7202 80.8146C86.132 80.8009 85.6806 80.8419 85.3523 80.9377C85.2018 80.9787 85.0787 81.0334 84.9556 81.1292C84.7504 81.2933 84.5999 81.5122 84.5042 81.7584C84.4084 82.032 84.34 82.3329 84.299 82.6202C84.1895 83.6735 84.5862 84.3985 85.5027 84.7815C85.9131 84.8909 86.3098 84.9593 86.6654 84.9867C87.0621 85.014 87.4725 85.0551 87.8692 85.0961L87.24 93.9874L86.8569 101.593C86.8706 101.771 86.8843 101.962 86.898 102.14C86.9117 102.222 86.9527 102.345 87.0211 102.564C87.1032 102.769 87.2673 102.974 87.5272 103.193C87.7871 103.412 88.0333 103.563 88.3069 103.658C88.5805 103.754 88.7857 103.809 88.9361 103.823C89.0866 103.85 89.2918 103.836 89.5654 103.795C89.839 103.768 90.0305 103.645 90.1809 103.467C90.3314 103.303 90.4135 103.043 90.4545 102.728C90.4955 102.4 90.5229 102.072 90.5503 101.743C90.5639 101.415 90.5776 100.964 90.605 100.417C90.6323 99.8694 90.646 99.2128 90.6871 98.4467C90.6871 98.3373 90.7007 98.2279 90.7007 98.1185C90.7281 96.8463 90.7691 95.5742 90.8102 94.3157C90.8512 93.3992 90.8922 92.4964 90.9059 91.5662C90.9333 90.8686 90.947 90.1573 90.9606 89.4597C90.9743 89.3913 90.9743 89.3229 90.9743 89.2545C90.988 88.9262 91.0017 88.5842 91.0017 88.2696C91.0153 87.9687 91.029 87.6677 91.0427 87.3668C91.0701 87.0659 91.0701 86.7649 91.0701 86.4366C91.0837 86.1083 91.0974 85.78 91.1521 85.4244C91.1932 85.4107 91.2752 85.4244 91.412 85.4381C91.6035 85.4654 91.9045 85.5065 92.3148 85.5612C92.7252 85.6159 93.2177 85.6706 93.7785 85.7116C94.3393 85.7664 94.8728 85.8211 95.3653 85.8895C95.8577 85.9579 96.3091 85.9442 96.7331 85.8347C97.1025 85.78 97.3624 85.4928 97.4718 85.0003Z" fill="#FE451D"/>
<path d="M116.762 81.3746C116.721 80.7728 116.68 80.3077 116.639 80.0067C116.543 79.5006 116.392 79.0766 116.187 78.7209C115.941 78.3106 115.435 77.9549 114.682 77.6676C114.217 77.4898 113.711 77.3804 113.109 77.353C113.068 77.353 113.041 77.353 113.014 77.3394C112.781 77.3257 112.535 77.3394 112.289 77.3667C110.565 77.6266 109.047 79.0629 107.761 81.6893C106.284 84.6713 105.08 87.3387 104.15 89.6641C103.507 89.6914 102.864 89.8693 102.248 90.1702C101.605 90.4712 101.058 90.8952 100.62 91.4013L100.525 92.0989C99.8818 94.0414 99.9639 95.3545 100.785 96.0385C101.086 96.2026 101.318 96.3121 101.51 96.3531C101.701 96.3805 101.715 96.4762 101.578 96.5856C101.441 96.6951 101.14 97.3517 100.662 98.5691C100.196 99.7865 99.9365 100.949 99.9229 102.057C99.9365 102.509 100.101 103.193 100.443 104.123C100.785 105.053 101.728 105.545 103.261 105.627C103.739 105.764 104.355 105.723 105.08 105.518C105.818 105.313 106.475 104.861 107.077 104.15C107.665 103.439 108.158 102.495 108.527 101.319C108.691 100.771 108.842 100.347 108.978 100.019C109.033 99.8823 109.088 99.7592 109.142 99.6224C109.252 99.978 109.334 100.416 109.416 100.895C109.471 101.223 109.553 101.989 109.703 103.193C109.84 104.369 110.237 105.313 110.839 105.997C111.454 106.681 112.412 107.077 113.725 107.214C115.024 107.337 116.078 106.954 116.871 106.01C117.5 105.272 117.897 104.109 118.089 102.481V102.454C117.336 90.2796 116.885 83.2623 116.762 81.3746Z" fill="white"/>
<path d="M113.807 79.9788C113.315 79.7326 112.863 79.6368 112.494 79.6642C112.125 79.6915 111.81 79.8147 111.523 80.0062C111.236 80.2113 111.044 80.3892 110.921 80.5533C110.894 80.6217 110.853 80.6901 110.812 80.7585C108.814 84.4518 107.064 88.1178 105.518 91.7837C105.08 91.7837 104.697 91.8111 104.382 91.8795C103.876 91.9753 103.452 92.1394 103.083 92.3856C102.673 92.6592 102.385 93.0285 102.235 93.5073C102.057 93.9997 102.084 94.4238 102.317 94.8068C102.454 95.012 102.632 95.1761 102.864 95.3129C103.083 95.436 103.343 95.5181 103.616 95.5455C103.726 95.5591 103.849 95.5728 103.986 95.5728C103.466 96.927 102.987 98.2676 102.522 99.6218C102.372 100.073 102.249 100.429 102.194 100.702C102.098 101.099 102.071 101.482 102.112 101.81C102.153 102.193 102.303 102.549 102.549 102.864C102.796 103.206 103.097 103.425 103.48 103.534C103.849 103.643 104.246 103.616 104.656 103.452C105.039 103.301 105.381 103.069 105.655 102.768C105.887 102.508 106.092 102.18 106.27 101.783C106.38 101.551 106.516 101.195 106.694 100.716C107.159 99.3756 107.788 97.5563 108.582 95.2445C108.678 95.2445 108.773 95.2308 108.883 95.2308C109.526 95.2172 110.36 95.1898 111.372 95.1761C111.386 97.5015 111.509 99.5944 111.714 101.468C111.933 103.397 112.398 104.478 113.123 104.71C113.848 104.943 114.341 104.998 114.642 104.875C114.943 104.751 115.216 104.505 115.49 104.136C115.763 103.753 115.9 103.397 115.914 103.042C115.927 102.686 115.941 102.248 115.941 101.715C115.941 101.181 115.832 99.9638 115.654 98.0487C115.49 96.4346 115.312 94.2733 115.134 91.5649C114.97 88.8428 114.861 86.4763 114.819 84.4792C114.778 82.4821 114.737 81.292 114.683 80.9227C114.614 80.5123 114.327 80.2114 113.807 79.9788ZM111.359 91.6606C110.853 91.6606 110.333 91.688 109.813 91.7017C110.251 90.4295 110.743 89.048 111.249 87.5569C111.304 88.9248 111.345 90.2927 111.359 91.6606Z" fill="#FE451D"/>
<path d="M156.774 81.8273C156.747 81.7315 156.719 81.6358 156.678 81.54C156.227 80.1585 155.42 79.3104 154.284 79.0231C153.723 78.8726 153.04 79.0778 152.205 79.6113C151.384 80.1311 150.741 80.774 150.276 81.54C149.784 82.3881 149.333 83.2636 148.936 84.1664C148.922 84.1938 148.69 84.5357 148.225 85.1923C148.211 84.5631 148.197 83.9202 148.197 83.2636C148.197 82.2377 148.115 81.458 147.965 80.9245C147.595 79.666 146.816 79.1189 145.653 79.3104C145.106 79.324 144.572 79.3514 144.066 79.4061C143.081 79.4882 142.438 79.6387 142.151 79.8438C141.727 79.9533 141.412 80.1448 141.207 80.4047C141.016 80.6646 140.852 80.8971 140.715 81.1023C140.345 82.224 140.127 83.373 140.045 84.5494C139.976 85.8079 139.908 87.0663 139.867 88.3248C139.785 90.9512 139.566 93.5502 139.237 96.1492L138.964 97.2845C138.649 98.3651 138.718 100.089 139.183 102.428L139.374 102.934C139.648 103.618 140.127 104.302 140.811 104.972C140.893 105.027 140.975 105.082 141.07 105.123C141.577 105.382 142.37 105.519 143.423 105.519C143.615 105.519 143.793 105.506 143.97 105.465C144.107 105.437 144.777 105.246 145.995 104.863C147.199 104.466 148.279 103.549 149.237 102.113C149.264 102.058 149.305 102.017 149.333 101.976C149.291 102.291 149.469 102.852 149.866 103.673C150.386 104.74 151.48 105.328 153.149 105.437C154.818 105.547 155.885 105.259 156.35 104.603C156.623 104.233 156.747 103.7 156.747 103.016C156.747 102.729 156.733 102.332 156.705 101.812C156.582 100.513 156.528 99.1996 156.541 97.9001C156.555 96.5322 156.569 95.178 156.61 93.8101C156.651 92.4422 156.705 91.0743 156.801 89.7064C156.883 88.4069 156.979 87.0937 157.075 85.7805C157.184 84.44 157.075 83.1268 156.774 81.8273Z" fill="white"/>
<path d="M155.502 84.5772C155.57 83.6607 155.502 82.8673 155.297 82.197C154.996 81.2532 154.435 80.7744 153.614 80.7744C152.52 80.7744 151.562 81.7319 150.769 83.647C149.77 86.1229 148.785 88.6125 147.801 91.102C146.05 95.2878 144.955 97.5722 144.504 97.9825V97.7363C144.49 96.1085 144.764 93.6873 145.338 90.4865C145.899 87.2993 146.186 84.9191 146.186 83.3324C146.186 82.6758 145.995 82.1013 145.612 81.6362C145.229 81.1711 144.723 80.9522 144.08 80.9522C142.986 80.9522 142.261 81.5678 141.932 82.7852C141.878 84.5224 141.645 87.3266 141.221 91.2388C140.824 94.8364 140.633 97.6406 140.633 99.624C140.633 101.115 140.852 102.264 141.303 103.057C141.713 103.755 142.206 104.042 142.767 103.919C144.367 103.591 145.858 102.373 147.253 100.253L148.019 98.9948C148.225 98.6118 148.43 98.2151 148.635 97.8047C149.538 95.9991 150.564 93.2496 151.726 89.57C151.863 89.2417 151.959 88.9955 152.014 88.8313C152.027 88.9681 152.027 89.1049 152.014 89.2417C151.918 91.4714 151.836 93.701 151.726 95.9307C151.617 98.5981 151.426 100.828 151.152 102.62C151.918 103.741 152.657 104.302 153.368 104.302C154.38 104.302 154.955 103.55 155.119 102.032C154.941 100.322 154.845 98.475 154.845 96.5052C154.845 93.9199 155.064 89.9393 155.502 84.5772Z" fill="#FE451D"/>
<path d="M81.4033 81.8273C81.3759 81.7315 81.3486 81.6358 81.3075 81.54C80.8561 80.1585 80.0491 79.3104 78.9137 79.0231C78.3529 78.8726 77.6689 79.0778 76.8345 79.6113C76.0138 80.1311 75.3708 80.774 74.9058 81.54C74.4133 82.3881 73.9619 83.2636 73.5652 84.1664C73.5516 84.1938 73.319 84.5357 72.8539 85.1923C72.8402 84.5631 72.8266 83.9202 72.8266 83.2636C72.8266 82.2377 72.7445 81.458 72.594 80.9245C72.2247 79.666 71.445 79.1189 70.2823 79.3104C69.7351 79.324 69.2016 79.3514 68.6955 79.4061C67.7106 79.4882 67.0677 79.6387 66.7805 79.8438C66.3564 79.9533 66.0418 80.1448 65.8366 80.4047C65.6451 80.6646 65.481 80.8971 65.3442 81.1023C64.9749 82.224 64.756 83.373 64.6739 84.5494C64.6055 85.8079 64.5371 87.0663 64.4961 88.3248C64.414 90.9512 64.1952 93.5502 63.8669 96.1492L63.5933 97.2845C63.2787 98.3651 63.3471 100.089 63.8121 102.428L64.0036 102.934C64.2772 103.618 64.756 104.302 65.4399 104.972C65.522 105.027 65.6041 105.082 65.6998 105.123C66.206 105.382 66.9993 105.519 68.0526 105.519C68.2441 105.519 68.4219 105.506 68.5998 105.465C68.7366 105.437 69.4068 105.246 70.6243 104.863C71.828 104.466 72.9086 103.549 73.8662 102.113C73.8935 102.058 73.9346 102.017 73.9619 101.976C73.9209 102.291 74.0987 102.852 74.4954 103.673C75.0152 104.74 76.1095 105.328 77.7783 105.437C79.4472 105.547 80.5141 105.259 80.9792 104.603C81.2528 104.233 81.3759 103.7 81.3759 103.016C81.3759 102.729 81.3622 102.332 81.3349 101.812C81.2118 100.513 81.1571 99.1996 81.1707 97.9001C81.1844 96.5322 81.1981 95.178 81.2391 93.8101C81.2802 92.4422 81.3349 91.0743 81.4306 89.7064C81.5127 88.4069 81.6085 87.0937 81.7042 85.7805C81.8136 84.44 81.7042 83.1268 81.4033 81.8273Z" fill="white"/>
<path d="M80.1307 84.5772C80.1991 83.6607 80.1307 82.8673 79.9256 82.197C79.6246 81.2532 79.0638 80.7744 78.243 80.7744C77.1487 80.7744 76.1912 81.7319 75.3978 83.647C74.3993 86.1229 73.4144 88.6125 72.4295 91.102C70.6786 95.2878 69.5843 97.5722 69.1329 97.9825V97.7363C69.1192 96.1085 69.3928 93.6873 69.9673 90.4865C70.5281 87.2993 70.8154 84.9191 70.8154 83.3324C70.8154 82.6758 70.6239 82.1013 70.2409 81.6362C69.8578 81.1711 69.3517 80.9522 68.7088 80.9522C67.6145 80.9522 66.8895 81.5678 66.5612 82.7852C66.5065 84.5224 66.274 87.3266 65.8499 91.2388C65.4532 94.8364 65.2617 97.6406 65.2617 99.624C65.2617 101.115 65.4806 102.264 65.932 103.057C66.3424 103.755 66.8348 104.042 67.3956 103.919C68.9961 103.591 70.4871 102.373 71.8823 100.253L72.6484 98.9948C72.8535 98.6118 73.0587 98.2151 73.2639 97.8047C74.1667 95.9991 75.1926 93.2496 76.3554 89.57C76.4921 89.2417 76.5879 88.9955 76.6426 88.8313C76.6563 88.9681 76.6563 89.1049 76.6426 89.2417C76.5469 91.4714 76.4648 93.701 76.3554 95.9307C76.2459 98.5981 76.0544 100.828 75.7808 102.62C76.5469 103.741 77.2855 104.302 77.9968 104.302C79.0091 104.302 79.5836 103.55 79.7477 102.032C79.5699 100.322 79.4742 98.475 79.4742 96.5052C79.4742 93.9199 79.693 89.9393 80.1307 84.5772Z" fill="#FE451D"/>
<path d="M160.231 65.1079C160.136 64.6976 159.944 64.3146 159.657 63.9589C159.397 63.6306 159.069 63.3433 158.686 63.1108C158.043 62.7141 157.208 62.4542 156.21 62.3448C155.498 62.2627 154.773 62.249 154.035 62.3174C154.007 62.1396 154.007 61.9618 154.048 61.784C154.076 61.6198 154.117 61.4967 154.185 61.4009C154.226 61.3325 154.322 61.2505 154.459 61.1547C154.568 61.0726 154.664 61.0043 154.746 60.9632C155.129 60.9359 155.594 60.8948 156.128 60.8401C156.921 60.7307 157.619 60.5255 158.207 60.2246C158.905 59.8552 159.397 59.3628 159.684 58.7609C159.876 58.3642 159.971 57.9265 159.958 57.4204C159.958 56.9826 159.876 56.5312 159.725 56.0525C159.493 55.2728 159.178 54.753 158.781 54.4931C158.398 54.2195 158.125 54.069 157.961 54.0143C157.797 53.9733 157.564 53.9459 157.249 53.9322C156.935 53.9322 156.388 53.9733 155.608 54.069C154.814 54.1648 154.322 54.1785 154.131 54.1101V53.8912C154.131 53.5766 154.172 53.3167 154.267 53.0978C154.431 53.0431 154.609 53.0157 154.828 53.0021H155.471C156.169 53.0021 156.812 52.9063 157.4 52.7285C158.07 52.537 158.631 52.2224 159.082 51.812C159.506 51.429 159.821 50.9639 160.026 50.4167C160.245 49.9106 160.313 49.3635 160.259 48.8163C160.204 48.2555 160.013 47.7357 159.684 47.2569C159.465 46.9286 159.192 46.6413 158.877 46.4225C157.824 46.4088 156.606 46.4498 155.252 46.5456C153.132 46.7371 151.532 46.8602 150.465 46.9286C149.863 46.9696 149.493 46.997 149.316 47.0107C148.892 47.0517 148.509 47.1064 148.18 47.1748C147.469 47.3116 146.853 47.5442 146.375 47.8725C145.335 48.8573 145.198 49.9517 145.951 51.1554C145.978 51.4837 145.951 52.578 145.868 54.4384C145.8 56.2987 145.745 57.9675 145.704 59.4448C145.663 60.9222 145.65 61.7703 145.663 62.0028C145.677 62.2217 145.704 62.591 145.732 63.0835C145.759 63.5759 145.8 64.0683 145.855 64.5334C145.91 65.0122 145.964 65.4226 146.019 65.7782C146.074 66.1339 146.128 66.4485 146.169 66.7084L146.402 67.5154C146.47 67.748 146.58 67.9805 146.703 68.1857C146.894 68.514 147.168 68.7876 147.537 68.9928C147.907 69.2116 148.303 69.3895 148.714 69.5126C149.138 69.622 149.917 69.7041 151.066 69.7588C152.202 69.7998 153.31 69.7588 154.39 69.6494C155.471 69.5399 156.456 69.3484 157.372 69.0748C158.289 68.8149 159.082 68.3498 159.725 67.6933C159.917 67.3376 160.067 66.9546 160.177 66.5442C160.313 66.0381 160.327 65.5593 160.231 65.1079Z" fill="white"/>
<path d="M158.603 49.1168C158.535 48.7475 158.303 48.4466 157.919 48.2003C157.742 48.0909 157.55 48.0088 157.318 47.9268C152.229 48.1593 149.439 48.3098 148.973 48.3645C148.495 48.4329 148.139 48.5423 147.907 48.7201C147.688 48.898 147.537 49.1032 147.469 49.3357C147.414 49.5682 147.4 49.7871 147.428 49.9923C147.455 50.1975 147.51 50.3753 147.578 50.5258C147.633 50.6352 147.756 50.7446 147.934 50.8541C147.66 56.4077 147.824 61.9477 148.454 67.4466C148.577 67.6244 148.741 67.7612 148.946 67.8844C149.151 68.0075 149.398 68.1032 149.685 68.1716C149.904 68.2126 150.164 68.2537 150.478 68.2674C150.943 68.2947 151.572 68.2537 152.352 68.1579C153.132 68.0622 153.747 68.0075 154.199 67.9664C154.65 67.9254 155.184 67.8843 155.786 67.8296C156.387 67.7612 156.839 67.6518 157.14 67.4877C157.427 67.3235 157.646 67.132 157.796 66.9131C157.933 66.708 158.029 66.4617 158.097 66.1882C158.166 65.8599 158.084 65.5452 157.878 65.2306C157.687 64.9434 157.482 64.7656 157.249 64.6698C157.03 64.5877 156.757 64.533 156.442 64.5056C156.128 64.4783 155.608 64.4783 154.855 64.4783C154.117 64.4783 153.46 64.5056 152.913 64.533C152.366 64.574 151.997 64.5877 151.805 64.5604C151.627 62.8095 151.545 61.0586 151.572 59.3076C151.846 59.1572 152.188 59.0751 152.585 59.0614C152.708 59.0614 153.173 59.0888 153.98 59.1435C154.65 59.1709 155.307 59.1161 155.963 58.9794C156.182 58.9383 156.374 58.8836 156.524 58.8152C156.716 58.7331 156.866 58.61 156.976 58.4732C157.099 58.3228 157.181 58.1313 157.222 57.9124C157.249 57.7619 157.263 57.5431 157.249 57.2695C157.249 57.0233 157.236 56.8318 157.208 56.6813C157.153 56.4761 157.071 56.2983 156.962 56.1615C156.825 55.9973 156.62 55.8879 156.36 55.8332C156.169 55.7922 155.922 55.7785 155.608 55.7922C154.691 55.8058 153.419 55.8195 151.819 55.8469C151.696 54.3559 151.682 52.8649 151.791 51.3739C152.448 51.3465 153.159 51.3055 153.912 51.2644C155.293 51.196 156.169 51.1276 156.524 51.0866C156.894 51.0319 157.222 50.9361 157.509 50.7993C157.851 50.6352 158.125 50.4027 158.33 50.088C158.603 49.7871 158.672 49.4588 158.603 49.1168Z" fill="#FE451D"/>
<path d="M175.825 65.1079C175.729 64.6976 175.538 64.3146 175.251 63.9589C174.991 63.6306 174.662 63.3433 174.279 63.1108C173.636 62.7141 172.802 62.4542 171.804 62.3448C171.092 62.2627 170.367 62.249 169.629 62.3174C169.601 62.1396 169.601 61.9618 169.642 61.784C169.67 61.6198 169.711 61.4967 169.779 61.4009C169.82 61.3325 169.916 61.2505 170.053 61.1547C170.162 61.0726 170.258 61.0043 170.34 60.9632C170.723 60.9359 171.188 60.8948 171.721 60.8401C172.515 60.7307 173.212 60.5255 173.801 60.2246C174.498 59.8552 174.991 59.3628 175.278 58.7609C175.469 58.3642 175.565 57.9265 175.552 57.4204C175.552 56.9826 175.469 56.5312 175.319 56.0525C175.086 55.2728 174.772 54.753 174.375 54.4931C173.992 54.2195 173.719 54.069 173.554 54.0143C173.39 53.9733 173.158 53.9459 172.843 53.9322C172.528 53.9322 171.981 53.9733 171.202 54.069C170.408 54.1648 169.916 54.1785 169.724 54.1101V53.8912C169.724 53.5766 169.765 53.3167 169.861 53.0978C170.025 53.0431 170.203 53.0157 170.422 53.0021H171.065C171.762 53.0021 172.405 52.9063 172.994 52.7285C173.664 52.537 174.225 52.2224 174.676 51.812C175.1 51.429 175.415 50.9639 175.62 50.4167C175.839 49.9106 175.907 49.3635 175.852 48.8163C175.798 48.2555 175.606 47.7357 175.278 47.2569C175.059 46.9286 174.786 46.6413 174.471 46.4225C173.418 46.4088 172.2 46.4498 170.846 46.5456C168.726 46.7371 167.125 46.8602 166.058 46.9286C165.456 46.9696 165.087 46.997 164.909 47.0107C164.485 47.0517 164.102 47.1064 163.774 47.1748C163.063 47.3116 162.447 47.5442 161.968 47.8725C160.929 48.8573 160.792 49.9517 161.544 51.1554C161.572 51.4837 161.544 52.578 161.462 54.4384C161.394 56.2987 161.339 57.9675 161.298 59.4448C161.257 60.9222 161.243 61.7703 161.257 62.0028C161.271 62.2217 161.298 62.591 161.325 63.0835C161.353 63.5759 161.394 64.0683 161.449 64.5334C161.503 65.0122 161.558 65.4226 161.613 65.7782C161.667 66.1339 161.722 66.4485 161.763 66.7084L161.996 67.5154C162.064 67.748 162.174 67.9805 162.297 68.1857C162.488 68.514 162.762 68.7876 163.131 68.9928C163.5 69.2116 163.897 69.3895 164.307 69.5126C164.731 69.622 165.511 69.7041 166.66 69.7588C167.796 69.7998 168.904 69.7588 169.984 69.6494C171.065 69.5399 172.05 69.3484 172.966 69.0748C173.883 68.8149 174.676 68.3498 175.319 67.6933C175.511 67.3376 175.661 66.9546 175.77 66.5442C175.907 66.0381 175.921 65.5593 175.825 65.1079Z" fill="white"/>
<path d="M174.198 49.1168C174.129 48.7475 173.897 48.4466 173.514 48.2003C173.336 48.0909 173.144 48.0088 172.912 47.9268C167.823 48.1593 165.033 48.3098 164.568 48.3645C164.089 48.4329 163.733 48.5423 163.501 48.7201C163.282 48.898 163.131 49.1032 163.063 49.3357C163.008 49.5682 162.995 49.7871 163.022 49.9923C163.049 50.1975 163.104 50.3753 163.172 50.5258C163.227 50.6352 163.35 50.7446 163.528 50.8541C163.255 56.4077 163.419 61.9477 164.048 67.4466C164.171 67.6244 164.335 67.7612 164.54 67.8844C164.746 68.0075 164.992 68.1032 165.279 68.1716C165.498 68.2126 165.758 68.2537 166.072 68.2674C166.537 68.2947 167.167 68.2537 167.946 68.1579C168.726 68.0622 169.342 68.0075 169.793 67.9664C170.244 67.9254 170.778 67.8843 171.38 67.8296C171.982 67.7612 172.433 67.6518 172.734 67.4877C173.021 67.3235 173.24 67.132 173.391 66.9131C173.527 66.708 173.623 66.4617 173.692 66.1882C173.76 65.8599 173.678 65.5452 173.473 65.2306C173.281 64.9434 173.076 64.7656 172.843 64.6698C172.625 64.5877 172.351 64.533 172.036 64.5056C171.722 64.4783 171.202 64.4783 170.45 64.4783C169.711 64.4783 169.054 64.5056 168.507 64.533C167.96 64.574 167.591 64.5877 167.399 64.5604C167.221 62.8095 167.139 61.0586 167.167 59.3076C167.44 59.1572 167.782 59.0751 168.179 59.0614C168.302 59.0614 168.767 59.0888 169.574 59.1435C170.244 59.1709 170.901 59.1161 171.558 58.9794C171.777 58.9383 171.968 58.8836 172.118 58.8152C172.31 58.7331 172.46 58.61 172.57 58.4732C172.693 58.3228 172.775 58.1313 172.816 57.9124C172.843 57.7619 172.857 57.5431 172.843 57.2695C172.843 57.0233 172.83 56.8318 172.802 56.6813C172.748 56.4761 172.666 56.2983 172.556 56.1615C172.419 55.9973 172.214 55.8879 171.954 55.8332C171.763 55.7922 171.517 55.7785 171.202 55.7922C170.285 55.8058 169.013 55.8195 167.413 55.8469C167.29 54.3559 167.276 52.8649 167.386 51.3739C168.042 51.3465 168.753 51.3055 169.506 51.2644C170.887 51.196 171.763 51.1276 172.118 51.0866C172.488 51.0319 172.816 50.9361 173.103 50.7993C173.445 50.6352 173.719 50.4027 173.924 50.088C174.198 49.7871 174.266 49.4588 174.198 49.1168Z" fill="#FE451D"/>
<path d="M96.4494 47.2505C95.8749 45.6774 94.8626 44.542 93.4127 43.8307C91.5387 42.9279 89.651 42.7638 87.7222 43.3246C85.7114 43.9128 83.769 44.6788 81.895 45.5953C80.6229 46.416 79.8705 48.0575 79.679 50.5334C79.6653 50.6839 79.8295 51.231 80.1578 52.1475C80.4997 53.064 80.6365 54.1446 80.5818 55.4031C80.5271 56.6616 80.4997 58.1252 80.4724 59.7941C80.445 61.4629 80.4587 63.3095 80.4997 65.3204C80.5408 66.401 80.5408 67.4816 80.5271 68.5623C80.5134 69.6566 80.8554 70.6278 81.553 71.4759C82.5653 72.707 83.9058 73.2405 85.561 73.09C87.6949 72.8575 89.0354 71.6674 89.5963 69.5061C89.7604 68.8359 89.7878 68.1519 89.6646 67.4543C89.268 65.4161 89.1996 63.4327 89.4321 61.4902C89.4458 61.2851 89.5552 61.162 89.733 61.1209C91.6755 60.4506 93.1938 59.2879 94.2744 57.6191C95.4782 56.3333 96.3126 54.8286 96.7503 53.0777C96.7777 52.9546 96.8187 52.8178 96.8461 52.6947C97.2291 50.8617 97.0923 49.0424 96.4494 47.2505Z" fill="white"/>
<path d="M92.2638 56.3199C93.2897 55.2256 93.9463 53.9671 94.2609 52.5445C94.3567 52.0931 94.4251 51.6143 94.4388 51.1356C94.5756 49.3436 93.9053 47.9347 92.4143 46.8951C91.019 45.9102 89.5007 45.5819 87.8592 45.8965C86.9837 46.0743 86.163 46.389 85.397 46.8404C84.3574 47.4422 83.4819 48.2493 82.7843 49.2616C82.2782 49.9729 82.1688 50.6705 82.4423 51.3544C82.5381 51.6143 82.7022 51.8742 82.9074 52.1204L82.839 68.8361C83.1947 69.5064 83.7008 69.9852 84.3437 70.2861C85.0824 70.6144 85.6979 70.4776 86.1767 69.9031C86.4776 69.5337 86.6418 69.1234 86.6555 68.6583C86.7649 65.7584 86.8196 62.8311 86.7922 59.9038C87.0521 59.7943 87.2984 59.6986 87.5583 59.5892C89.3639 58.8231 90.937 57.7288 92.2638 56.3199ZM90.212 52.1341C89.7606 53.1601 88.6526 54.2407 86.9017 55.3897L86.929 54.6374C86.9154 53.4883 86.929 52.695 86.9427 52.2846C86.9427 52.1205 86.9564 51.97 86.9701 51.8195C86.9974 51.3134 87.0521 50.8893 87.1342 50.5474C87.4899 49.8771 88.1465 49.5898 89.1177 49.6993C89.5144 49.7403 89.8837 49.8908 90.2257 50.1507C90.3898 50.4927 90.4582 50.8346 90.4445 51.1766C90.4445 51.4639 90.3625 51.7922 90.212 52.1341Z" fill="#FE451D"/>
<path d="M133.936 47.2911C133.704 47.2501 133.471 47.2364 133.252 47.2638C132.431 47.3458 131.788 47.4963 131.323 47.7152C130.735 47.934 130.243 48.4128 129.846 49.1241C129.75 49.3293 129.682 49.5071 129.627 49.6576C129.121 51.4222 128.875 50.875 128.875 47.9888C128.793 47.3185 128.738 46.9081 128.738 46.7577C128.697 46.1695 128.506 45.636 128.191 45.1299C127.863 44.6101 127.398 44.227 126.796 43.9671C126.221 43.7209 125.619 43.6388 124.99 43.7072C124.251 43.7893 123.567 44.0902 122.911 44.6237C122.254 45.1435 121.748 45.7044 121.406 46.2926C121.064 46.8808 120.654 47.6878 120.202 48.7274C119.751 49.7533 119.505 51.6274 119.477 54.3495C119.436 57.0716 119.231 60.4913 118.862 64.6224C118.78 65.5252 118.78 66.469 118.862 67.4539C118.944 68.4251 119.04 69.1774 119.135 69.7109C119.231 70.2307 119.423 70.6821 119.737 71.0651C120.038 71.4482 120.476 71.7901 121.037 72.1047C121.639 72.433 122.364 72.5835 123.212 72.5698C123.718 72.5561 124.47 72.4604 125.496 72.2826C128.382 71.7628 131.159 71.4345 133.813 71.2703V71.284C135.564 71.1746 137.26 71.1472 138.902 71.2019C139.599 71.2156 140.187 71.2019 140.693 71.1609C141.2 71.1062 141.76 70.9147 142.376 70.5864C143.005 70.2581 143.388 69.41 143.539 68.0421C143.703 66.6742 143.361 65.6483 142.513 64.9507L144.414 53.4877C144.537 52.5028 144.619 51.7094 144.66 51.0939C144.688 50.4783 144.701 49.9175 144.674 49.4114C144.633 48.8916 144.592 48.4402 144.537 48.0572C144.483 47.6605 144.387 47.2638 144.223 46.8397C144.058 46.4157 143.771 46.0463 143.388 45.7454C143.005 45.4445 142.609 45.2393 142.226 45.1299C141.842 45.0341 141.446 44.9657 141.049 44.952C140.639 44.9247 140.174 44.9931 139.668 45.1162C139.161 45.253 138.696 45.6223 138.272 46.2378C137.848 46.8534 137.534 48.1255 137.342 50.0543C137.137 51.983 136.959 52.5575 136.795 51.8052C136.576 50.0953 136.193 48.9736 135.673 48.4128C135.619 48.3444 135.55 48.2897 135.509 48.235C135.249 47.9204 134.935 47.6741 134.552 47.51C134.319 47.4416 134.128 47.3595 133.936 47.2911Z" fill="white"/>
<path d="M131.939 49.5893C131.898 49.6029 131.83 49.6577 131.748 49.7534C131.365 50.0817 131.05 50.6562 130.79 51.4906C130.434 53.1868 130.092 55.6901 129.75 59.0277L129.258 66.1681C129.08 66.1818 128.916 66.1955 128.752 66.2092C128.136 66.2776 127.534 66.346 126.946 66.4281V66.4417C126.344 66.5375 125.756 66.6332 125.195 66.7427C125.223 65.2654 125.332 63.6376 125.51 61.873C125.633 60.6692 125.852 58.8773 126.167 56.4971L126.892 51.1076C127.165 50.0133 127.247 48.9053 127.151 47.7837C127.056 46.6209 126.385 45.978 125.154 45.8412C123.91 45.7044 123.116 46.4431 122.761 48.0435L122.364 50.4921C122.35 50.6289 122.336 50.752 122.323 50.8888C122.227 51.8189 122.118 53.5425 121.953 56.0731C121.803 58.59 121.721 60.765 121.707 62.6116C121.68 64.4446 121.707 65.7851 121.776 66.6196C121.817 67.1667 121.844 67.5497 121.858 67.7823C121.844 67.9738 121.844 68.1516 121.844 68.3021V68.3158C121.83 68.6304 121.844 68.8629 121.871 69.0271C121.94 69.4101 122.118 69.7384 122.391 70.0119C122.651 70.2582 122.966 70.436 123.349 70.5591C123.691 70.6685 124.06 70.7096 124.47 70.6959C124.785 70.6822 125.168 70.6412 125.592 70.5728C125.838 70.5317 126.208 70.4497 126.686 70.3402C127.015 70.2718 127.411 70.2171 127.849 70.1624C128.314 70.1077 128.834 70.053 129.395 69.9983C131.2 69.8478 132.979 69.7384 134.757 69.6563V69.67C136.139 69.6153 137.52 69.5879 138.888 69.5742C139.312 69.5742 139.64 69.5469 139.846 69.5195C140.201 69.4785 140.502 69.3827 140.735 69.2459C141.022 69.0818 141.241 68.8629 141.419 68.5757C141.596 68.2884 141.679 67.9738 141.692 67.6455C141.706 67.3309 141.624 67.0162 141.446 66.7153C141.282 66.4281 141.063 66.1955 140.789 66.0177C140.625 65.9219 140.434 65.8399 140.229 65.7852L142.8 50.369C142.855 50.0407 142.882 49.8081 142.91 49.6713C142.91 49.4935 142.923 49.343 142.923 49.2063V49.1242C142.91 49.0695 142.91 49.0148 142.91 48.9737C142.828 48.4539 142.609 48.0162 142.226 47.6332C141.843 47.2638 141.391 47.1271 140.858 47.2365C140.311 47.3459 139.941 47.5237 139.722 47.7973C139.504 48.0709 139.271 48.4539 139.038 48.9464C138.929 49.2336 138.82 49.7671 138.683 50.5331C138.546 51.2991 138.259 53.2415 137.821 56.3877C137.383 59.5202 137.055 62.0097 136.85 63.8427L136.672 65.4021C136.617 65.58 136.604 65.7031 136.617 65.7441C136.33 65.7578 136.056 65.7578 135.797 65.7715V65.7578C134.648 65.7988 133.635 65.8399 132.76 65.8809C132.76 65.8399 132.76 65.7988 132.774 65.7715C133.266 60.9838 133.977 56.5792 134.894 52.5713C134.99 52.0925 135.044 51.7232 135.058 51.4633V51.2444V51.1076C135.031 50.834 134.948 50.5878 134.825 50.3963C134.661 50.1091 134.401 49.8765 134.073 49.6987C133.731 49.5072 133.389 49.3978 133.02 49.3841C132.951 49.3704 132.883 49.3704 132.842 49.3704H132.732C132.459 49.4114 132.185 49.4798 131.939 49.5893Z" fill="#FE451D"/>
<path d="M52.3017 55.276C52.3017 55.276 60.3449 50.3379 57.103 46.4394C54.9417 43.8404 48.923 48.9426 48.923 48.9426C48.239 48.0398 47.3636 46.8224 46.6933 45.9196C45.3801 44.1003 43.6566 43.6352 41.5227 44.5517C40.4831 44.9758 39.9359 45.7691 39.8538 46.8908C39.7307 48.5186 39.8675 49.0384 41.167 51.1586L42.8359 53.9765C40.6883 56.5071 39.1973 59.1745 38.4312 61.6367C37.6652 64.1126 37.0907 65.8362 37.036 67.0399C36.9539 68.6814 36.8992 70.3229 38.2124 71.212C39.293 71.9506 39.7854 71.9643 41.0849 71.9643C42.1519 71.9643 43.8207 70.8563 44.4089 68.8182C45.0108 66.7526 46.3103 62.5258 46.6249 62.2112C46.9532 62.5258 48.2117 67.3545 49.2923 69.5158C49.5796 70.0493 50.7013 71.6497 53.1361 71.1983C54.1894 71.0068 54.8186 70.8153 55.5026 70.2271C56.7063 68.955 56.5969 66.78 56.2412 64.9197C55.5026 61.1032 54.1073 58.7231 52.3017 55.276Z" fill="white"/>
<path d="M40.2505 69.7483C40.5651 69.803 40.8934 69.762 41.2217 69.6115C41.5363 69.461 41.7826 69.2695 41.9878 69.0096C42.1519 68.7908 42.3024 68.5035 42.4118 68.1752C42.4802 67.9974 42.5759 67.6965 42.658 67.3134C43.1231 65.3163 43.5745 63.7296 44.0396 62.5258C44.7235 60.8023 45.558 59.3523 46.5702 58.1486C46.7891 57.8886 46.9532 57.6698 47.0763 57.5467C47.09 57.533 47.09 57.5193 47.1037 57.5193C47.6098 58.5452 48.1843 60.0636 48.8409 62.0881C49.4975 64.1126 49.8942 65.4668 50.072 66.096C50.2498 66.6569 50.4003 67.1356 50.5371 67.5186C50.6465 67.8332 50.756 68.0931 50.8654 68.2846C51.0295 68.5445 51.2074 68.7634 51.4126 68.9002C51.7956 69.2011 52.288 69.2695 52.8762 69.1601C53.4507 69.078 53.8884 68.8181 54.1757 68.4351C54.463 68.0658 54.5861 67.6144 54.5587 67.0946C54.545 66.7253 54.4356 66.2465 54.2578 65.672C53.738 64.0442 53.4234 63.1003 53.3413 62.8267C52.671 60.6381 50.6739 56.466 49.8668 54.8656C49.8668 54.8656 50.0447 54.6057 50.3046 54.3868C55.0375 50.2421 56.5695 49.6676 55.4342 48.1219C54.2441 46.5078 51.0979 49.4214 48.581 51.5416C48.3758 51.7194 48.2664 51.8426 48.2664 51.8426C47.7603 51.0218 46.2556 48.3818 45.2433 47.1096C45.0518 46.8497 44.8877 46.6446 44.7372 46.5214C44.5184 46.3299 44.2995 46.1931 44.0533 46.1247C43.6429 46.0016 43.2052 46.07 42.7675 46.3026C42.3434 46.5351 42.0561 46.8497 41.933 47.2327C41.8236 47.6158 41.8646 48.0261 42.0562 48.4912C42.1793 48.7785 42.5349 49.4077 43.1231 50.4336C43.6976 51.4595 44.3816 52.7727 45.1476 54.4005C45.1202 54.4142 45.0655 54.4689 44.9698 54.551C43.6839 55.9052 42.5759 57.4373 41.6321 59.1471C40.8934 60.5424 40.2916 62.006 39.8265 63.5244V63.5517C39.1699 65.1932 38.9237 66.7116 39.0878 68.0521C39.1152 68.4762 39.2383 68.8181 39.4161 69.1054C39.6487 69.4474 39.9222 69.6526 40.2505 69.7483Z" fill="#FE451D"/>
<path d="M78.8511 51.9989C78.8238 51.4244 78.7554 50.8773 78.6459 50.3575L78.1945 48.8391C78.3176 48.6886 78.386 48.5245 78.3723 48.3467C78.1945 45.5972 76.6898 43.9557 73.8857 43.4359C71.4782 43.0255 69.2074 43.3949 67.0735 44.5439C64.8439 45.6656 63.0656 47.3481 61.7387 49.6188C60.1657 52.3136 59.1671 55.2272 58.7704 58.3733C58.4148 61.2596 58.661 64.1732 59.5091 67.1142C60.3708 70.0552 61.9303 71.8061 64.1736 72.3943C66.4169 72.9825 68.4414 72.9961 70.2197 72.449C72.0116 71.9155 73.8446 70.0278 75.7323 66.7859C76.5667 65.1307 77.2233 63.544 77.6747 62.0256C78.6459 58.7563 79.0289 55.405 78.8511 51.9989ZM67.7712 58.6195C68.1679 55.7333 68.8928 53.7909 69.9324 52.7786C70.972 51.7664 71.3277 52.5735 70.9857 55.1998C70.9173 56.2394 70.6027 57.4842 70.0282 58.9205C68.1268 61.6016 67.3745 61.5058 67.7712 58.6195ZM76.6351 45.6382C76.6898 45.7203 76.7172 45.8161 76.7172 45.9255L76.6351 45.6382Z" fill="white"/>
<path d="M76.6758 49.8234L75.7183 47.1013C76.1834 46.9372 76.4569 46.7593 76.5116 46.5678C76.6484 46.1438 76.5664 45.8292 76.2381 45.6514C74.1589 44.516 71.8882 44.3929 69.4259 45.2683C68.5779 45.6377 67.8118 46.1712 67.1279 46.8688C65.5138 48.5376 64.2006 50.48 63.1747 52.696C63.0379 52.9833 62.9148 53.2842 62.7917 53.5851C62.7506 53.6535 62.7233 53.7219 62.6822 53.7903C61.67 55.9926 60.9997 58.277 60.6988 60.6024C60.3978 62.9279 60.5893 64.9934 61.2459 66.7853C61.9025 68.5636 63.1336 69.8631 64.9393 70.6702C66.7312 71.4772 68.6189 70.9848 70.575 69.1928C72.5584 67.4009 74.0221 65.4038 74.9659 63.2288C75.0343 63.0647 75.1164 62.8868 75.1985 62.709C75.2805 62.5312 75.3763 62.3397 75.4584 62.1345C76.4022 59.9595 76.9494 57.7572 77.1135 55.5549C77.2777 53.3663 77.1272 51.4512 76.6758 49.8234ZM69.8226 49.1395C71.5052 48.1683 72.7363 48.6607 73.5023 50.5895C74.2683 52.5045 74.2546 54.871 73.4612 57.6752C73.2013 58.3454 72.9414 59.0157 72.6952 59.686C72.5174 60.151 72.3396 60.6025 72.1754 61.0265C71.6419 62.1482 71.0811 63.1194 70.4929 63.9538C69.4807 65.349 68.2222 65.9236 66.7038 65.6773C65.1855 65.4311 64.5152 63.776 64.693 60.6982C64.8572 57.7983 65.3633 55.295 66.1977 53.1748C67.1005 51.3418 68.318 50.0013 69.8226 49.1395Z" fill="#FE451D"/>
<path d="M117.973 51.9989C117.946 51.4244 117.877 50.8773 117.768 50.3575L117.317 48.8391C117.44 48.6886 117.508 48.5245 117.494 48.3467C117.317 45.5972 115.812 43.9557 113.008 43.4359C110.6 43.0255 108.33 43.3949 106.196 44.5439C103.966 45.6656 102.188 47.3481 100.861 49.6188C99.2877 52.3136 98.2892 55.2272 97.8925 58.3733C97.5368 61.2596 97.783 64.1732 98.6311 67.1142C99.4929 70.0552 101.052 71.8061 103.296 72.3943C105.539 72.9825 107.563 72.9961 109.342 72.449C111.134 71.9155 112.967 70.0278 114.854 66.7859C115.689 65.1307 116.345 63.544 116.797 62.0256C117.768 58.7563 118.151 55.405 117.973 51.9989ZM106.893 58.6195C107.29 55.7333 108.015 53.7909 109.055 52.7786C110.094 51.7664 110.45 52.5735 110.108 55.1998C110.039 56.2394 109.725 57.4842 109.15 58.9205C107.249 61.6016 106.497 61.5058 106.893 58.6195ZM115.757 45.6382C115.812 45.7203 115.839 45.8161 115.839 45.9255L115.757 45.6382Z" fill="white"/>
<path d="M115.798 49.8234L114.841 47.1013C115.306 46.9372 115.579 46.7593 115.634 46.5678C115.771 46.1438 115.689 45.8292 115.361 45.6514C113.281 44.516 111.011 44.3929 108.549 45.2683C107.7 45.6377 106.934 46.1712 106.25 46.8688C104.636 48.5376 103.323 50.48 102.297 52.696C102.16 52.9833 102.037 53.2842 101.914 53.5851C101.873 53.6535 101.846 53.7219 101.805 53.7903C100.793 55.9926 100.122 58.277 99.8213 60.6024C99.5204 62.9279 99.7119 64.9934 100.368 66.7853C101.025 68.5636 102.256 69.8631 104.062 70.6702C105.854 71.4772 107.741 70.9848 109.698 69.1928C111.681 67.4009 113.145 65.4038 114.088 63.2288C114.157 63.0647 114.239 62.8868 114.321 62.709C114.403 62.5312 114.499 62.3397 114.581 62.1345C115.525 59.9595 116.072 57.7572 116.236 55.5549C116.4 53.3663 116.25 51.4512 115.798 49.8234ZM108.945 49.1395C110.628 48.1683 111.859 48.6607 112.625 50.5895C113.391 52.5045 113.377 54.871 112.584 57.6752C112.324 58.3454 112.064 59.0157 111.818 59.686C111.64 60.151 111.462 60.6025 111.298 61.0265C110.765 62.1482 110.204 63.1194 109.615 63.9538C108.603 65.349 107.345 65.9236 105.826 65.6773C104.308 65.4311 103.638 63.776 103.816 60.6982C103.98 57.7983 104.486 55.295 105.32 53.1748C106.223 51.3418 107.441 50.0013 108.945 49.1395Z" fill="#FE451D"/>
</svg>
