<svg width="212" height="150" fill="none" xmlns="http://www.w3.org/2000/svg"><path d="M204.781 48.938c-3.783-47.468-41.856-43.11-96.769-42.625-6.529.06-18.365-.182-24.711 1.332-6.956 1.695-13.118 4.964-19.952 6.841-7.321 1.938-15.131 2.18-22.697 2.906-10.25.909-21.294 2.967-27.884 9.688-9.457 9.566-6.406 23.734-5.918 35.237.793 19.254 4.332 37.175 8.176 56.065.976 4.723 2.013 9.627 5.247 13.26 2.807 3.148 6.895 4.843 10.922 6.175 19.097 6.115 39.598 5.449 59.428 5.449 20.135 0 40.269.545 60.404.727 16.535.121 35.084-1.635 43.565-15.621 4.271-7.084 4.759-15.318 6.406-23.128 1.037-4.662 2.502-9.264 3.356-13.986 2.624-13.683 1.586-28.578.427-42.322z" fill="#FFC525"/><path fill-rule="evenodd" clip-rule="evenodd" d="M15.026 118.383c-3.844-18.89-7.383-36.811-8.176-56.065-.08-1.87-.227-3.81-.377-5.79-.773-10.2-1.625-21.437 6.295-29.448 6.59-6.72 17.633-8.78 27.884-9.688 1.703-.163 3.42-.302 5.14-.442 5.918-.48 11.884-.963 17.557-2.464 3.196-.877 6.244-2.06 9.296-3.243 3.475-1.347 6.953-2.696 10.656-3.598 5.39-1.286 14.74-1.305 21.434-1.319 1.188-.002 2.293-.004 3.277-.013 4.077-.036 8.061-.094 11.946-.15 48.432-.696 81.321-1.17 84.823 42.774 1.159 13.743 2.196 28.638-.427 42.321-.506 2.794-1.225 5.546-1.942 8.293-.496 1.896-.99 3.789-1.414 5.693-.389 1.846-.714 3.716-1.039 5.589-1.051 6.05-2.106 12.13-5.368 17.539-8.481 13.986-27.029 15.742-43.564 15.621-8.054-.073-16.108-.203-24.162-.334-12.081-.196-24.162-.392-36.242-.392-1.77 0-3.545.005-5.324.01-18.154.054-36.711.11-54.105-5.46-4.026-1.332-8.114-3.027-10.921-6.175-3.234-3.633-4.271-8.537-5.247-13.26zm195.226-26.025c-.469 2.586-1.095 5.09-1.7 7.423-.116.45-.232.893-.346 1.328-.49 1.878-.948 3.633-1.344 5.408-.363 1.726-.669 3.486-.997 5.375l-.051.293c-.342 1.971-.712 4.077-1.175 6.185-.929 4.225-2.296 8.767-4.909 13.101l-.004.007-.004.006c-5.28 8.708-13.585 13.337-22.276 15.768-8.602 2.407-18.063 2.803-26.463 2.742h-.01c-8.154-.074-16.239-.205-24.299-.336-12.025-.196-23.994-.39-36.051-.39-1.781 0-3.58.006-5.394.012-18 .061-37.515.128-55.864-5.747l-.028-.009-.027-.009c-4.115-1.361-9.568-3.451-13.516-7.88l-.003-.003c-4.344-4.88-5.649-11.216-6.556-15.623a478.7 478.7 0 00-.085-.411l-.002-.009-.002-.009C5.31 100.725 1.671 82.364.855 62.569c-.063-1.476-.191-3.184-.33-5.03-.322-4.301-.7-9.346-.436-13.914.405-6.972 2.272-14.547 8.403-20.754C16.782 14.424 29.947 12.32 40.1 11.42a383.4 383.4 0 015.554-.48c5.792-.472 11.034-.9 16.133-2.245 2.88-.793 5.652-1.867 8.764-3.073l.562-.218c3.25-1.258 6.863-2.635 10.767-3.587l.014-.003.015-.004C85.738.896 90.83.574 95.409.437c3.278-.097 6.639-.104 9.422-.11 1.158-.002 2.215-.005 3.125-.013h.003c3.99-.035 7.925-.092 11.785-.147 9.249-.133 18.064-.26 26.162-.071 11.497.268 22.131 1.173 31.302 3.776 9.271 2.63 17.332 7.078 23.282 14.586 5.915 7.466 9.262 17.353 10.271 29.99 1.151 13.651 2.284 29.316-.509 43.91z" fill="#fff"/><path d="M172.679 99.305a2.853 2.853 0 00-.575-1.149 3.647 3.647 0 00-.971-.848c-.643-.397-1.477-.657-2.476-.766a10.483 10.483 0 00-2.175-.027 1.41 1.41 0 01.014-.534.886.886 0 01.137-.383c.041-.068.136-.15.273-.246.11-.082.205-.15.287-.192a46.2 46.2 0 001.382-.123c.793-.11 1.491-.314 2.079-.615.698-.37 1.19-.862 1.477-1.464.192-.397.288-.834.274-1.34 0-.438-.082-.89-.232-1.368-.233-.78-.548-1.3-.944-1.56-.383-.273-.657-.424-.821-.478a3.763 3.763 0 00-.711-.083c-.315 0-.862.041-1.642.137-.793.096-1.286.11-1.477.041v-.219c0-.314.041-.574.137-.793.164-.055.342-.082.56-.096h.643a6.63 6.63 0 001.929-.273 4.182 4.182 0 001.683-.917 3.51 3.51 0 00.943-1.395 3.199 3.199 0 00.233-1.6 3.278 3.278 0 00-.575-1.56 3.107 3.107 0 00-.807-.834 44.054 44.054 0 00-3.625.123c-2.12.191-3.72.315-4.787.383-.602.04-.971.068-1.149.082a10.76 10.76 0 00-1.136.164c-.711.137-1.326.37-1.805.698-1.04.985-1.177 2.079-.424 3.283.027.328 0 1.422-.082 3.283a539.84 539.84 0 00-.164 5.006c-.041 1.477-.055 2.326-.041 2.558.013.219.041.588.068 1.08.027.493.068.986.123 1.45.055.48.109.89.164 1.245.055.356.11.671.151.931l.232.807c.069.232.178.465.301.67.192.328.465.602.835.807a5.3 5.3 0 001.176.52c.424.109 1.204.191 2.353.246 1.135.041 2.243 0 3.324-.109a16.04 16.04 0 002.982-.575 5.262 5.262 0 002.353-1.381c.191-.356.341-.739.451-1.15.137-.506.15-.984.055-1.436z" fill="#fff"/><path d="M171.051 83.314c-.069-.37-.301-.67-.684-.916a3.091 3.091 0 00-.602-.274c-5.089.233-7.879.383-8.344.438-.479.068-.835.178-1.067.355-.219.178-.37.383-.438.616a1.813 1.813 0 00.109 1.19c.055.11.178.219.356.328a101.87 101.87 0 00.52 16.593c.123.178.287.315.492.438.206.123.452.218.739.287.219.041.479.082.793.096.465.027 1.095-.014 1.874-.11.78-.096 1.396-.15 1.847-.191.451-.041.985-.082 1.587-.137.602-.068 1.053-.178 1.354-.342.287-.164.506-.356.657-.575.136-.205.232-.451.301-.725.068-.328-.014-.642-.219-.957-.192-.287-.397-.465-.63-.56a3.095 3.095 0 00-.807-.165c-.314-.027-.834-.027-1.586-.027-.739 0-1.396.027-1.943.054-.547.041-.916.055-1.108.028a44.815 44.815 0 01-.232-5.253c.273-.15.615-.233 1.012-.246.123 0 .588.027 1.395.082a8.056 8.056 0 001.984-.164 2.47 2.47 0 00.561-.165 1.17 1.17 0 00.451-.341c.123-.151.205-.343.246-.561.027-.15.041-.37.027-.643 0-.246-.013-.438-.041-.588a1.391 1.391 0 00-.246-.52c-.137-.164-.342-.274-.602-.328a3.026 3.026 0 00-.752-.042c-.916.014-2.189.028-3.789.055a28.669 28.669 0 01-.027-4.473c.656-.027 1.367-.068 2.12-.11 1.381-.068 2.257-.136 2.613-.177.369-.055.697-.15.984-.287.342-.165.616-.397.821-.712.274-.3.342-.629.274-.97z" fill="#FE451D"/><path d="M138.056 91.333a2.029 2.029 0 00-.492-1.19 8.19 8.19 0 00-.287-.273l-.014-.028a.53.53 0 01-.041-.15l-.055-.22c-.027-.095-.054-.19-.068-.259a19.89 19.89 0 00-.137-1.423 20.266 20.266 0 01-.123-2.325c.014-.766.082-1.56.219-2.367.15-.807.219-1.354.219-1.655 0-.533-.151-1.094-.465-1.668-.315-.63-.739-1.109-1.259-1.437-1.368-.875-2.872-.492-4.514 1.136a1.88 1.88 0 00-.26.314c-.287.233-.547 1.026-.752 2.408a32.596 32.596 0 00-.383 4.158c-.027 1.395-.356 1.956-.958 1.696-.314-.916-.342-2.038-.054-3.392.369-1.792.082-3.447-.876-4.952a1.271 1.271 0 00-.629-.287c-.301-.055-.602-.11-.889-.164a8.048 8.048 0 00-1.368-.137c-.479 0-.848.04-1.122.123-.191-.041-.478.027-.875.205-.657.288-1.067.534-1.204.739-.41.533-.656 1.04-.739 1.504-.027.137-.068.643-.123 1.505a33.93 33.93 0 00-.082 1.532c0 .11.028.561.082 1.355.055.793.082 1.518.082 2.174v1.437c-.013.027-.041.287-.082.766-.041.328-.123.574-.219.711-.396.602-.67 1.026-.848 1.3-.342.369-.574.725-.711 1.08-.178.465-.26 1.04-.219 1.71.014.67.082 1.218.205 1.655l.315 1.245c.096.397.205.602.328.63.11.027.315.136.602.328.014.04.014.068.028.082.054 1.737.218 3.242.478 4.514l.041.164c.082.232.178.479.26.766l.014.027c.027.028.055.055.082.096.123.246.301.492.561.739.602.574 1.368.902 2.271.943l1.272.124c1.121-.124 1.969-.78 2.53-1.97.575-1.19.739-2.462.506-3.817-.232-1.354-.218-2.339.028-2.927.369-.862.711-.82 1.012.11 0 .027 0 .04.014.068.068.397.109.848.123 1.382.013.109.013.574.013 1.395.014.574.028 1.039.055 1.395.041.506.123.971.246 1.368.288 1.012.78 1.778 1.505 2.298.205.137.41.232.616.287.273.096.602.151.971.151.725 0 1.368-.123 1.956-.356.93-.369 1.491-.793 1.682-1.258.124-.219.192-.452.219-.712.041-.123.151-.561.315-1.313.232-.985.287-2.599.15-4.815-.027-.465-.041-.67-.027-.575a21.85 21.85 0 01-.082-1.108c0-.04-.027-.177-.055-.437a12.22 12.22 0 01-.027-.848v-.096c.109-.534.26-.985.451-1.382.028-.054.096-.191.219-.396.082-.164.151-.288.192-.397.164-.41.232-.848.177-1.286z" fill="#fff"/><path d="M135.266 80.226c-.437-.492-.998-.739-1.669-.739-1.285 0-1.928.739-1.928 2.216 0 .67-.11 3.68-.342 9.001l-5.061 1.108c.027-1.464.095-2.9.232-4.336.397-1.354.588-2.53.588-3.53 0-1.983-.629-2.968-1.915-2.968-.752 0-1.354.424-1.792 1.273a5.51 5.51 0 00-.533 2.23 789.544 789.544 0 00-.069 8.11c-1.367.48-2.051 1.314-2.051 2.518 0 1.162.615 1.75 1.846 1.75h.137c-.041 2.887-.068 4.898-.082 6.047-.027 1.409.588 2.106 1.833 2.106.657 0 1.176-.246 1.573-.711.41-.465.616-1.026.602-1.683-.178-3.597-.301-5.991-.369-7.181 1.299-.37 2.927-.684 4.883-.944-.137 3.283-.219 5.5-.219 6.648 0 .876.178 1.655.52 2.339.438.876 1.067 1.313 1.888 1.313.82 0 1.436-.437 1.833-1.313.273-.656.424-1.436.424-2.366 0-.917-.137-1.956-.397-3.133a60.037 60.037 0 01-.082-4.076c.643-.287.971-.958.971-1.997 0-.917-.274-1.505-.821-1.779.11-2.147.301-4.856.575-8.125.055-.697-.137-1.3-.575-1.778z" fill="#FE451D"/><path d="M61.99 79.359c-.478-.56-1.176-.903-2.106-1.026-.643-.082-2.065-.041-4.281.11-2.216.15-4.022.396-5.43.71-1.41.302-2.614.657-3.612 1.054a32.624 32.624 0 00-3.434 1.587c-1.6.834-2.49 1.6-2.667 2.257a5.112 5.112 0 00-.137 1.983c.082.67.301 1.231.643 1.71.287.41.657.766 1.067 1.067a207.607 207.607 0 00-.492 7.346c-.137 2.68-.11 4.692.054 6.06.165 1.354.602 2.38 1.34 3.105.726.711 1.642 1.026 2.778.93 1.135-.096 1.956-.301 2.476-.657a3.816 3.816 0 001.203-1.313c.288-.52.575-2.982.848-7.373.192-3.146.356-5.143.466-5.978.027.014.04.041.068.082.11.15.164.315.178.52l.547 6.552c.096 1.136.205 1.984.3 2.572.179.944.466 1.901.876 2.886.397.985.985 1.683 1.751 2.08a3.85 3.85 0 002.394.424c.834-.11 1.464-.479 1.915-1.095.452-.615.82-1.518 1.122-2.722.219-.903.355-1.587.383-2.065-.164-5.308-.26-8.536-.26-9.671a87.307 87.307 0 00-.069-2.107c-.027-.26-.054-.56-.082-.903a15.782 15.782 0 01-.082-1.792c.52-.424.944-.78 1.245-1.08.506-.506.903-1.026 1.177-1.546.314-.63.465-1.258.465-1.915-.014-.711-.233-1.313-.643-1.792z" fill="#fff"/><path d="M57.64 84.776a7.266 7.266 0 002.34-1.053c.697-.48.971-1.15.807-1.998-.164-.848-.506-1.422-1.026-1.696-.534-.273-1.218-.383-2.066-.355-1.354.04-2.626.15-3.802.314-1.04.164-2.08.37-3.12.575a42.196 42.196 0 00-3.679 1.04c-1.245.41-2.312.875-3.2 1.38-.89.507-1.45 1.218-1.683 2.148-.246.917.11 1.519 1.067 1.806l.383.041c-.014.069-.014.137-.014.205-.014.15-.082.903-.219 2.23 0 .055-.014.123-.027.191a291.393 291.393 0 00-.534 5.609c-.246 2.53-.123 4.746.37 6.675.492 1.915 1.422 2.668 2.776 2.23 1.355-.438 1.998-1.696 1.916-3.776a148.245 148.245 0 01-.069-6.62c-.014-2.34.055-4.624.164-6.853v-.137c1.697-.793 3.338-1.272 4.911-1.436-.055.355-.055 1.135-.014 2.339a218.6 218.6 0 01.206 5.088c.054 2.175.136 4.295.218 6.32.096 2.038.342 3.433.74 4.186.382.738 1.203 1.08 2.461 1.026 1.245-.055 1.833-1.286 1.765-3.68a451.433 451.433 0 00-.274-7.264c-.11-2.448-.191-4.295-.287-5.553-.082-1.259-.123-2.244-.11-2.982z" fill="#FE451D"/><path d="M99.195 83.304c-.205-.752-.465-1.3-.806-1.642-.042-.04-.096-.095-.151-.137-.11-.095-.63-.328-1.518-.724-.89-.383-2.257-.684-4.118-.93a261.66 261.66 0 01-4.719-.589c-1.286-.191-2.189-.219-2.681-.096-.506.124-.93.301-1.286.534-.342.233-.739.739-1.19 1.505-.451.78-.027 2.079 1.231 3.94.807.382 1.354.71 1.642.998-.055 1.532-.082 3.365-.082 3.365h-.041c-.014.15-.028.287-.028.424a7.804 7.804 0 01-.082.985 17.71 17.71 0 00-.027.875c-.028 1.053-.096 2.08-.164 3.119-.069.862-.11 1.71-.137 2.585-.014.452-.028.89-.028 1.327-.027.451-.027.917-.04 1.368 0 .315-.014.629-.014.944v.711c0 .397.027.807.096 1.19.027.151.054.315.095.479.028.096.041.205.069.301.013.027.054.096.15.26.096.15.465.506 1.15 1.039.683.534 1.873.602 3.57.206l-.083-.041.096.041c.068-.028.137-.041.205-.069 1.136-.273 1.874-.93 2.243-1.983.028-.082.042-.151.055-.233a1.35 1.35 0 00.041-.328v-1.026l.137-.78v-.342s-.068-.396-.137-.602v-.273c.069-.164.055-.342.055-.52s-.014-.356.082-.533v-.233c-.096-.178-.082-.342-.082-.506 0-.301.014-.602.014-.903 0-.232.013-.465.027-.684.014-.246.014-.492.027-.738.014-.383.028-.766.028-1.163 0-.274.013-.534.013-.807.014-.274.028-.547.028-.807.014-.26.027-.698.014-1.314 0-.615.068-1.928.218-3.912 1.163.315 2.408.424 3.707.356 1.56-.328 2.394-1.491 2.517-3.46-.027-.575-.04-.958-.096-1.177z" fill="#fff"/><path d="M97.472 85c.11-.492.027-.984-.233-1.463-.273-.493-.479-.807-.656-.93-.178-.124-.452-.247-.821-.383a22.502 22.502 0 00-1.286-.37c-.479-.11-.985-.219-1.49-.314a31.552 31.552 0 00-2.066-.288 77.968 77.968 0 01-2.435-.314 19.124 19.124 0 00-1.765-.123c-.588-.014-1.04.027-1.368.123-.15.04-.273.095-.396.191a1.486 1.486 0 00-.452.63 4.642 4.642 0 00-.205.861c-.11 1.053.287 1.778 1.204 2.161.41.11.807.178 1.162.206.397.027.807.068 1.204.11l-.629 8.89-.383 7.606.041.547c.014.082.055.205.123.424.082.205.246.41.506.629.26.219.506.37.78.465.273.096.479.151.63.165.15.027.355.013.628-.028a.883.883 0 00.616-.328c.15-.164.233-.424.273-.739.042-.328.069-.656.096-.985.014-.328.028-.779.055-1.326.027-.548.041-1.204.082-1.97 0-.11.014-.22.014-.329.027-1.272.068-2.544.11-3.802.04-.917.081-1.82.095-2.75.027-.697.041-1.409.055-2.106.013-.069.013-.137.013-.206.014-.328.028-.67.028-.984l.04-.903c.028-.301.028-.602.028-.93.014-.329.027-.657.082-1.013.041-.013.123 0 .26.014.191.027.492.069.903.123.41.055.903.11 1.463.15.561.055 1.095.11 1.587.178a3.49 3.49 0 001.368-.054c.37-.055.63-.342.739-.835z" fill="#FE451D"/><path d="M116.762 81.375a22.72 22.72 0 00-.123-1.368 4.07 4.07 0 00-.452-1.286c-.246-.41-.752-.766-1.505-1.053a4.94 4.94 0 00-1.573-.315c-.041 0-.068 0-.095-.014a4.34 4.34 0 00-.725.028c-1.724.26-3.242 1.696-4.528 4.322-1.477 2.982-2.681 5.65-3.611 7.975a4.808 4.808 0 00-1.902.506 4.887 4.887 0 00-1.628 1.231l-.095.698c-.643 1.942-.561 3.255.26 3.94.301.164.533.273.725.314.191.028.205.123.068.233-.137.11-.438.766-.916 1.983-.466 1.218-.726 2.38-.74 3.488.014.452.179 1.136.521 2.066.342.93 1.285 1.422 2.818 1.504.478.137 1.094.096 1.819-.109.738-.205 1.395-.657 1.997-1.368.588-.711 1.081-1.655 1.45-2.831.164-.548.315-.972.451-1.3.055-.137.11-.26.164-.397.11.356.192.794.274 1.273.055.328.137 1.094.287 2.298.137 1.176.534 2.12 1.136 2.804.615.684 1.573 1.08 2.886 1.217 1.299.123 2.353-.26 3.146-1.204.629-.738 1.026-1.901 1.218-3.529v-.027a7343.116 7343.116 0 00-1.327-21.08z" fill="#fff"/><path d="M113.807 79.979c-.492-.246-.944-.342-1.313-.315-.369.028-.684.15-.971.342-.287.205-.479.383-.602.547-.027.069-.068.137-.109.206a126.089 126.089 0 00-5.294 11.025c-.438 0-.821.027-1.136.095-.506.096-.93.26-1.299.507-.41.273-.698.642-.848 1.121-.178.493-.151.917.082 1.3.137.205.315.37.547.506.219.123.479.205.752.233.11.013.233.027.37.027-.52 1.354-.999 2.695-1.464 4.049-.15.451-.273.807-.328 1.08-.096.397-.123.78-.082 1.108.041.383.191.739.437 1.054.247.342.548.561.931.67.369.109.766.082 1.176-.082a2.67 2.67 0 00.999-.684c.232-.26.437-.588.615-.985.11-.232.246-.588.424-1.067.465-1.34 1.094-3.16 1.888-5.471.096 0 .191-.014.301-.014.643-.014 1.477-.041 2.489-.055a61.36 61.36 0 00.342 6.292c.219 1.929.684 3.01 1.409 3.242.725.233 1.218.288 1.519.165.301-.124.574-.37.848-.739.273-.383.41-.739.424-1.094.013-.356.027-.794.027-1.327 0-.534-.109-1.751-.287-3.666a188.787 188.787 0 01-.52-6.484c-.164-2.722-.273-5.089-.315-7.086-.041-1.997-.082-3.187-.136-3.556-.069-.41-.356-.712-.876-.944zm-2.448 11.682c-.506 0-1.026.027-1.546.04.438-1.271.93-2.653 1.436-4.144.055 1.368.096 2.736.11 4.104z" fill="#FE451D"/><path d="M156.774 81.827a2.306 2.306 0 00-.096-.287c-.451-1.382-1.258-2.23-2.394-2.517-.561-.15-1.244.055-2.079.588-.821.52-1.464 1.163-1.929 1.929a26.49 26.49 0 00-1.34 2.626c-.014.028-.246.37-.711 1.026a86.142 86.142 0 01-.028-1.928c0-1.026-.082-1.806-.232-2.34-.37-1.258-1.149-1.805-2.312-1.614-.547.014-1.081.041-1.587.096-.985.082-1.628.233-1.915.438-.424.11-.739.3-.944.56-.191.26-.355.493-.492.698a14.077 14.077 0 00-.67 3.447 170.258 170.258 0 00-.178 3.776 82.732 82.732 0 01-.63 7.824l-.273 1.135c-.315 1.081-.246 2.805.219 5.144l.191.506c.274.684.753 1.368 1.437 2.038.082.055.164.11.259.151.507.259 1.3.396 2.353.396.192 0 .37-.013.547-.054.137-.028.807-.219 2.025-.602 1.204-.397 2.284-1.314 3.242-2.75.027-.055.068-.096.096-.137-.042.315.136.876.533 1.697.52 1.067 1.614 1.655 3.283 1.764 1.669.11 2.736-.178 3.201-.834.273-.37.397-.903.397-1.587 0-.287-.014-.684-.042-1.204a37.626 37.626 0 01-.164-3.912c.014-1.368.028-2.722.069-4.09.041-1.368.095-2.736.191-4.104.082-1.3.178-2.612.274-3.925.109-1.341 0-2.654-.301-3.954z" fill="#fff"/><path d="M155.502 84.577c.068-.916 0-1.71-.205-2.38-.301-.944-.862-1.423-1.683-1.423-1.094 0-2.052.958-2.845 2.873-.999 2.476-1.984 4.965-2.968 7.455-1.751 4.186-2.846 6.47-3.297 6.88v-.246c-.014-1.627.26-4.049.834-7.25.561-3.187.848-5.567.848-7.154 0-.656-.191-1.23-.574-1.696-.383-.465-.889-.684-1.532-.684-1.094 0-1.819.616-2.148 1.833-.054 1.737-.287 4.542-.711 8.454-.397 3.597-.588 6.402-.588 8.385 0 1.491.219 2.64.67 3.433.41.698.903.985 1.464.862 1.6-.328 3.091-1.546 4.486-3.666l.766-1.258c.206-.383.411-.78.616-1.19.903-1.806 1.929-4.555 3.091-8.235.137-.328.233-.574.288-.739a2.16 2.16 0 010 .41c-.096 2.23-.178 4.46-.288 6.69-.109 2.667-.3 4.897-.574 6.689.766 1.121 1.505 1.682 2.216 1.682 1.012 0 1.587-.752 1.751-2.27a53.512 53.512 0 01-.274-5.527c0-2.585.219-6.566.657-11.928z" fill="#FE451D"/><path d="M81.403 81.827a2.148 2.148 0 00-.096-.287c-.45-1.382-1.258-2.23-2.393-2.517-.561-.15-1.245.055-2.08.588-.82.52-1.463 1.163-1.928 1.929a26.323 26.323 0 00-1.34 2.626c-.014.028-.247.37-.712 1.026a88.036 88.036 0 01-.027-1.928c0-1.026-.082-1.806-.233-2.34-.37-1.258-1.149-1.805-2.312-1.614-.547.014-1.08.041-1.587.096-.984.082-1.627.233-1.914.438-.425.11-.74.3-.944.56-.192.26-.356.493-.493.698a14.115 14.115 0 00-.67 3.447 170.312 170.312 0 00-.178 3.776 82.998 82.998 0 01-.63 7.824l-.273 1.135c-.314 1.081-.246 2.805.22 5.144l.19.506c.274.684.753 1.368 1.437 2.038.082.055.164.11.26.151.506.259 1.3.396 2.353.396a2.4 2.4 0 00.547-.054c.137-.028.807-.219 2.024-.602 1.204-.397 2.285-1.314 3.242-2.75.028-.055.069-.096.096-.137-.041.315.137.876.533 1.697.52 1.067 1.614 1.655 3.283 1.764 1.67.11 2.736-.178 3.201-.834.274-.37.397-.903.397-1.587 0-.287-.014-.684-.041-1.204a37.434 37.434 0 01-.164-3.912c.013-1.368.027-2.722.068-4.09.041-1.368.096-2.736.192-4.104.082-1.3.178-2.612.273-3.925.11-1.341 0-2.654-.3-3.954z" fill="#fff"/><path d="M80.13 84.577c.07-.916 0-1.71-.204-2.38-.301-.944-.862-1.423-1.683-1.423-1.094 0-2.052.958-2.845 2.873-.999 2.476-1.984 4.965-2.968 7.455-1.751 4.186-2.846 6.47-3.297 6.88v-.246c-.014-1.627.26-4.049.834-7.25.561-3.187.848-5.567.848-7.154 0-.656-.191-1.23-.574-1.696-.383-.465-.89-.684-1.532-.684-1.094 0-1.82.616-2.148 1.833-.055 1.737-.287 4.542-.711 8.454-.397 3.597-.588 6.402-.588 8.385 0 1.491.219 2.64.67 3.433.41.698.903.985 1.464.862 1.6-.328 3.091-1.546 4.486-3.666l.766-1.258c.206-.383.41-.78.616-1.19.903-1.806 1.929-4.555 3.091-8.235.137-.328.233-.574.288-.739a2.16 2.16 0 010 .41c-.096 2.23-.178 4.46-.288 6.69-.11 2.667-.3 4.897-.574 6.689.766 1.121 1.504 1.682 2.216 1.682 1.012 0 1.587-.752 1.75-2.27a53.574 53.574 0 01-.273-5.527c0-2.585.219-6.566.657-11.928z" fill="#FE451D"/><path d="M160.231 65.108a2.839 2.839 0 00-.574-1.15 3.647 3.647 0 00-.971-.847c-.643-.397-1.478-.657-2.476-.766a10.485 10.485 0 00-2.175-.028 1.389 1.389 0 01.013-.533.913.913 0 01.137-.383c.041-.069.137-.15.274-.246a2.06 2.06 0 01.287-.192 45.87 45.87 0 001.382-.123c.793-.11 1.491-.315 2.079-.615.698-.37 1.19-.862 1.477-1.464a2.84 2.84 0 00.274-1.34c0-.438-.082-.89-.233-1.368-.232-.78-.547-1.3-.944-1.56-.383-.274-.656-.424-.82-.479a3.773 3.773 0 00-.712-.082c-.314 0-.861.041-1.641.137-.794.096-1.286.11-1.477.041v-.219c0-.314.041-.574.136-.793a2.17 2.17 0 01.561-.096h.643a6.63 6.63 0 001.929-.274 4.169 4.169 0 001.682-.916c.424-.383.739-.848.944-1.395a3.21 3.21 0 00.233-1.6 3.28 3.28 0 00-.575-1.56 3.122 3.122 0 00-.807-.834 44.04 44.04 0 00-3.625.123c-2.12.191-3.72.314-4.787.383-.602.04-.972.068-1.149.082a10.76 10.76 0 00-1.136.164c-.711.137-1.327.37-1.805.698-1.04.984-1.177 2.079-.424 3.282.027.329 0 1.423-.083 3.283-.068 1.86-.123 3.53-.164 5.007-.041 1.477-.054 2.325-.041 2.558.014.219.041.588.069 1.08.027.493.068.985.123 1.45.055.48.109.89.164 1.245.055.356.109.67.15.93l.233.807c.068.233.178.466.301.67.191.329.465.603.834.808.37.219.766.397 1.177.52.424.109 1.203.191 2.352.246 1.136.04 2.244 0 3.324-.11a16.001 16.001 0 002.982-.574 5.252 5.252 0 002.353-1.382c.192-.355.342-.738.452-1.149.136-.506.15-.985.054-1.436z" fill="#fff"/><path d="M158.603 49.117c-.068-.37-.3-.67-.684-.917a3.049 3.049 0 00-.601-.273c-5.089.232-7.879.383-8.345.438-.478.068-.834.177-1.066.355-.219.178-.37.383-.438.616a1.79 1.79 0 00.109 1.19c.055.11.178.219.356.328-.274 5.554-.11 11.094.52 16.593.123.177.287.314.492.437.205.123.452.22.739.288.219.04.479.082.793.095.465.028 1.094-.013 1.874-.11.78-.095 1.395-.15 1.847-.19.451-.042.985-.083 1.587-.137.601-.069 1.053-.178 1.354-.342.287-.165.506-.356.656-.575.137-.205.233-.451.301-.725.069-.328-.013-.643-.219-.957-.191-.288-.396-.465-.629-.561a3.104 3.104 0 00-.807-.164c-.314-.028-.834-.028-1.587-.028-.738 0-1.395.028-1.942.055-.547.041-.916.055-1.108.027a45.035 45.035 0 01-.233-5.252c.274-.15.616-.233 1.013-.247.123 0 .588.028 1.395.083a8.044 8.044 0 001.983-.165c.219-.04.411-.095.561-.164a1.166 1.166 0 00.698-.903c.027-.15.041-.369.027-.642a3.31 3.31 0 00-.041-.589 1.423 1.423 0 00-.246-.52c-.137-.164-.342-.273-.602-.328a3.094 3.094 0 00-.752-.04c-.917.013-2.189.026-3.789.054a28.792 28.792 0 01-.028-4.473c.657-.028 1.368-.069 2.121-.11 1.381-.068 2.257-.136 2.612-.177.37-.055.698-.15.985-.288a1.97 1.97 0 00.821-.711c.273-.3.342-.63.273-.971z" fill="#FE451D"/><path d="M175.825 65.108a2.851 2.851 0 00-.574-1.15 3.652 3.652 0 00-.972-.847c-.643-.397-1.477-.657-2.475-.766a10.485 10.485 0 00-2.175-.028 1.389 1.389 0 01.013-.533.913.913 0 01.137-.383c.041-.069.137-.15.274-.246a2.06 2.06 0 01.287-.192c.383-.027.848-.068 1.381-.123.794-.11 1.491-.315 2.08-.615.697-.37 1.19-.862 1.477-1.464.191-.397.287-.835.274-1.34 0-.438-.083-.89-.233-1.368-.233-.78-.547-1.3-.944-1.56-.383-.274-.656-.424-.821-.479a3.76 3.76 0 00-.711-.082c-.315 0-.862.041-1.641.137-.794.096-1.286.11-1.478.041v-.219c0-.314.041-.574.137-.793a2.17 2.17 0 01.561-.096h.643a6.64 6.64 0 001.929-.274 4.169 4.169 0 001.682-.916c.424-.383.739-.848.944-1.395a3.198 3.198 0 00.232-1.6 3.278 3.278 0 00-.574-1.56 3.122 3.122 0 00-.807-.834 44.04 44.04 0 00-3.625.123c-2.12.191-3.721.314-4.788.383-.602.04-.971.068-1.149.082a10.7 10.7 0 00-1.135.164c-.711.137-1.327.37-1.806.698-1.039.984-1.176 2.079-.424 3.282.028.329 0 1.423-.082 3.283-.068 1.86-.123 3.53-.164 5.007-.041 1.477-.055 2.325-.041 2.558.014.219.041.588.068 1.08a30.599 30.599 0 00.288 2.695c.054.356.109.67.15.93l.233.807c.068.233.178.466.301.67.191.329.465.603.834.808a5.3 5.3 0 001.176.52c.424.109 1.204.191 2.353.246 1.136.04 2.244 0 3.324-.11a16.001 16.001 0 002.982-.574 5.252 5.252 0 002.353-1.382 5.24 5.24 0 00.451-1.149c.137-.506.151-.985.055-1.436z" fill="#fff"/><path d="M174.198 49.117c-.069-.37-.301-.67-.684-.917a3.085 3.085 0 00-.602-.273c-5.089.232-7.879.383-8.344.438-.479.068-.835.177-1.067.355-.219.178-.37.383-.438.616a1.813 1.813 0 00.109 1.19c.055.11.178.219.356.328a101.867 101.867 0 00.52 16.593c.123.177.287.314.492.437.206.123.452.22.739.288.219.04.479.082.793.095.465.028 1.095-.013 1.874-.11.78-.095 1.396-.15 1.847-.19.451-.042.985-.083 1.587-.137.602-.069 1.053-.178 1.354-.342a1.97 1.97 0 00.657-.575c.136-.205.232-.451.301-.725.068-.328-.014-.643-.219-.957-.192-.288-.397-.465-.63-.561a3.095 3.095 0 00-.807-.164c-.314-.028-.834-.028-1.586-.028-.739 0-1.396.028-1.943.055-.547.041-.916.055-1.108.027a44.815 44.815 0 01-.232-5.252c.273-.15.615-.233 1.012-.247.123 0 .588.028 1.395.083a8.056 8.056 0 001.984-.165c.219-.04.41-.095.56-.164a1.166 1.166 0 00.698-.903c.027-.15.041-.369.027-.642a3.31 3.31 0 00-.041-.589 1.392 1.392 0 00-.246-.52c-.137-.164-.342-.273-.602-.328a3.09 3.09 0 00-.752-.04c-.917.013-2.189.026-3.789.054a28.669 28.669 0 01-.027-4.473c.656-.028 1.367-.069 2.12-.11 1.381-.068 2.257-.136 2.612-.177.37-.055.698-.15.985-.288a1.97 1.97 0 00.821-.711c.274-.3.342-.63.274-.971z" fill="#FE451D"/><path d="M96.45 47.25c-.575-1.573-1.587-2.708-3.037-3.42-1.874-.902-3.762-1.066-5.69-.505a36.733 36.733 0 00-5.828 2.27c-1.272.821-2.024 2.462-2.216 4.938-.014.15.15.698.479 1.614.342.917.478 1.998.424 3.256a170.146 170.146 0 00-.11 4.391 152.29 152.29 0 00.028 5.526c.04 1.081.04 2.162.027 3.242a4.367 4.367 0 001.026 2.914c1.012 1.231 2.353 1.764 4.008 1.614 2.134-.233 3.474-1.423 4.035-3.584a4.93 4.93 0 00.069-2.052 19.116 19.116 0 01-.233-5.964c.014-.205.123-.328.301-.37 1.942-.67 3.46-1.832 4.541-3.5a10.129 10.129 0 002.476-4.542c.028-.123.069-.26.096-.383.383-1.833.246-3.653-.397-5.444z" fill="#fff"/><path d="M92.264 56.32a7.92 7.92 0 001.997-3.776c.096-.45.164-.93.178-1.408.137-1.792-.534-3.201-2.025-4.24-1.395-.986-2.913-1.314-4.555-1a7.921 7.921 0 00-2.462.944 8.027 8.027 0 00-2.613 2.422c-.506.71-.615 1.408-.342 2.092.096.26.26.52.465.766l-.068 16.716c.356.67.862 1.15 1.505 1.45.738.328 1.354.192 1.833-.383.3-.37.465-.78.478-1.245.11-2.9.165-5.827.137-8.754.26-.11.506-.205.766-.315a13.81 13.81 0 004.706-3.27zm-2.052-4.186c-.451 1.026-1.56 2.107-3.31 3.256l.027-.753c-.014-1.149 0-1.942.014-2.352 0-.164.013-.315.027-.465.027-.507.082-.93.164-1.273.356-.67 1.013-.957 1.984-.848a2.18 2.18 0 011.108.452c.164.342.232.684.219 1.026 0 .287-.082.615-.233.957z" fill="#FE451D"/><path d="M133.936 47.291a2.315 2.315 0 00-.684-.027c-.821.082-1.464.232-1.929.451-.588.219-1.08.698-1.477 1.41a6.417 6.417 0 00-.219.533c-.506 1.764-.752 1.217-.752-1.67-.082-.67-.137-1.08-.137-1.23a3.492 3.492 0 00-.547-1.628c-.328-.52-.793-.903-1.395-1.163a3.538 3.538 0 00-1.806-.26c-.739.082-1.423.383-2.079.917-.657.52-1.163 1.08-1.505 1.669a23.873 23.873 0 00-1.204 2.434c-.451 1.026-.697 2.9-.725 5.623-.041 2.722-.246 6.141-.615 10.272a16.319 16.319 0 000 2.832c.082.971.178 1.723.273 2.257.096.52.288.971.602 1.354.301.383.739.725 1.3 1.04.602.328 1.327.478 2.175.465.506-.014 1.258-.11 2.284-.287a72.023 72.023 0 018.317-1.013v.014a53.213 53.213 0 015.089-.082c.697.014 1.285 0 1.791-.041.507-.055 1.067-.246 1.683-.575.629-.328 1.012-1.176 1.163-2.544.164-1.368-.178-2.394-1.026-3.091l1.901-11.463a43.53 43.53 0 00.246-2.394c.028-.616.041-1.177.014-1.683-.041-.52-.082-.97-.137-1.354a5.3 5.3 0 00-.314-1.217 2.592 2.592 0 00-.835-1.095 3.429 3.429 0 00-1.162-.615 5.698 5.698 0 00-1.177-.178c-.41-.027-.875.041-1.381.164-.507.137-.972.506-1.396 1.122-.424.615-.738 1.888-.93 3.816-.205 1.929-.383 2.503-.547 1.751-.219-1.71-.602-2.831-1.122-3.392-.054-.069-.123-.123-.164-.178a2.51 2.51 0 00-.957-.725c-.233-.068-.424-.15-.616-.219z" fill="#fff"/><path d="M131.939 49.59a.564.564 0 00-.191.163c-.383.329-.698.903-.958 1.738-.356 1.696-.698 4.2-1.04 7.537l-.492 7.14-.506.041c-.616.069-1.218.137-1.806.22v.013a53.29 53.29 0 00-1.751.3c.028-1.477.137-3.104.315-4.869.123-1.204.342-2.996.657-5.376l.725-5.39c.273-1.094.355-2.202.259-3.323-.095-1.163-.766-1.806-1.997-1.943-1.244-.137-2.038.602-2.393 2.203l-.397 2.448c-.014.137-.028.26-.041.397-.096.93-.205 2.653-.37 5.184-.15 2.517-.232 4.692-.246 6.539-.027 1.833 0 3.173.069 4.008.041.547.068.93.082 1.162-.014.192-.014.37-.014.52v.014c-.014.314 0 .547.027.711.069.383.247.711.52.985.26.246.575.424.958.547.342.11.711.15 1.121.137a9.946 9.946 0 001.122-.123 21.77 21.77 0 001.094-.233 15.66 15.66 0 011.163-.178c.465-.054.985-.109 1.546-.164 1.805-.15 3.584-.26 5.362-.342v.014a139.97 139.97 0 014.131-.096c.424 0 .752-.027.958-.055.355-.04.656-.136.889-.273.287-.164.506-.383.684-.67.177-.288.26-.602.273-.93a1.666 1.666 0 00-.246-.93 2.003 2.003 0 00-.657-.698 2.291 2.291 0 00-.56-.233L142.8 50.37c.055-.328.082-.56.11-.698 0-.178.013-.328.013-.465v-.082c-.013-.055-.013-.11-.013-.15a2.347 2.347 0 00-.684-1.34 1.442 1.442 0 00-1.368-.398c-.547.11-.917.288-1.136.561-.218.274-.451.657-.684 1.15-.109.287-.218.82-.355 1.586-.137.766-.424 2.709-.862 5.855-.438 3.132-.766 5.622-.971 7.455l-.178 1.56c-.055.177-.068.3-.055.341-.287.014-.561.014-.82.028v-.014c-1.149.04-2.162.082-3.037.123 0-.041 0-.082.014-.11.492-4.787 1.203-9.192 2.12-13.2.096-.478.15-.848.164-1.108v-.355a1.617 1.617 0 00-.233-.712c-.164-.287-.424-.52-.752-.697a2.293 2.293 0 00-1.053-.315c-.069-.014-.137-.014-.178-.014h-.11c-.273.041-.547.11-.793.22z" fill="#FE451D"/><path d="M52.302 55.276s8.043-4.938 4.801-8.837c-2.161-2.599-8.18 2.504-8.18 2.504-.684-.903-1.56-2.12-2.23-3.023-1.313-1.82-3.036-2.285-5.17-1.368-1.04.424-1.587 1.217-1.67 2.339-.122 1.628.014 2.147 1.314 4.268l1.669 2.818c-2.148 2.53-3.639 5.198-4.405 7.66-.766 2.476-1.34 4.2-1.395 5.403-.082 1.641-.137 3.283 1.176 4.172 1.081.739 1.573.752 2.873.752 1.067 0 2.736-1.108 3.324-3.146.602-2.065 1.901-6.292 2.216-6.607.328.315 1.587 5.144 2.667 7.305.288.533 1.41 2.134 3.844 1.682 1.053-.191 1.683-.383 2.367-.97 1.203-1.273 1.094-3.448.738-5.308-.738-3.817-2.134-6.197-3.94-9.644z" fill="#fff"/><path d="M40.25 69.748c.315.055.643.014.972-.136.314-.151.56-.343.766-.602a3.02 3.02 0 00.424-.835 6.05 6.05 0 00.246-.862c.465-1.997.916-3.583 1.382-4.787.684-1.724 1.518-3.174 2.53-4.377.22-.26.383-.48.506-.602.014-.014.014-.028.028-.028.506 1.026 1.08 2.545 1.737 4.57a113.607 113.607 0 011.231 4.007c.178.56.328 1.04.465 1.423.11.314.219.574.328.766.164.26.342.478.548.615.383.301.875.37 1.463.26.575-.082 1.012-.342 1.3-.725.287-.37.41-.82.383-1.34-.014-.37-.123-.849-.301-1.423-.52-1.628-.835-2.572-.917-2.845-.67-2.189-2.667-6.361-3.474-7.961 0 0 .178-.26.438-.48 4.733-4.144 6.264-4.718 5.13-6.264-1.19-1.614-4.337 1.3-6.854 3.42a3.74 3.74 0 00-.315.3c-.506-.82-2.01-3.46-3.023-4.732-.191-.26-.355-.465-.506-.589-.219-.191-.438-.328-.684-.396-.41-.123-.848-.055-1.285.178-.425.232-.712.547-.835.93-.11.383-.068.793.123 1.258.123.288.479.917 1.067 1.943a63.481 63.481 0 012.025 3.967c-.028.013-.083.068-.178.15a22.228 22.228 0 00-3.338 4.596 24.98 24.98 0 00-1.805 4.377v.028c-.657 1.641-.903 3.16-.74 4.5.028.424.151.766.33 1.053.232.342.505.548.834.643z" fill="#FE451D"/><path d="M78.851 51.999a10.336 10.336 0 00-.205-1.642l-.451-1.518c.123-.15.191-.314.177-.492-.177-2.75-1.682-4.391-4.486-4.911-2.408-.41-4.679-.041-6.813 1.108-2.23 1.122-4.007 2.804-5.334 5.075a22.861 22.861 0 00-2.969 8.754c-.355 2.887-.109 5.8.74 8.741.86 2.941 2.42 4.692 4.664 5.28 2.243.588 4.267.602 6.046.055 1.792-.534 3.625-2.421 5.512-5.663.835-1.655 1.491-3.242 1.943-4.76a29.577 29.577 0 001.176-10.027zm-11.08 6.62c.397-2.886 1.122-4.828 2.161-5.84 1.04-1.013 1.396-.206 1.054 2.42-.069 1.04-.383 2.285-.958 3.721-1.901 2.682-2.654 2.586-2.257-.3zm8.864-12.98a.506.506 0 01.082.286l-.082-.287z" fill="#fff"/><path d="M76.676 49.823l-.958-2.722c.465-.164.739-.342.794-.533.136-.424.054-.739-.274-.917-2.08-1.135-4.35-1.258-6.812-.383a7.266 7.266 0 00-2.298 1.6c-1.614 1.67-2.927 3.612-3.953 5.828-.137.287-.26.588-.383.89-.041.068-.069.136-.11.204C61.67 55.993 61 58.277 60.7 60.602c-.301 2.326-.11 4.391.547 6.183.657 1.779 1.888 3.078 3.693 3.885 1.792.807 3.68.315 5.636-1.477 1.983-1.792 3.447-3.79 4.39-5.964.07-.164.151-.342.233-.52.083-.178.178-.37.26-.575.944-2.175 1.491-4.377 1.656-6.58.164-2.188.013-4.103-.438-5.73zm-6.853-.684c1.682-.97 2.913-.478 3.68 1.45.765 1.916.752 4.282-.042 7.086-.26.67-.52 1.34-.766 2.011-.178.465-.355.916-.52 1.34a19.925 19.925 0 01-1.682 2.928c-1.012 1.395-2.27 1.97-3.79 1.723-1.517-.246-2.188-1.901-2.01-4.979.164-2.9.67-5.403 1.505-7.523.903-1.833 2.12-3.174 3.625-4.035z" fill="#FE451D"/><path d="M117.973 51.999a10.36 10.36 0 00-.205-1.642l-.451-1.518c.123-.15.191-.314.177-.492-.177-2.75-1.682-4.391-4.486-4.911-2.408-.41-4.678-.041-6.812 1.108-2.23 1.122-4.008 2.804-5.335 5.075a22.857 22.857 0 00-2.969 8.754c-.355 2.887-.109 5.8.74 8.741.86 2.941 2.42 4.692 4.664 5.28 2.243.588 4.267.602 6.046.055 1.792-.534 3.625-2.421 5.512-5.663.835-1.655 1.491-3.242 1.943-4.76a29.577 29.577 0 001.176-10.027zm-11.08 6.62c.397-2.886 1.122-4.828 2.162-5.84 1.039-1.013 1.395-.206 1.053 2.42-.069 1.04-.383 2.285-.958 3.721-1.901 2.682-2.653 2.586-2.257-.3zm8.864-12.98a.504.504 0 01.082.286l-.082-.287z" fill="#fff"/><path d="M115.798 49.823l-.957-2.722c.465-.164.738-.342.793-.533.137-.424.055-.739-.273-.917-2.08-1.135-4.35-1.258-6.812-.383a7.26 7.26 0 00-2.299 1.6c-1.614 1.67-2.927 3.612-3.953 5.828-.137.287-.26.588-.383.89-.041.068-.068.136-.109.204-1.012 2.203-1.683 4.487-1.984 6.812-.3 2.326-.11 4.391.547 6.183.657 1.779 1.888 3.078 3.694 3.885 1.792.807 3.679.315 5.636-1.477 1.983-1.792 3.447-3.79 4.39-5.964.069-.164.151-.342.233-.52.082-.178.178-.37.26-.575.944-2.175 1.491-4.377 1.655-6.58.164-2.188.014-4.103-.438-5.73zm-6.853-.684c1.683-.97 2.914-.478 3.68 1.45.766 1.916.752 4.282-.041 7.086-.26.67-.52 1.34-.766 2.011-.178.465-.356.916-.52 1.34a19.809 19.809 0 01-1.683 2.928c-1.012 1.395-2.27 1.97-3.789 1.723-1.518-.246-2.188-1.901-2.01-4.979.164-2.9.67-5.403 1.504-7.523.903-1.833 2.121-3.174 3.625-4.035z" fill="#FE451D"/></svg>