<svg width="213" height="164" fill="none" xmlns="http://www.w3.org/2000/svg"><path fill-rule="evenodd" clip-rule="evenodd" d="M13.821 14.302l.022-.023C18.54 9.301 25.046 7.184 30.016 5.81 51.792-.28 74.804-1.705 97.103 2.117l.054.009.053.01c2.997.57 6.014 1.224 8.944 1.86l1.162.251c3.319.718 6.534 1.4 9.697 1.953 13.525 2.25 28.4 3.44 41.685 2.343h.011c.936-.076 1.921-.165 2.946-.257 4.284-.385 9.243-.83 14.029-.635 6.07.248 12.641 1.521 18.492 5.616 4.946 3.44 7.827 8.308 9.62 13.131 1.771 4.764 2.626 9.888 3.259 14.259.444 2.906.969 5.922 1.507 9.014 1.629 9.368 3.38 19.434 3.38 29.252v36.674c.753 12.512-2.603 27.449-15.067 36.016-12.443 8.583-27.642 10.943-42.216 11.36-7.338.21-14.729-.072-21.741-.395l-3.091-.145c-5.932-.28-11.519-.544-16.757-.544-8.26 0-16.496.261-24.84.524-1.491.048-2.985.095-4.484.141-9.835.301-19.81.542-29.846.275-16.375-.424-36.575-3.79-46.988-22.088l-.006-.011-.006-.011c-3.603-6.392-4.897-12.754-5.452-18.812-.274-2.994-.373-5.987-.463-8.831l-.01-.299c-.087-2.784-.17-5.441-.384-8.128-2.004-23.935 1.448-45.974 4.995-68.622l.298-1.907.02-.126.025-.125c.08-.395.16-.805.242-1.228.714-3.65 1.61-8.224 3.549-12.26 1.062-2.384 2.517-4.364 4.08-6.056l.021-.023zm1.345 8.598c-1.61 3.31-2.364 7.134-3.113 10.93l-.24 1.217-.26 1.655C7.98 59.535 4.626 80.948 6.571 104.159c.226 2.84.314 5.631.4 8.382.274 8.716.535 17.034 5.156 25.232 8.7 15.289 25.786 18.64 41.928 19.058 11.344.302 22.652-.056 33.966-.414 8.341-.264 16.686-.528 25.049-.528 5.392 0 11.142.272 17.065.552 21.83 1.032 46.019 2.176 63.333-9.767 10.063-6.911 13.208-19.372 12.474-30.891v-36.86c0-9.252-1.618-18.561-3.223-27.8-.557-3.205-1.113-6.401-1.599-9.584-1.258-8.69-3.144-18.325-10.377-23.351-8.201-5.744-18.775-4.799-28.369-3.94-1.075.096-2.137.19-3.182.275M15.166 22.9c.734-1.675 1.782-3.141 3.04-4.503 3.46-3.665 8.49-5.445 13.418-6.806 20.964-5.864 43.081-7.226 64.465-3.56 2.916.554 5.853 1.191 8.792 1.828 3.717.806 7.437 1.612 11.124 2.255" fill="#fff"/><path d="M15.166 22.9c.733-1.675 1.782-3.141 3.04-4.503 3.459-3.665 8.49-5.445 13.417-6.806 20.964-5.864 43.081-7.226 64.465-3.56 6.604 1.256 13.312 2.931 19.916 4.083 13.837 2.304 29.245 3.56 43.187 2.409 10.377-.838 22.432-2.723 31.551 3.665 7.233 5.026 9.12 14.66 10.377 23.351 1.887 12.357 4.822 24.923 4.822 37.384v36.86c.734 11.519-2.411 23.98-12.474 30.891-22.012 15.184-55.136 9.215-80.398 9.215-19.706 0-39.308 1.466-59.015.942-16.142-.418-33.228-3.769-41.928-19.058-6.08-10.786-4.612-21.781-5.556-33.614-1.991-23.77 1.573-45.656 5.241-69.112.839-4.188 1.573-8.482 3.355-12.147z" fill="#FFC525"/><path d="M68.168 90.643a2.18 2.18 0 00-.124-.451 6.01 6.01 0 00-.369-.725l-.328-.534a6.868 6.868 0 00-1.313-1.573 5.855 5.855 0 00-1.067-.766 3.864 3.864 0 00-.958-.369 17.656 17.656 0 00-2.407-.383 12.869 12.869 0 00-2.9.082 8.13 8.13 0 00-2.709.848 8.37 8.37 0 00-2.052 1.532c-.629.63-1.19 1.3-1.71 2.011a9.604 9.604 0 00-1.217 2.353 29.416 29.416 0 00-.834 3.488 6.044 6.044 0 00-.082 1.573c.027.328.04.643.054.971.028.739.096 1.478.206 2.216.054.356.123.725.218 1.081a17.477 17.477 0 001.259 3.529c.41.834.889 1.601 1.463 2.325a7.709 7.709 0 003.037 2.34 9.49 9.49 0 003.201.766 9.123 9.123 0 002.024-.069 10.158 10.158 0 002.216-.602c.165-.068.342-.15.507-.219.328-.15.82-.437 1.45-.875a9.121 9.121 0 001.819-1.696l.04-.137a3.51 3.51 0 00.52-1.874c0-.123-.013-.424-.027-.903-.027-.479-.205-.998-.533-1.573a2.66 2.66 0 00-1.436-1.204c-.63-.232-1.163-.355-1.615-.355-.588.013-1.121.137-1.559.383a7.74 7.74 0 01-1.395.574c-.37.11-.711.055-1.026-.164a2.326 2.326 0 01-.944-1.505 3.81 3.81 0 01.356-2.571c.11-.22.26-.424.438-.588a2.94 2.94 0 011.313-.725 5.24 5.24 0 01.944-.178 39.45 39.45 0 011.326-.137c.205-.014.41-.041.616-.082.26-.027.52-.096.766-.192.273-.109.533-.26.766-.465a.198.198 0 00.096-.027c1.108-.602 1.764-1.6 1.956-2.982 0-.014 0-.027.014-.055a6.336 6.336 0 000-2.093z" fill="#fff"/><path d="M65.855 91.519a2.409 2.409 0 00-.793-1.272c-.739-.63-1.6-.985-2.572-1.095a9.192 9.192 0 00-2.599 0 8.872 8.872 0 00-2.64.766 7.988 7.988 0 00-2.23 1.587 7.148 7.148 0 00-1.64 2.449 39.52 39.52 0 00-.411 1.75 14.982 14.982 0 00.273 7.538 9.909 9.909 0 001.41 2.913 6.392 6.392 0 003.036 2.312 8.218 8.218 0 004.692.397 4.673 4.673 0 002.75-1.614c.273-.315.492-.684.656-1.081.11-.26.164-.533.178-.793a2.294 2.294 0 00-.069-.712c-.054-.205-.191-.396-.396-.588a1.486 1.486 0 00-.848-.397 1.491 1.491 0 00-.424.014 6.73 6.73 0 00-1.915.506c-.903.397-1.847.452-2.818.164a4.726 4.726 0 01-1.56-.82 4.065 4.065 0 01-.547-.534 2.726 2.726 0 01-.37-.602 8.484 8.484 0 01-.615-2.599 7.749 7.749 0 01.274-2.804c.123-.41.3-.807.547-1.176a4.306 4.306 0 012.202-1.737 3.905 3.905 0 012.558-.042c.67.233 1.368.342 2.08.342.218 0 .437-.04.656-.136.438-.178.766-.493.999-.944.054-.096.082-.205.11-.301.163-.506.15-.999.026-1.491z" fill="#FE451D"/><path d="M27.232 98.167c-.11-.301-.342-.835-.684-1.614-.205-.465-.301-.78-.301-.93 0-.302.068-.602.205-.917.232-.575.397-.957.451-1.163a1.68 1.68 0 00.069-.533c-.014-1.327-.178-2.38-.506-3.201-.534-1.382-1.067-2.34-1.6-2.873-.534-.533-1.054-.944-1.547-1.217-.26-.15-.52-.26-.78-.356-.04-.013-.068-.027-.109-.04-1.327-.48-3.187-.603-5.58-.37-2.38.232-4.036.615-4.953 1.163-.902.547-1.463 1.162-1.682 1.86-.219.698-.274 1.286-.15 1.778.123.479.369.917.725 1.272.205.206.424.383.67.507l.684 14.39c.04.944.123 1.819.246 2.626.11.807.356 1.436.711 1.888.37.451.917.807 1.642 1.094a3.492 3.492 0 002.243.082c.752-.219 1.108-.355 1.04-.397 1.203.014 2.134 0 2.776-.054 2.175-.192 3.885-.794 5.171-1.82a5.715 5.715 0 001.669-2.202 8.928 8.928 0 00.506-1.614c.041-.725.069-1.382.069-1.97a15.18 15.18 0 00-.985-5.39zm-5.828 5.116c-.136.355-.287.588-.451.711a.955.955 0 01-.575.164c-.205 0-.41-.055-.574-.15-.301-.164-.52-.479-.67-.93a4.344 4.344 0 01-.274-1.355c-.014-.451 0-.82.055-1.094.068-.274.164-.506.314-.711a1.36 1.36 0 01.561-.424c.028 0 .055-.014.082-.014.165-.014.342 0 .52.055.219.068.41.287.602.656.192.37.342.876.451 1.546.11.67.096 1.176-.04 1.546z" fill="#fff"/><path d="M21.65 87.744c-.492-.233-.806-.37-.97-.41-.233-.055-.452-.11-.67-.165-1.71-.383-3.284-.437-4.693-.191-1.71.328-2.708.643-2.995.985-.274.342-.438.643-.48.93-.04.287-.027.547.055.793.096.301.274.547.548.739.177.137.369.219.56.26.397 7.181.657 12.653.753 16.442.055 1.518.465 2.366 1.258 2.572.329.082.643.082.917-.014.273-.082.506-.274.656-.561.165-.287.274-.629.329-1.026.054-.397.068-2.462.054-6.21-.013-3.557-.027-7.181-.013-10.902.424-.15.875-.15 1.354-.014.588.178 1.026.493 1.313.971.287.493.37 1.026.246 1.615-.123.601-.41 1.053-.875 1.381-.301.178-.534.315-.684.41-.26.164-.438.342-.547.52-.192.342-.164.712.068 1.108.205.37.52.643.917.82.232.097.615.206 1.176.343.506.123.89.246 1.149.383.465.233.848.588 1.149 1.08.287.452.479.944.56 1.505.083.465.056 1.122-.081 1.956-.096.589-.329 1.067-.684 1.45-.301.164-.63.288-.971.37a7.242 7.242 0 01-.78.136c-.37.055-.63.082-.78.11-.602.123-1.04.342-1.3.67-.3.356-.41.793-.314 1.313.082.506.37.876.862 1.108a4.31 4.31 0 001.49.397 6.555 6.555 0 001.601-.123c.561-.096 1.136-.315 1.724-.643.588-.328 1.108-.821 1.56-1.45a7.01 7.01 0 00.984-2.12 7.961 7.961 0 00.301-2.339 7.057 7.057 0 00-.656-2.846c-.452-.943-1.067-1.668-1.86-2.16-.26-.151-.398-.247-.425-.26a1.51 1.51 0 01-.26-.247c-.11-.219-.027-.506.233-.862.219-.451.424-1.067.615-1.874a6.599 6.599 0 00.069-2.49c-.15-.861-.479-1.6-.985-2.215-.493-.602-.985-1.013-1.477-1.245z" fill="#FE451D"/><path d="M201.489 105.305a2.858 2.858 0 00-.575-1.149 3.661 3.661 0 00-.971-.848c-.643-.397-1.477-.657-2.476-.766a10.449 10.449 0 00-2.175-.027 1.412 1.412 0 01.014-.534.888.888 0 01.137-.383c.041-.068.136-.15.273-.246.11-.082.205-.15.287-.192.383-.027.849-.068 1.382-.123.793-.109 1.491-.314 2.079-.615.698-.37 1.19-.862 1.478-1.464a2.84 2.84 0 00.273-1.34c0-.438-.082-.89-.232-1.368-.233-.78-.548-1.3-.944-1.56-.383-.273-.657-.424-.821-.478a3.763 3.763 0 00-.711-.083c-.315 0-.862.041-1.642.137-.793.096-1.286.11-1.477.041v-.219c0-.314.041-.574.137-.793.164-.055.342-.082.561-.096h.642a6.63 6.63 0 001.929-.273 4.182 4.182 0 001.683-.917c.424-.383.738-.848.944-1.395a3.21 3.21 0 00.232-1.6 3.287 3.287 0 00-.574-1.56 3.125 3.125 0 00-.808-.834 44.017 44.017 0 00-3.624.123c-2.121.191-3.721.315-4.788.383-.602.04-.971.068-1.149.082a10.7 10.7 0 00-1.135.164c-.712.137-1.327.37-1.806.698-1.04.985-1.176 2.079-.424 3.283.027.328 0 1.422-.082 3.283a539.84 539.84 0 00-.164 5.006c-.041 1.477-.055 2.326-.041 2.558.013.219.041.588.068 1.081.027.492.068.985.123 1.45.055.478.11.889.164 1.244.055.356.11.671.151.931l.232.807c.069.232.178.465.301.67.192.328.465.602.835.807a5.3 5.3 0 001.176.52c.424.109 1.204.191 2.353.246 1.135.041 2.243 0 3.324-.109a16.04 16.04 0 002.982-.575 5.262 5.262 0 002.353-1.381c.191-.356.342-.739.451-1.15.137-.506.15-.984.055-1.436z" fill="#fff"/><path d="M199.861 89.314c-.068-.37-.301-.67-.684-.916a3.064 3.064 0 00-.602-.274c-5.088.233-7.879.383-8.344.438-.478.068-.834.178-1.067.355-.219.178-.369.383-.437.616a1.79 1.79 0 00.109 1.19c.055.11.178.219.356.328a101.76 101.76 0 00.519 16.593c.124.178.288.315.493.438.205.123.451.218.739.287.218.041.478.082.793.096.465.027 1.094-.014 1.874-.11s1.395-.15 1.847-.191c.451-.041.985-.082 1.586-.137.602-.068 1.054-.178 1.355-.342.287-.164.506-.356.656-.575.137-.205.233-.451.301-.725.069-.328-.014-.642-.219-.957-.191-.287-.396-.465-.629-.561a3.092 3.092 0 00-.807-.164c-.315-.027-.834-.027-1.587-.027-.738 0-1.395.027-1.942.054-.547.041-.917.055-1.108.028a45.04 45.04 0 01-.233-5.253c.274-.15.616-.233 1.013-.246.123 0 .588.027 1.395.082a8.044 8.044 0 001.983-.164c.219-.041.411-.096.561-.165a1.16 1.16 0 00.451-.341c.124-.151.206-.343.247-.561.027-.15.041-.37.027-.643 0-.246-.014-.438-.041-.588a1.422 1.422 0 00-.246-.52c-.137-.164-.342-.274-.602-.328a3.05 3.05 0 00-.752-.042c-.917.014-2.189.028-3.79.055a28.792 28.792 0 01-.027-4.473c.657-.027 1.368-.068 2.12-.11 1.382-.068 2.257-.136 2.613-.177.369-.055.698-.15.985-.287.342-.165.615-.397.821-.712.273-.3.342-.629.273-.97z" fill="#FE451D"/><path d="M166.867 97.47a2.029 2.029 0 00-.492-1.19 7.74 7.74 0 00-.288-.273l-.013-.028a.497.497 0 01-.041-.15l-.055-.219c-.027-.096-.055-.191-.068-.26-.014-.37-.069-.834-.137-1.422a20.266 20.266 0 01-.123-2.326c.013-.766.082-1.56.218-2.366.151-.807.219-1.355.219-1.656 0-.533-.15-1.094-.465-1.668-.314-.63-.738-1.108-1.258-1.437-1.368-.875-2.873-.492-4.514 1.136a1.837 1.837 0 00-.26.314c-.287.233-.547 1.026-.753 2.408a32.963 32.963 0 00-.383 4.158c-.027 1.395-.355 1.956-.957 1.697-.315-.917-.342-2.039-.055-3.393.37-1.792.082-3.447-.875-4.952a1.271 1.271 0 00-.629-.287l-.89-.164a8.038 8.038 0 00-1.367-.137c-.479 0-.849.041-1.122.123-.192-.04-.479.028-.876.205-.656.288-1.067.534-1.203.74-.411.533-.657 1.039-.739 1.504-.027.136-.068.643-.123 1.504a32.39 32.39 0 00-.082 1.532c0 .11.027.561.082 1.355.055.793.082 1.518.082 2.175v1.436c-.014.027-.041.287-.082.766-.041.328-.123.575-.219.711-.397.602-.67 1.026-.848 1.3-.342.37-.575.725-.711 1.08-.178.465-.26 1.04-.219 1.71.013.671.082 1.218.205 1.655.109.438.219.862.315 1.245.095.397.205.602.328.629.109.028.314.137.602.329.013.041.013.068.027.082.055 1.737.219 3.242.479 4.514l.041.164c.082.233.178.479.26.766l.013.027a.63.63 0 01.083.096c.123.246.3.493.56.739.602.574 1.368.903 2.271.944l1.272.123c1.122-.123 1.97-.78 2.531-1.97.574-1.19.738-2.462.506-3.816-.233-1.355-.219-2.34.027-2.928.37-.862.712-.82 1.013.11 0 .027 0 .041.013.068.069.397.11.848.123 1.382.014.109.014.574.014 1.395.014.574.027 1.04.055 1.395.041.506.123.971.246 1.368.287 1.012.78 1.778 1.505 2.298.205.137.41.233.615.287.274.096.602.151.971.151.725 0 1.368-.123 1.956-.356.931-.369 1.491-.793 1.683-1.258.123-.219.191-.452.219-.712.041-.123.15-.56.314-1.313.233-.985.288-2.599.151-4.815-.027-.465-.041-.67-.027-.574a21.875 21.875 0 01-.082-1.108c0-.041-.028-.178-.055-.438a11.47 11.47 0 01-.028-.848v-.096c.11-.533.26-.985.452-1.381a5.53 5.53 0 01.219-.397c.082-.164.15-.287.191-.397.164-.41.233-.848.178-1.286z" fill="#fff"/><path d="M164.077 86.363c-.438-.492-.999-.739-1.669-.739-1.286 0-1.929.74-1.929 2.217 0 .67-.109 3.68-.342 9l-5.061 1.108c.027-1.463.096-2.9.233-4.336.396-1.354.588-2.53.588-3.53 0-1.983-.629-2.968-1.915-2.968-.753 0-1.354.425-1.792 1.273a5.527 5.527 0 00-.534 2.23 783.742 783.742 0 00-.068 8.111c-1.368.479-2.052 1.313-2.052 2.517 0 1.163.616 1.751 1.847 1.751h.137c-.041 2.886-.069 4.897-.082 6.046-.028 1.409.588 2.106 1.832 2.106.657 0 1.177-.246 1.574-.711.41-.465.615-1.026.601-1.682-.177-3.598-.3-5.992-.369-7.182 1.3-.369 2.927-.684 4.883-.944-.136 3.283-.218 5.499-.218 6.648 0 .876.177 1.655.519 2.339.438.876 1.067 1.314 1.888 1.314s1.436-.438 1.833-1.314c.274-.656.424-1.436.424-2.366 0-.917-.137-1.956-.397-3.133a60.668 60.668 0 01-.082-4.076c.643-.287.972-.957.972-1.997 0-.916-.274-1.505-.821-1.778.109-2.148.301-4.856.574-8.126.055-.697-.136-1.3-.574-1.778z" fill="#FE451D"/><path d="M90.664 85.359c-.479-.56-1.176-.903-2.106-1.026-.643-.082-2.066-.041-4.282.11-2.216.15-4.022.396-5.43.71-1.41.302-2.613.657-3.612 1.054a32.632 32.632 0 00-3.433 1.587c-1.6.834-2.49 1.6-2.668 2.257a5.112 5.112 0 00-.136 1.983c.082.67.3 1.231.642 1.71.288.41.657.766 1.068 1.067a205.91 205.91 0 00-.493 7.346c-.137 2.681-.11 4.692.055 6.06.164 1.354.602 2.38 1.34 3.105.725.711 1.642 1.026 2.777.93 1.136-.096 1.956-.301 2.476-.657a3.818 3.818 0 001.204-1.313c.287-.52.574-2.982.848-7.373.191-3.146.355-5.143.465-5.978.027.014.041.041.068.082.11.15.165.315.178.52l.547 6.552c.096 1.136.206 1.984.301 2.572.178.944.465 1.901.876 2.886.396.985.985 1.683 1.75 2.08a3.85 3.85 0 002.394.424c.835-.11 1.464-.479 1.916-1.095.45-.615.82-1.518 1.121-2.722.219-.903.356-1.587.383-2.065-.164-5.308-.26-8.536-.26-9.671a88.465 88.465 0 00-.068-2.107 36.19 36.19 0 01-.082-.903 15.779 15.779 0 01-.082-1.792c.52-.424.944-.78 1.244-1.08.507-.506.903-1.026 1.177-1.546.314-.63.465-1.258.465-1.915-.014-.711-.233-1.313-.643-1.792z" fill="#fff"/><path d="M86.314 90.776a7.264 7.264 0 002.34-1.053c.697-.48.97-1.15.806-1.998-.164-.848-.506-1.422-1.026-1.696-.533-.273-1.217-.383-2.065-.355-1.355.04-2.627.15-3.803.314-1.04.164-2.08.37-3.119.575a42.52 42.52 0 00-3.68 1.04c-1.244.41-2.311.875-3.2 1.38-.89.507-1.45 1.218-1.683 2.148-.246.917.11 1.519 1.067 1.806l.383.041c-.014.069-.014.137-.014.205-.013.15-.082.903-.218 2.23 0 .055-.014.123-.028.191a291.287 291.287 0 00-.533 5.609c-.246 2.53-.123 4.746.37 6.675.492 1.915 1.422 2.668 2.776 2.23 1.354-.438 1.997-1.696 1.915-3.776-.069-2.079-.096-4.281-.069-6.62-.013-2.34.055-4.624.165-6.853v-.137c1.696-.793 3.337-1.272 4.91-1.436-.054.355-.054 1.135-.013 2.339.068 1.217.136 2.913.205 5.088.055 2.175.137 4.295.219 6.32.096 2.038.342 3.433.738 4.186.383.738 1.204 1.08 2.463 1.026 1.245-.055 1.833-1.286 1.764-3.68a452.549 452.549 0 00-.273-7.264c-.11-2.448-.192-4.295-.288-5.553-.082-1.259-.123-2.244-.109-2.982z" fill="#FE451D"/><path d="M127.869 89.304c-.205-.752-.465-1.3-.807-1.642-.041-.04-.095-.095-.15-.137-.11-.095-.629-.328-1.519-.724-.889-.383-2.257-.684-4.117-.93-1.847-.22-3.433-.411-4.719-.589-1.286-.191-2.189-.219-2.681-.096-.506.124-.93.301-1.286.534-.342.233-.739.739-1.19 1.505-.452.78-.027 2.079 1.231 3.94.807.382 1.354.71 1.641.998-.054 1.532-.082 3.365-.082 3.365h-.041c-.013.15-.027.287-.027.424-.014.328-.027.656-.082.985a17.71 17.71 0 00-.027.875 78.056 78.056 0 01-.165 3.119c-.068.862-.109 1.71-.136 2.585-.014.452-.028.889-.028 1.327-.027.452-.027.917-.041 1.368 0 .315-.013.629-.013.944v.711c0 .397.027.807.095 1.19.028.151.055.315.096.479.027.096.041.205.068.301.014.027.055.096.151.26.096.15.465.506 1.149 1.039.684.534 1.874.602 3.57.206l-.082-.041.096.041c.068-.028.137-.041.205-.069 1.135-.273 1.874-.93 2.243-1.983.028-.082.041-.151.055-.233.027-.109.041-.219.041-.328v-1.026l.137-.78v-.342s-.068-.396-.137-.602v-.273c.069-.164.055-.342.055-.52s-.014-.356.082-.533v-.233c-.096-.178-.082-.342-.082-.506 0-.301.014-.602.014-.903 0-.232.013-.465.027-.684.014-.246.014-.492.027-.738.014-.383.028-.767.028-1.163 0-.274.013-.534.013-.807.014-.274.028-.547.028-.807.013-.26.027-.698.013-1.314 0-.615.069-1.928.219-3.912 1.163.315 2.408.424 3.707.356 1.56-.328 2.394-1.491 2.517-3.46-.027-.575-.041-.958-.096-1.177z" fill="#fff"/><path d="M126.146 91c.109-.492.027-.984-.233-1.463-.273-.493-.479-.807-.656-.93-.178-.124-.452-.247-.821-.383a22.465 22.465 0 00-1.286-.37 38.23 38.23 0 00-1.491-.314 31.505 31.505 0 00-2.066-.288 78.171 78.171 0 01-2.434-.314 19.157 19.157 0 00-1.765-.123c-.588-.014-1.04.027-1.368.123a1.08 1.08 0 00-.397.191 1.49 1.49 0 00-.451.63 4.626 4.626 0 00-.205.861c-.11 1.053.287 1.778 1.204 2.161.41.11.807.178 1.162.206.397.027.807.068 1.204.11l-.629 8.89-.383 7.606.041.547c.013.082.055.205.123.424.082.205.246.41.506.629.26.219.506.37.78.465.273.096.479.151.629.165.15.027.356.013.629-.028a.884.884 0 00.616-.328c.15-.164.232-.424.273-.739.041-.328.069-.656.096-.985.014-.328.027-.779.055-1.326.027-.548.041-1.204.082-1.97 0-.11.014-.219.014-.329.027-1.272.068-2.544.109-3.802.041-.917.082-1.82.096-2.75.027-.697.041-1.409.054-2.106.014-.069.014-.137.014-.206.014-.328.027-.67.027-.984l.042-.903c.027-.301.027-.602.027-.93.014-.329.027-.657.082-1.013.041-.013.123 0 .26.014.191.027.492.069.903.123.41.055.902.11 1.463.15.561.055 1.095.11 1.587.178a3.49 3.49 0 001.368-.054c.369-.055.629-.342.739-.835z" fill="#FE451D"/><path d="M145.572 87.375a22.72 22.72 0 00-.123-1.368 4.07 4.07 0 00-.451-1.286c-.247-.41-.753-.766-1.505-1.053a4.94 4.94 0 00-1.573-.315c-.041 0-.068 0-.096-.014-.232-.013-.479 0-.725.028-1.723.26-3.242 1.696-4.528 4.322-1.477 2.982-2.681 5.65-3.611 7.975a4.8 4.8 0 00-1.901.506 4.887 4.887 0 00-1.628 1.231l-.096.698c-.643 1.942-.561 3.256.26 3.939.301.165.534.274.725.315.192.027.205.123.069.233-.137.109-.438.766-.917 1.983-.465 1.218-.725 2.38-.739 3.488.014.452.178 1.136.52 2.066.342.93 1.286 1.422 2.818 1.504.479.137 1.094.096 1.819-.109.739-.205 1.396-.657 1.997-1.368.589-.711 1.081-1.655 1.45-2.831.165-.548.315-.972.452-1.3.055-.137.109-.26.164-.397.109.356.192.794.274 1.273.054.328.136 1.094.287 2.298.137 1.176.533 2.12 1.135 2.804.616.684 1.573 1.08 2.886 1.217 1.3.123 2.353-.26 3.147-1.204.629-.738 1.026-1.901 1.217-3.529v-.027a6947.765 6947.765 0 00-1.327-21.08z" fill="#fff"/><path d="M142.617 85.979c-.492-.246-.944-.342-1.313-.315-.369.028-.684.15-.971.342-.287.205-.479.383-.602.547a1.457 1.457 0 01-.109.206 126.089 126.089 0 00-5.294 11.025c-.438 0-.821.027-1.136.095-.506.096-.93.26-1.299.507-.41.273-.698.642-.848 1.121-.178.493-.151.917.082 1.3.137.205.315.369.547.506.219.123.479.205.752.232.11.014.233.028.37.028-.52 1.354-.999 2.695-1.464 4.049-.15.451-.273.807-.328 1.08-.096.397-.123.78-.082 1.108.041.383.191.739.438 1.054.246.342.547.561.93.67.369.109.766.082 1.176-.082a2.67 2.67 0 00.999-.684c.232-.26.437-.588.615-.985.11-.232.246-.588.424-1.067.465-1.34 1.095-3.16 1.888-5.471.096 0 .191-.014.301-.014.643-.014 1.477-.041 2.489-.055a61.36 61.36 0 00.342 6.292c.219 1.929.684 3.01 1.409 3.242.725.233 1.218.288 1.519.165.301-.124.574-.37.848-.739.273-.383.41-.739.424-1.094.014-.356.027-.794.027-1.327 0-.534-.109-1.751-.287-3.666a188.857 188.857 0 01-.52-6.484c-.164-2.722-.273-5.089-.314-7.086-.042-1.997-.083-3.187-.137-3.556-.069-.41-.356-.712-.876-.944zm-2.448 11.682c-.506 0-1.026.027-1.546.04.438-1.271.93-2.653 1.436-4.144.055 1.368.096 2.736.11 4.104z" fill="#FE451D"/><path d="M185.584 87.964a2.304 2.304 0 00-.096-.287c-.451-1.382-1.258-2.23-2.394-2.517-.56-.15-1.244.055-2.079.588-.821.52-1.463 1.163-1.929 1.929a26.477 26.477 0 00-1.34 2.626c-.014.028-.246.37-.711 1.026a86.142 86.142 0 01-.028-1.929c0-1.026-.082-1.805-.232-2.339-.37-1.258-1.149-1.805-2.312-1.614-.547.014-1.081.041-1.587.096-.985.082-1.628.232-1.915.438-.424.109-.739.3-.944.56-.191.26-.355.493-.492.698a14.124 14.124 0 00-.67 3.447 170.258 170.258 0 00-.178 3.775 83.069 83.069 0 01-.629 7.825l-.274 1.135c-.315 1.081-.246 2.804.219 5.144l.191.506c.274.684.753 1.368 1.437 2.038.082.055.164.109.259.15.507.26 1.3.397 2.353.397.192 0 .37-.014.547-.055.137-.027.807-.219 2.025-.602 1.204-.396 2.284-1.313 3.242-2.749.027-.055.068-.096.096-.137-.041.315.136.876.533 1.696.52 1.067 1.614 1.655 3.283 1.765 1.669.109 2.736-.178 3.201-.835.273-.369.397-.902.397-1.586 0-.288-.014-.684-.041-1.204a37.372 37.372 0 01-.165-3.912c.014-1.368.028-2.722.069-4.09a104.3 104.3 0 01.191-4.104c.082-1.3.178-2.613.274-3.926.109-1.34 0-2.654-.301-3.953z" fill="#fff"/><path d="M184.311 90.714c.069-.917 0-1.71-.205-2.38-.301-.944-.862-1.423-1.682-1.423-1.095 0-2.052.958-2.846 2.873-.998 2.476-1.983 4.965-2.968 7.455-1.751 4.186-2.845 6.47-3.296 6.88v-.246c-.014-1.628.259-4.049.834-7.25.561-3.187.848-5.567.848-7.154 0-.656-.191-1.231-.574-1.696-.383-.465-.89-.684-1.533-.684-1.094 0-1.819.615-2.147 1.833-.055 1.737-.287 4.541-.711 8.454-.397 3.597-.589 6.401-.589 8.385 0 1.491.219 2.64.671 3.433.41.698.902.985 1.463.862 1.601-.328 3.092-1.546 4.487-3.666l.766-1.258c.205-.384.41-.78.616-1.191.902-1.805 1.928-4.555 3.091-8.234.137-.329.233-.575.287-.739a2.01 2.01 0 010 .41c-.095 2.23-.178 4.46-.287 6.689-.109 2.668-.301 4.897-.574 6.689.766 1.122 1.504 1.683 2.215 1.683 1.013 0 1.587-.752 1.751-2.271a53.787 53.787 0 01-.273-5.526c0-2.585.219-6.566.656-11.928z" fill="#FE451D"/><path d="M110.076 87.964a2.304 2.304 0 00-.096-.287c-.451-1.382-1.258-2.23-2.393-2.517-.561-.15-1.245.055-2.08.588-.82.52-1.463 1.163-1.928 1.929a26.271 26.271 0 00-1.341 2.626c-.014.028-.246.37-.711 1.026a86.142 86.142 0 01-.028-1.929c0-1.026-.082-1.805-.232-2.339-.369-1.258-1.149-1.805-2.312-1.614-.547.014-1.08.041-1.587.096-.984.082-1.627.232-1.915.438-.424.109-.738.3-.944.56-.191.26-.355.493-.492.698a14.11 14.11 0 00-.67 3.447 170.509 170.509 0 00-.178 3.775 82.969 82.969 0 01-.63 7.825l-.273 1.135c-.315 1.081-.246 2.804.219 5.144l.192.506c.273.684.752 1.368 1.436 2.038.082.055.164.109.26.15.506.26 1.3.397 2.352.397.192 0 .37-.014.548-.055.136-.027.807-.219 2.024-.602 1.204-.396 2.284-1.313 3.242-2.749.027-.055.068-.096.096-.137-.041.315.137.876.533 1.696.52 1.067 1.614 1.655 3.283 1.765 1.669.109 2.736-.178 3.201-.835.274-.369.397-.902.397-1.586 0-.288-.014-.684-.041-1.204a37.37 37.37 0 01-.164-3.912c.013-1.368.027-2.722.068-4.09a104.3 104.3 0 01.191-4.104c.083-1.3.178-2.613.274-3.926.109-1.34 0-2.654-.301-3.953z" fill="#fff"/><path d="M108.804 90.714c.068-.917 0-1.71-.206-2.38-.301-.944-.861-1.423-1.682-1.423-1.094 0-2.052.958-2.845 2.873-.999 2.476-1.984 4.965-2.969 7.455-1.75 4.186-2.845 6.47-3.296 6.88v-.246c-.014-1.628.26-4.049.834-7.25.561-3.187.848-5.567.848-7.154 0-.656-.191-1.231-.574-1.696-.383-.465-.89-.684-1.532-.684-1.095 0-1.82.615-2.148 1.833-.055 1.737-.287 4.541-.711 8.454-.397 3.597-.588 6.401-.588 8.385 0 1.491.218 2.64.67 3.433.41.698.903.985 1.463.862 1.6-.328 3.092-1.546 4.487-3.666l.766-1.258c.205-.384.411-.78.616-1.191.903-1.805 1.928-4.555 3.091-8.234.137-.329.233-.575.287-.739a2.01 2.01 0 010 .41c-.095 2.23-.177 4.46-.287 6.689-.109 2.668-.301 4.897-.574 6.689.766 1.122 1.504 1.683 2.216 1.683 1.012 0 1.586-.752 1.751-2.271a53.494 53.494 0 01-.274-5.526c0-2.585.219-6.566.657-11.928z" fill="#FE451D"/><path d="M49.252 92.333a10.36 10.36 0 00-.205-1.641l-.452-1.519c.123-.15.192-.314.178-.492-.178-2.75-1.682-4.391-4.487-4.911-2.407-.41-4.678-.041-6.812 1.108-2.23 1.122-4.007 2.804-5.334 5.075a22.86 22.86 0 00-2.969 8.754c-.355 2.887-.11 5.8.739 8.741.862 2.941 2.421 4.692 4.665 5.28 2.243.588 4.267.602 6.046.055 1.791-.534 3.624-2.421 5.512-5.663.835-1.655 1.491-3.242 1.943-4.76a29.58 29.58 0 001.176-10.027zm-11.08 6.62c.397-2.886 1.122-4.828 2.161-5.84 1.04-1.013 1.396-.206 1.054 2.42-.069 1.04-.383 2.285-.958 3.721-1.901 2.682-2.654 2.586-2.257-.3zm8.864-12.98a.506.506 0 01.082.287l-.082-.288z" fill="#fff"/><path d="M47.077 90.158l-.958-2.722c.465-.164.739-.342.794-.534.136-.424.054-.738-.274-.916-2.08-1.136-4.35-1.259-6.812-.383a7.262 7.262 0 00-2.298 1.6c-1.614 1.67-2.928 3.611-3.954 5.828-.136.287-.26.588-.383.889-.04.068-.068.136-.109.205a23.532 23.532 0 00-1.983 6.812c-.301 2.325-.11 4.391.547 6.183.656 1.778 1.888 3.078 3.693 3.885 1.792.807 3.68.314 5.636-1.478 1.983-1.792 3.447-3.789 4.39-5.964.07-.164.151-.342.233-.52.082-.177.178-.369.26-.574.944-2.175 1.491-4.377 1.655-6.58.164-2.188.014-4.103-.437-5.731zm-6.853-.684c1.682-.971 2.913-.479 3.68 1.45.765 1.915.752 4.281-.042 7.086-.26.67-.52 1.34-.766 2.01-.178.466-.356.917-.52 1.341a19.885 19.885 0 01-1.682 2.927c-1.012 1.396-2.27 1.97-3.79 1.724-1.518-.246-2.188-1.902-2.01-4.979.164-2.9.67-5.404 1.505-7.524.902-1.833 2.12-3.173 3.625-4.035z" fill="#FE451D"/><path d="M159.631 71.108a2.839 2.839 0 00-.574-1.15 3.647 3.647 0 00-.971-.847c-.643-.397-1.478-.657-2.476-.766a10.485 10.485 0 00-2.175-.028 1.389 1.389 0 01.013-.533.913.913 0 01.137-.383c.041-.069.137-.15.274-.246a2.06 2.06 0 01.287-.192 45.87 45.87 0 001.382-.123c.793-.11 1.491-.315 2.079-.615.697-.37 1.19-.862 1.477-1.464a2.84 2.84 0 00.274-1.34c0-.438-.082-.89-.233-1.368-.232-.78-.547-1.3-.944-1.56-.383-.274-.656-.424-.82-.479a3.784 3.784 0 00-.712-.082c-.314 0-.862.041-1.641.137-.794.096-1.286.11-1.478.041v-.219c0-.314.041-.574.137-.793a2.17 2.17 0 01.561-.096h.643a6.63 6.63 0 001.929-.274 4.169 4.169 0 001.682-.916c.424-.383.739-.848.944-1.395a3.21 3.21 0 00.233-1.6 3.29 3.29 0 00-.575-1.56 3.122 3.122 0 00-.807-.834 44.04 44.04 0 00-3.625.123c-2.12.191-3.721.314-4.788.383-.601.04-.971.068-1.149.082a10.7 10.7 0 00-1.135.164c-.711.137-1.327.37-1.806.698-1.039.984-1.176 2.079-.424 3.282.028.329 0 1.423-.082 3.283-.068 1.86-.123 3.53-.164 5.007-.041 1.477-.054 2.325-.041 2.558.014.219.041.588.069 1.08a30.193 30.193 0 00.287 2.695c.055.356.109.67.15.93l.233.807c.068.233.178.466.301.67.191.329.465.603.834.808.37.219.766.397 1.177.52.424.109 1.203.191 2.352.246 1.136.04 2.244 0 3.324-.11a16.001 16.001 0 002.982-.574 5.252 5.252 0 002.353-1.382c.192-.355.342-.738.452-1.149.136-.506.15-.985.054-1.436z" fill="#fff"/><path d="M158.004 55.117c-.069-.37-.301-.67-.684-.917a3.059 3.059 0 00-.602-.273c-5.089.232-7.879.383-8.344.438-.479.068-.835.177-1.067.355a1.263 1.263 0 00-.438.616 1.813 1.813 0 00.11 1.19c.054.11.177.219.355.328a101.867 101.867 0 00.52 16.593c.123.177.287.314.492.437.206.123.452.22.739.288.219.04.479.082.794.095.465.028 1.094-.013 1.874-.11.779-.095 1.395-.15 1.846-.19.452-.042.985-.083 1.587-.137.602-.069 1.053-.178 1.354-.342a1.97 1.97 0 00.657-.575 2.32 2.32 0 00.301-.725c.068-.328-.014-.643-.219-.957-.192-.288-.397-.465-.629-.561a3.113 3.113 0 00-.807-.164c-.315-.028-.835-.028-1.587-.028-.739 0-1.395.028-1.943.055-.547.041-.916.055-1.108.027a45.034 45.034 0 01-.232-5.252c.273-.15.615-.233 1.012-.247.123 0 .588.028 1.395.082a8.052 8.052 0 001.984-.164c.219-.04.41-.095.561-.164a1.162 1.162 0 00.697-.903c.028-.15.041-.369.028-.642 0-.247-.014-.438-.041-.589a1.408 1.408 0 00-.247-.52c-.136-.164-.342-.273-.602-.328a3.09 3.09 0 00-.752-.04c-.916.013-2.188.026-3.789.054a28.669 28.669 0 01-.027-4.473c.656-.028 1.368-.069 2.12-.11 1.382-.068 2.257-.136 2.613-.177.369-.055.697-.15.985-.288a1.97 1.97 0 00.82-.711c.274-.3.342-.63.274-.971z" fill="#FE451D"/><path d="M175.226 71.108a2.841 2.841 0 00-.575-1.15 3.632 3.632 0 00-.971-.847c-.643-.397-1.477-.657-2.476-.766a10.483 10.483 0 00-2.175-.028 1.409 1.409 0 01.014-.533.9.9 0 01.137-.383c.041-.069.137-.15.273-.246.11-.082.206-.15.288-.192.383-.027.848-.068 1.381-.123.794-.11 1.491-.315 2.08-.615.697-.37 1.19-.862 1.477-1.464a2.84 2.84 0 00.273-1.34c0-.438-.082-.89-.232-1.368-.233-.78-.547-1.3-.944-1.56-.383-.274-.657-.424-.821-.479a3.76 3.76 0 00-.711-.082c-.315 0-.862.041-1.641.137-.794.096-1.286.11-1.478.041v-.219c0-.314.041-.574.137-.793a2.17 2.17 0 01.561-.096h.643c.697 0 1.34-.096 1.928-.274a4.166 4.166 0 001.683-.916c.424-.383.739-.848.944-1.395a3.198 3.198 0 00.232-1.6 3.278 3.278 0 00-.574-1.56 3.137 3.137 0 00-.807-.834 44.026 44.026 0 00-3.625.123c-2.12.191-3.721.314-4.788.383-.602.04-.971.068-1.149.082a10.7 10.7 0 00-1.135.164c-.711.137-1.327.37-1.806.698-1.039.984-1.176 2.079-.424 3.282.028.329 0 1.423-.082 3.283-.068 1.86-.123 3.53-.164 5.007-.041 1.477-.055 2.325-.041 2.558.014.219.041.588.068 1.08.028.493.069.985.123 1.45.055.48.11.89.165 1.245.054.356.109.67.15.93l.233.807a2.9 2.9 0 00.301.67c.191.329.465.603.834.808a5.3 5.3 0 001.176.52c.424.109 1.204.191 2.353.246 1.135.04 2.243 0 3.324-.11a16.001 16.001 0 002.982-.574 5.252 5.252 0 002.353-1.382 5.29 5.29 0 00.451-1.149c.137-.506.151-.985.055-1.436z" fill="#fff"/><path d="M173.598 55.117c-.069-.37-.301-.67-.684-.917a3.085 3.085 0 00-.602-.273c-5.089.232-7.879.383-8.344.438-.479.068-.835.177-1.067.355-.219.178-.37.383-.438.616a1.813 1.813 0 00.109 1.19c.055.11.178.219.356.328a101.755 101.755 0 00.52 16.593c.123.177.287.314.492.437.205.123.452.22.739.288.219.04.479.082.793.095.465.028 1.095-.013 1.874-.11.78-.095 1.396-.15 1.847-.19.451-.042.985-.083 1.587-.137.602-.069 1.053-.178 1.354-.342a1.97 1.97 0 00.657-.575 2.32 2.32 0 00.3-.725c.069-.328-.013-.643-.218-.957-.192-.288-.397-.465-.63-.561a3.104 3.104 0 00-.807-.164c-.314-.028-.834-.028-1.586-.028-.739 0-1.396.028-1.943.055-.547.041-.916.055-1.108.027a44.815 44.815 0 01-.232-5.252c.273-.15.615-.233 1.012-.247.123 0 .588.028 1.395.082a8.056 8.056 0 001.984-.164 2.5 2.5 0 00.56-.164 1.166 1.166 0 00.698-.903c.027-.15.041-.369.027-.642a3.31 3.31 0 00-.041-.589 1.392 1.392 0 00-.246-.52c-.137-.164-.342-.273-.602-.328a3.09 3.09 0 00-.752-.04c-.917.013-2.189.026-3.789.054a28.792 28.792 0 01-.028-4.473c.657-.028 1.368-.069 2.121-.11 1.381-.068 2.257-.136 2.612-.177.37-.055.698-.15.985-.288a1.97 1.97 0 00.821-.711c.274-.3.342-.63.274-.971z" fill="#FE451D"/><path d="M95.85 53.25c-.574-1.573-1.587-2.708-3.036-3.42-1.874-.902-3.762-1.066-5.69-.505a36.733 36.733 0 00-5.828 2.27c-1.272.821-2.025 2.462-2.216 4.938-.014.15.15.698.479 1.614.342.917.478 1.998.424 3.256a170.146 170.146 0 00-.11 4.391 152.29 152.29 0 00.028 5.526c.04 1.081.04 2.162.027 3.242a4.367 4.367 0 001.026 2.914c1.012 1.231 2.353 1.764 4.008 1.614 2.134-.233 3.474-1.423 4.035-3.584a4.93 4.93 0 00.069-2.052 19.11 19.11 0 01-.233-5.964c.014-.205.123-.328.3-.37 1.943-.67 3.462-1.832 4.542-3.5a10.129 10.129 0 002.476-4.542c.028-.123.069-.26.096-.383.383-1.833.246-3.653-.397-5.444z" fill="#fff"/><path d="M91.665 62.32a7.92 7.92 0 001.997-3.776c.096-.45.164-.93.178-1.408.136-1.792-.534-3.201-2.025-4.24-1.395-.986-2.913-1.314-4.555-1a7.921 7.921 0 00-2.462.944 8.027 8.027 0 00-2.613 2.422c-.506.71-.615 1.408-.342 2.092.096.26.26.52.465.766l-.068 16.716c.356.67.862 1.15 1.505 1.45.738.328 1.354.192 1.833-.383.3-.37.465-.78.478-1.245.11-2.9.165-5.827.137-8.754.26-.11.506-.205.766-.315a13.811 13.811 0 004.706-3.27zm-2.052-4.186c-.451 1.026-1.56 2.107-3.31 3.256l.027-.753c-.014-1.149 0-1.942.014-2.352 0-.164.013-.315.027-.465a7.24 7.24 0 01.164-1.273c.356-.67 1.012-.957 1.984-.848.396.041.766.192 1.107.452.165.342.233.684.22 1.026 0 .287-.083.615-.233.957z" fill="#FE451D"/><path d="M133.336 53.291a2.316 2.316 0 00-.684-.027c-.821.082-1.464.232-1.929.451-.588.219-1.08.698-1.477 1.41a6.417 6.417 0 00-.219.533c-.506 1.764-.752 1.217-.752-1.67-.082-.67-.137-1.08-.137-1.23a3.503 3.503 0 00-.547-1.628c-.329-.52-.794-.903-1.395-1.163a3.538 3.538 0 00-1.806-.26c-.739.082-1.423.383-2.079.917-.657.52-1.163 1.08-1.505 1.669a23.873 23.873 0 00-1.204 2.434c-.451 1.026-.697 2.9-.725 5.623-.041 2.722-.246 6.141-.615 10.272a16.319 16.319 0 000 2.832c.082.971.178 1.723.273 2.257.096.52.288.971.602 1.354.301.383.739.725 1.3 1.04.602.328 1.327.478 2.175.465.506-.014 1.258-.11 2.284-.287a72.023 72.023 0 018.317-1.013v.014a53.197 53.197 0 015.088-.082c.698.014 1.286 0 1.792-.041.506-.055 1.067-.246 1.683-.575.629-.328 1.012-1.176 1.163-2.544.164-1.368-.178-2.394-1.026-3.091l1.901-11.463a43.53 43.53 0 00.246-2.394c.028-.616.041-1.177.014-1.683-.041-.52-.082-.97-.137-1.354a5.352 5.352 0 00-.314-1.217 2.592 2.592 0 00-.835-1.095 3.44 3.44 0 00-1.163-.615 5.678 5.678 0 00-1.176-.178c-.41-.027-.875.041-1.382.164-.506.137-.971.506-1.395 1.122-.424.615-.738 1.888-.93 3.816-.205 1.929-.383 2.503-.547 1.751-.219-1.71-.602-2.831-1.122-3.392-.055-.069-.123-.123-.164-.178a2.51 2.51 0 00-.957-.725c-.233-.068-.425-.15-.616-.219z" fill="#fff"/><path d="M131.339 55.59a.564.564 0 00-.191.163c-.384.329-.698.903-.958 1.738-.356 1.696-.698 4.2-1.04 7.537l-.492 7.14-.506.041c-.616.069-1.218.137-1.806.22v.013a53.29 53.29 0 00-1.751.3c.028-1.477.137-3.104.315-4.869.123-1.204.342-2.996.656-5.376l.725-5.39c.274-1.094.356-2.202.26-3.323-.095-1.163-.766-1.806-1.997-1.943-1.245-.137-2.038.602-2.394 2.203l-.396 2.448c-.014.137-.028.26-.041.397-.096.93-.205 2.653-.37 5.184-.15 2.517-.232 4.692-.246 6.539-.027 1.833 0 3.173.069 4.008.041.547.068.93.082 1.162-.014.192-.014.37-.014.52v.014c-.014.314 0 .547.027.711.069.383.247.711.52.985.26.246.575.424.958.547.342.11.711.15 1.121.137a9.946 9.946 0 001.122-.123 21.77 21.77 0 001.094-.233 15.66 15.66 0 011.163-.178c.465-.054.985-.109 1.546-.164 1.805-.15 3.584-.26 5.362-.342v.014c1.381-.055 2.763-.082 4.131-.096.424 0 .752-.027.957-.055.356-.04.657-.136.89-.273a1.899 1.899 0 00.957-1.6 1.666 1.666 0 00-.246-.93 2.003 2.003 0 00-.657-.698 2.283 2.283 0 00-.561-.233L142.2 56.37c.055-.328.082-.56.11-.698 0-.178.013-.328.013-.465v-.082c-.013-.055-.013-.11-.013-.15a2.353 2.353 0 00-.684-1.34 1.442 1.442 0 00-1.368-.398c-.547.11-.917.288-1.136.561-.219.274-.451.657-.684 1.15-.109.287-.218.82-.355 1.586-.137.766-.424 2.709-.862 5.855-.438 3.132-.766 5.622-.971 7.455l-.178 1.56c-.055.177-.068.3-.055.341-.287.014-.561.014-.821.028v-.014a275.97 275.97 0 00-3.036.123c0-.041 0-.082.013-.11.493-4.787 1.204-9.192 2.121-13.2.095-.478.15-.848.164-1.108v-.355a1.63 1.63 0 00-.233-.712c-.164-.287-.424-.52-.752-.697a2.293 2.293 0 00-1.053-.315c-.069-.014-.137-.014-.178-.014h-.11c-.273.041-.547.11-.793.22z" fill="#FE451D"/><path d="M51.702 61.276s8.043-4.938 4.801-8.837c-2.16-2.599-8.18 2.504-8.18 2.504-.684-.903-1.559-2.12-2.23-3.023-1.313-1.82-3.036-2.285-5.17-1.368-1.04.424-1.587 1.217-1.669 2.339-.123 1.628.014 2.147 1.313 4.268l1.67 2.818c-2.148 2.53-3.64 5.197-4.405 7.66-.766 2.476-1.34 4.2-1.396 5.403-.082 1.641-.136 3.283 1.177 4.172 1.08.739 1.573.752 2.872.752 1.067 0 2.736-1.108 3.324-3.146.602-2.065 1.902-6.292 2.216-6.607.329.315 1.587 5.144 2.668 7.305.287.533 1.409 2.134 3.843 1.682 1.054-.191 1.683-.383 2.367-.97 1.204-1.273 1.094-3.448.739-5.308-.739-3.817-2.134-6.197-3.94-9.644z" fill="#fff"/><path d="M39.651 75.748c.315.055.643.014.972-.136.314-.151.56-.343.766-.602a3.02 3.02 0 00.424-.835 6.05 6.05 0 00.246-.862c.465-1.997.916-3.583 1.382-4.787.683-1.724 1.518-3.174 2.53-4.377.219-.26.383-.48.506-.602.014-.014.014-.028.028-.028.506 1.026 1.08 2.545 1.737 4.57a113.607 113.607 0 011.23 4.007c.179.56.33 1.04.466 1.423.11.314.219.574.328.766.164.26.342.478.547.615.383.301.876.37 1.464.26.575-.082 1.012-.342 1.3-.725.287-.37.41-.82.383-1.34-.014-.37-.123-.849-.301-1.423-.52-1.628-.835-2.572-.917-2.845-.67-2.189-2.667-6.361-3.474-7.961 0 0 .178-.26.437-.48 4.733-4.144 6.265-4.718 5.13-6.264-1.19-1.614-4.336 1.3-6.853 3.42a3.74 3.74 0 00-.315.3c-.506-.82-2.01-3.46-3.023-4.732-.191-.26-.355-.465-.506-.589-.219-.191-.438-.328-.684-.396-.41-.123-.848-.055-1.286.178-.424.232-.711.547-.834.93-.11.383-.069.793.123 1.258.123.288.479.917 1.067 1.943a63.481 63.481 0 012.024 3.967c-.027.013-.082.068-.177.15a22.232 22.232 0 00-3.338 4.596 24.972 24.972 0 00-1.806 4.377v.028c-.656 1.641-.902 3.16-.738 4.5.027.424.15.766.328 1.053.233.342.506.548.834.643z" fill="#FE451D"/><path d="M78.251 57.999a10.336 10.336 0 00-.205-1.642l-.452-1.518c.124-.15.192-.314.178-.492-.178-2.75-1.682-4.391-4.486-4.911-2.408-.41-4.679-.041-6.813 1.108-2.23 1.122-4.008 2.804-5.334 5.075a22.861 22.861 0 00-2.969 8.754c-.355 2.887-.11 5.8.739 8.741.862 2.941 2.421 4.692 4.665 5.28 2.243.588 4.267.602 6.046.055 1.791-.534 3.624-2.421 5.512-5.663.835-1.655 1.491-3.242 1.943-4.76a29.577 29.577 0 001.176-10.027zm-11.08 6.62c.397-2.886 1.122-4.828 2.161-5.84 1.04-1.013 1.396-.206 1.054 2.42-.069 1.04-.383 2.285-.958 3.722-1.901 2.68-2.654 2.585-2.257-.302zm8.864-12.98a.506.506 0 01.082.286l-.082-.287z" fill="#fff"/><path d="M76.076 55.823l-.958-2.722c.465-.164.739-.342.794-.533.136-.424.054-.739-.274-.917-2.08-1.135-4.35-1.258-6.812-.383a7.265 7.265 0 00-2.298 1.6c-1.614 1.67-2.928 3.612-3.953 5.828-.137.287-.26.588-.383.89-.041.068-.069.136-.11.204-1.012 2.203-1.682 4.487-1.983 6.812-.301 2.326-.11 4.391.547 6.183.656 1.779 1.887 3.078 3.693 3.885 1.792.807 3.68.315 5.636-1.477 1.983-1.792 3.447-3.79 4.39-5.964.07-.164.151-.342.233-.52.082-.178.178-.37.26-.575.944-2.174 1.491-4.377 1.655-6.58.165-2.188.014-4.103-.437-5.73zm-6.853-.684c1.682-.97 2.913-.478 3.68 1.45.765 1.916.751 4.282-.042 7.086-.26.67-.52 1.34-.766 2.011-.178.465-.355.916-.52 1.34a19.925 19.925 0 01-1.682 2.928c-1.012 1.395-2.27 1.97-3.79 1.723-1.518-.246-2.188-1.901-2.01-4.979.164-2.9.67-5.403 1.505-7.523.902-1.833 2.12-3.174 3.624-4.035z" fill="#FE451D"/><path d="M117.373 57.999a10.36 10.36 0 00-.205-1.642l-.452-1.518c.124-.15.192-.314.178-.492-.178-2.75-1.682-4.391-4.486-4.911-2.408-.41-4.679-.041-6.812 1.108-2.23 1.122-4.008 2.804-5.335 5.075a22.855 22.855 0 00-2.969 8.754c-.355 2.887-.11 5.8.739 8.741.862 2.941 2.421 4.692 4.665 5.28 2.243.588 4.267.602 6.046.055 1.792-.534 3.625-2.421 5.512-5.663.835-1.655 1.491-3.242 1.943-4.76a29.577 29.577 0 001.176-10.027zm-11.08 6.62c.397-2.886 1.122-4.828 2.161-5.84 1.04-1.013 1.396-.206 1.054 2.42-.069 1.04-.383 2.285-.958 3.722-1.901 2.68-2.654 2.585-2.257-.302zm8.864-12.98a.504.504 0 01.082.286l-.082-.287z" fill="#fff"/><path d="M115.199 55.823l-.958-2.722c.465-.164.739-.342.794-.533.136-.424.054-.739-.274-.917-2.079-1.135-4.35-1.258-6.812-.383a7.267 7.267 0 00-2.298 1.6c-1.614 1.67-2.927 3.612-3.953 5.828-.137.287-.26.588-.383.89-.041.068-.069.136-.11.204-1.012 2.203-1.682 4.487-1.983 6.812-.301 2.326-.11 4.391.547 6.183.656 1.779 1.888 3.078 3.693 3.885 1.792.807 3.68.315 5.636-1.477 1.983-1.792 3.447-3.79 4.391-5.964.068-.164.15-.342.232-.52.082-.178.178-.37.26-.575.944-2.174 1.491-4.377 1.655-6.58.165-2.188.014-4.103-.437-5.73zm-6.853-.684c1.682-.97 2.913-.478 3.679 1.45.766 1.916.753 4.282-.041 7.086-.26.67-.52 1.34-.766 2.011-.178.465-.355.916-.52 1.34a19.898 19.898 0 01-1.682 2.928c-1.012 1.395-2.271 1.97-3.789 1.723-1.519-.246-2.189-1.901-2.011-4.979.164-2.9.67-5.403 1.505-7.523.902-1.833 2.12-3.174 3.625-4.035z" fill="#FE451D"/></svg>