<svg width="213" height="164" viewBox="0 0 213 164" fill="none" xmlns="http://www.w3.org/2000/svg">
<path fill-rule="evenodd" clip-rule="evenodd" d="M13.8211 14.3021L13.8428 14.279C18.5412 9.30095 25.0457 7.18389 30.0163 5.81007C51.7915 -0.279445 74.8039 -1.70516 97.1025 2.11671L97.1566 2.12598L97.2105 2.13623C100.207 2.7065 103.224 3.36039 106.154 3.9958C106.543 4.08005 106.93 4.16397 107.316 4.24733C110.635 4.96544 113.85 5.64738 117.013 6.19967C130.538 8.45002 145.413 9.64081 158.698 8.54322L158.709 8.54229C159.645 8.46677 160.63 8.37817 161.655 8.28611C165.939 7.90111 170.898 7.45546 175.684 7.65085C181.754 7.89866 188.325 9.17217 194.176 13.2672C199.122 16.7078 202.003 21.5749 203.796 26.3983C205.567 31.1615 206.422 36.2862 207.055 40.6567C207.499 43.5629 208.024 46.5791 208.562 49.6713C210.191 59.0391 211.942 69.1045 211.942 78.923L211.942 115.597C212.695 128.109 209.339 143.046 196.875 151.613C184.432 160.196 169.233 162.556 154.659 162.973C147.321 163.183 139.93 162.901 132.918 162.578C131.878 162.53 130.847 162.481 129.827 162.433C123.895 162.153 118.308 161.889 113.07 161.889C104.81 161.889 96.5735 162.15 88.2294 162.413C86.7388 162.461 85.2447 162.508 83.7464 162.554C73.9106 162.855 63.9369 163.096 53.8997 162.829C37.525 162.405 17.3249 159.039 6.91187 140.741L6.90582 140.73L6.8998 140.719C3.29666 134.327 2.00295 127.965 1.44778 121.907C1.1735 118.913 1.07464 115.92 0.985148 113.076L0.975779 112.777C0.888331 109.993 0.804881 107.336 0.591045 104.649C-1.4126 80.7139 2.03892 58.6746 5.58574 36.0268C5.68521 35.3917 5.78474 34.7561 5.88425 34.1199L5.90391 33.9941L5.92892 33.8693C6.00809 33.4738 6.08833 33.0638 6.171 32.6413C6.88547 28.9905 7.78059 24.4165 9.71989 20.3811C10.782 17.9967 12.2367 16.0168 13.7995 14.3254L13.8211 14.3021ZM15.1665 22.9001C13.5568 26.2108 12.8024 30.0341 12.0535 33.8298C11.9734 34.2361 11.8933 34.6421 11.8122 35.0471C11.7258 35.5994 11.6394 36.1509 11.5533 36.7015C7.97865 59.5351 4.62635 80.9487 6.57109 104.159C6.79745 106.999 6.885 109.79 6.97132 112.541C7.24475 121.257 7.50572 129.575 12.1266 137.773C20.8268 153.062 37.9128 156.413 54.0553 156.831C65.3986 157.133 76.7072 156.775 88.0211 156.417C96.3625 156.153 104.707 155.889 113.07 155.889C118.462 155.889 124.212 156.161 130.135 156.441C151.965 157.473 176.154 158.617 193.468 146.674C203.531 139.763 206.676 127.302 205.942 115.783L205.942 78.923C205.942 69.6712 204.324 60.3617 202.719 51.123C202.162 47.9182 201.606 44.7219 201.12 41.5395C199.862 32.8481 197.976 23.2143 190.743 18.1879C182.542 12.4436 171.968 13.3893 162.374 14.2474C161.299 14.3435 160.237 14.4385 159.192 14.5228M15.1665 22.9001C15.9002 21.2246 16.9484 19.7586 18.2063 18.3973C21.6654 14.7323 26.6969 12.9521 31.6235 11.5908C52.5878 5.72673 74.7053 4.36542 96.0889 8.03047C99.0053 8.58542 101.942 9.22206 104.881 9.85922C108.598 10.6648 112.318 11.4712 116.005 12.1144" fill="white"/>
<path d="M15.1656 22.9001C15.8994 21.2246 16.9476 19.7586 18.2054 18.3973C21.6646 14.7322 26.696 12.9521 31.6226 11.5908C52.587 5.7267 74.7044 4.36539 96.0881 8.03044C102.692 9.28703 109.4 10.9625 116.004 12.1144C129.841 14.4181 145.249 15.6747 159.191 14.5228C169.568 13.6851 181.623 11.8002 190.742 18.1879C197.975 23.2142 199.862 32.8481 201.119 41.5395C203.006 53.8959 205.941 66.4618 205.941 78.923C205.941 91.1747 205.941 103.531 205.941 115.783C206.675 127.302 203.53 139.763 193.467 146.674C171.455 161.858 138.331 155.889 113.069 155.889C93.3627 155.889 73.761 157.355 54.0545 156.831C37.9119 156.413 20.826 153.062 12.1258 137.773C6.04611 126.987 7.51362 115.992 6.57023 104.159C4.57863 80.389 8.14256 58.5034 11.8113 35.0471C12.6499 30.8585 13.3837 26.5651 15.1656 22.9001Z" fill="#FFC525"/>
<path d="M68.1675 90.6434C68.1401 90.4792 68.0991 90.3288 68.0444 90.192C67.9349 89.9321 67.8118 89.6995 67.675 89.467C67.5656 89.2892 67.4562 89.1113 67.3467 88.9335C66.9911 88.3453 66.5533 87.8255 66.0335 87.3604C65.7052 87.0595 65.3496 86.8133 64.9666 86.5944C64.6657 86.4303 64.351 86.3072 64.0091 86.2251C63.2157 86.0473 62.4223 85.9105 61.6016 85.8421C60.6304 85.76 59.6728 85.7874 58.7016 85.9241C57.7441 86.0473 56.8413 86.3345 55.9932 86.7722C55.2272 87.1826 54.5432 87.6887 53.9414 88.3043C53.3121 88.9335 52.7513 89.6038 52.2315 90.3151C51.7117 91.0401 51.315 91.8334 51.0141 92.6679C50.6721 93.8032 50.3848 94.9659 50.1797 96.156C50.0839 96.6758 50.0565 97.1956 50.0976 97.7291C50.1249 98.0574 50.1386 98.372 50.1523 98.7003C50.1796 99.4389 50.248 100.178 50.3575 100.916C50.4122 101.272 50.4806 101.641 50.5763 101.997C50.8773 103.228 51.2876 104.404 51.8348 105.526C52.2452 106.36 52.7239 107.127 53.2984 107.851C54.1192 108.891 55.1314 109.671 56.3352 110.191C57.3474 110.628 58.4144 110.888 59.536 110.957C60.22 111.011 60.8903 110.984 61.5605 110.888C62.3266 110.765 63.0652 110.574 63.7765 110.286C63.9407 110.218 64.1185 110.136 64.2826 110.067C64.6109 109.917 65.1034 109.63 65.7326 109.192C66.3618 108.754 66.9774 108.193 67.5519 107.496L67.5929 107.359C67.9349 106.798 68.1128 106.183 68.1128 105.485C68.1128 105.362 68.0991 105.061 68.0854 104.582C68.058 104.103 67.8802 103.584 67.5519 103.009C67.2236 102.435 66.7449 102.038 66.1156 101.805C65.4864 101.573 64.9529 101.45 64.5015 101.45C63.9133 101.463 63.3798 101.587 62.9421 101.833C62.4907 102.065 62.0256 102.27 61.5469 102.407C61.1775 102.517 60.8356 102.462 60.5209 102.243C60.0148 101.874 59.7002 101.381 59.5771 100.738C59.3993 99.8356 59.5087 98.9875 59.9327 98.1668C60.0422 97.9479 60.1926 97.7428 60.3705 97.5786C60.7398 97.223 61.1775 96.9904 61.6836 96.8536C61.9846 96.7715 62.2992 96.7032 62.6275 96.6758C63.0652 96.6211 63.5029 96.58 63.9543 96.539C64.1595 96.5253 64.3647 96.498 64.5699 96.4569C64.8298 96.4296 65.0897 96.3612 65.3359 96.2654C65.6095 96.156 65.8694 96.0055 66.1019 95.8003C66.143 95.8003 66.1703 95.7867 66.1977 95.773C67.3057 95.1711 67.9623 94.1726 68.1538 92.791C68.1538 92.7773 68.1538 92.7636 68.1675 92.7363C68.2769 92.066 68.2906 91.3547 68.1675 90.6434Z" fill="white"/>
<path d="M65.8554 91.5188C65.7323 91.0127 65.4587 90.5887 65.0621 90.2467C64.3234 89.6175 63.4616 89.2618 62.4904 89.1524C61.6286 89.0293 60.7532 89.0293 59.8914 89.1524C58.9749 89.2755 58.0858 89.5217 57.2514 89.9184C56.417 90.3151 55.6783 90.8486 55.0217 91.5052C54.2967 92.2165 53.7496 93.0372 53.3802 93.9537C53.2298 94.5419 53.093 95.1164 52.9699 95.7046C52.4227 98.2352 52.5048 100.752 53.2434 103.242C53.5581 104.295 54.0231 105.266 54.6524 106.155C55.4184 107.222 56.4306 108.002 57.6891 108.467C59.2211 109.055 60.7805 109.192 62.381 108.864C63.489 108.645 64.4055 108.111 65.1305 107.25C65.404 106.935 65.6229 106.566 65.787 106.169C65.8965 105.909 65.9512 105.636 65.9649 105.376C65.9785 105.102 65.9512 104.87 65.8965 104.664C65.8418 104.459 65.705 104.268 65.4998 104.076C65.2673 103.857 64.98 103.72 64.6517 103.679C64.5012 103.666 64.3644 103.666 64.2276 103.693C63.5711 103.762 62.9281 103.939 62.3126 104.199C61.4098 104.596 60.4659 104.651 59.4947 104.363C58.9202 104.186 58.4004 103.912 57.9353 103.543C57.7301 103.378 57.5523 103.201 57.3882 103.009C57.2377 102.818 57.1146 102.626 57.0188 102.407C56.6769 101.573 56.4717 100.711 56.4033 99.8083C56.3212 98.8508 56.417 97.9206 56.6769 97.0041C56.8 96.5937 56.9778 96.197 57.224 95.8277C57.7712 94.9933 58.5098 94.4188 59.4263 94.0905C60.2744 93.7896 61.1225 93.7759 61.9843 94.0494C62.6546 94.282 63.3522 94.3914 64.0635 94.3914C64.2824 94.3914 64.5012 94.3504 64.7201 94.2546C65.1578 94.0768 65.4861 93.7622 65.7187 93.3108C65.7734 93.215 65.8007 93.1056 65.8281 93.0098C65.9922 92.5037 65.9786 92.0113 65.8554 91.5188Z" fill="#FE451D"/>
<path d="M27.2316 98.1668C27.1222 97.8658 26.8896 97.3324 26.5476 96.5527C26.3425 96.0876 26.2467 95.773 26.2467 95.6225C26.2467 95.3215 26.3151 95.0206 26.4519 94.706C26.6844 94.1315 26.8486 93.7485 26.9033 93.5433C26.958 93.3381 26.9717 93.2423 26.9717 93.0098C26.958 91.6829 26.7939 90.6297 26.4656 89.8089C25.9321 88.4274 25.3986 87.4698 24.8651 86.9363C24.3316 86.4029 23.8118 85.9925 23.3194 85.7189C23.0595 85.5685 22.7996 85.459 22.5397 85.3633C22.4987 85.3496 22.4713 85.3359 22.4303 85.3222C21.1034 84.8435 19.2431 84.7204 16.8493 84.9529C14.4691 85.1854 12.814 85.5685 11.8975 86.1156C10.9947 86.6628 10.4338 87.2783 10.215 87.976C9.9961 88.6736 9.94139 89.2618 10.0645 89.7542C10.1876 90.233 10.4338 90.6707 10.7895 91.0264C10.9947 91.2315 11.2135 91.4094 11.4598 91.5325L12.1437 105.923C12.1847 106.867 12.2668 107.742 12.3899 108.549C12.4994 109.356 12.7456 109.985 13.1012 110.437C13.4706 110.888 14.0177 111.244 14.7427 111.531C15.4677 111.805 16.22 111.832 16.986 111.613C17.7384 111.394 18.094 111.258 18.0257 111.216C19.2294 111.23 20.1596 111.216 20.8025 111.162C22.9774 110.97 24.6873 110.368 25.9731 109.342C26.7118 108.741 27.2726 108.002 27.642 107.14C27.8471 106.648 28.025 106.114 28.1481 105.526C28.1891 104.801 28.2165 104.144 28.2165 103.556C28.2165 101.71 27.8882 99.904 27.2316 98.1668ZM21.4043 103.283C21.2676 103.638 21.1171 103.871 20.9529 103.994C20.8025 104.103 20.611 104.158 20.3784 104.158C20.1732 104.158 19.9681 104.103 19.8039 104.008C19.503 103.844 19.2841 103.529 19.1336 103.078C18.9695 102.626 18.8737 102.175 18.8601 101.723C18.8464 101.272 18.8601 100.903 18.9148 100.629C18.9832 100.355 19.0789 100.123 19.2294 99.9177C19.3662 99.7399 19.5577 99.5894 19.7902 99.4936C19.8176 99.4936 19.845 99.4799 19.8723 99.4799C20.0365 99.4663 20.2143 99.48 20.3921 99.5347C20.611 99.6031 20.8025 99.8219 20.994 100.191C21.1855 100.561 21.336 101.067 21.4454 101.737C21.5548 102.407 21.5411 102.913 21.4043 103.283Z" fill="white"/>
<path d="M21.6505 87.7439C21.1581 87.5114 20.8435 87.3746 20.6793 87.3335C20.4468 87.2788 20.2279 87.2241 20.0091 87.1694C18.2992 86.7864 16.7261 86.7317 15.3172 86.9779C13.6073 87.3062 12.6087 87.6208 12.3215 87.9628C12.0479 88.3047 11.8838 88.6057 11.8427 88.8929C11.8017 89.1802 11.8154 89.4401 11.8974 89.6863C11.9932 89.9873 12.171 90.2335 12.4446 90.425C12.6224 90.5618 12.8139 90.6438 13.0054 90.6849C13.4021 97.8663 13.662 103.338 13.7578 107.127C13.8125 108.645 14.2229 109.493 15.0162 109.699C15.3445 109.781 15.6591 109.781 15.9327 109.685C16.2063 109.603 16.4389 109.411 16.5893 109.124C16.7535 108.837 16.8629 108.495 16.9176 108.098C16.9723 107.701 16.986 105.636 16.9723 101.888C16.9587 98.3314 16.945 94.7065 16.9586 90.9858C17.3827 90.8353 17.8341 90.8353 18.3129 90.9721C18.9011 91.15 19.3388 91.4646 19.626 91.9433C19.9133 92.4358 19.9954 92.9693 19.8723 93.5575C19.7492 94.1593 19.4619 94.6107 18.9968 94.939C18.6959 95.1169 18.4633 95.2536 18.3129 95.3494C18.053 95.5135 17.8751 95.6914 17.7657 95.8692C17.5742 96.2112 17.6016 96.5805 17.8341 96.9772C18.0393 97.3465 18.3539 97.6201 18.7506 97.7979C18.9831 97.8937 19.3661 98.0031 19.927 98.1399C20.4331 98.263 20.8161 98.3861 21.076 98.5229C21.5411 98.7555 21.9241 99.1111 22.225 99.6036C22.5123 100.055 22.7038 100.547 22.7859 101.108C22.868 101.573 22.8406 102.23 22.7038 103.064C22.6081 103.653 22.3755 104.131 22.0199 104.514C21.7189 104.678 21.3906 104.802 21.0487 104.884C20.8708 104.925 20.6109 104.979 20.269 105.02C19.8996 105.075 19.6397 105.102 19.4893 105.13C18.8874 105.253 18.4497 105.472 18.1898 105.8C17.8888 106.156 17.7794 106.593 17.8751 107.113C17.9572 107.619 18.2445 107.989 18.7369 108.221C19.2294 108.454 19.7355 108.577 20.2279 108.618C20.734 108.645 21.2675 108.604 21.8284 108.495C22.3892 108.399 22.9637 108.18 23.5519 107.852C24.1401 107.524 24.6599 107.031 25.1113 106.402C25.549 105.773 25.8773 105.061 26.0962 104.282C26.3151 103.516 26.4108 102.736 26.3971 101.943C26.3698 100.917 26.1509 99.9729 25.7405 99.0974C25.2891 98.1536 24.6736 97.4286 23.8802 96.9362C23.6203 96.7857 23.4835 96.6899 23.4561 96.6763C23.3467 96.5942 23.2646 96.5121 23.1963 96.43C23.0868 96.2112 23.1689 95.9239 23.4288 95.5683C23.6477 95.1169 23.8528 94.5013 24.0443 93.6942C24.2222 92.8872 24.2495 92.0664 24.1127 91.2047C23.9623 90.3429 23.634 89.6042 23.1279 88.9887C22.6354 88.3868 22.143 87.9764 21.6505 87.7439Z" fill="#FE451D"/>
<path d="M201.489 105.305C201.393 104.895 201.201 104.512 200.914 104.156C200.654 103.828 200.326 103.541 199.943 103.308C199.3 102.911 198.466 102.651 197.467 102.542C196.756 102.46 196.031 102.446 195.292 102.515C195.265 102.337 195.265 102.159 195.306 101.981C195.333 101.817 195.374 101.694 195.443 101.598C195.484 101.53 195.579 101.448 195.716 101.352C195.826 101.27 195.921 101.202 196.003 101.16C196.386 101.133 196.852 101.092 197.385 101.037C198.178 100.928 198.876 100.723 199.464 100.422C200.162 100.052 200.654 99.56 200.942 98.9582C201.133 98.5615 201.229 98.1238 201.215 97.6176C201.215 97.1799 201.133 96.7285 200.983 96.2497C200.75 95.47 200.435 94.9502 200.039 94.6903C199.656 94.4168 199.382 94.2663 199.218 94.2116C199.054 94.1705 198.821 94.1432 198.507 94.1295C198.192 94.1295 197.645 94.1705 196.865 94.2663C196.072 94.362 195.579 94.3757 195.388 94.3073V94.0885C195.388 93.7738 195.429 93.514 195.525 93.2951C195.689 93.2404 195.867 93.213 196.086 93.1993H196.728C197.426 93.1993 198.069 93.1036 198.657 92.9258C199.327 92.7342 199.888 92.4196 200.34 92.0093C200.764 91.6263 201.078 91.1612 201.284 90.614C201.502 90.1079 201.571 89.5607 201.516 89.0136C201.461 88.4527 201.27 87.9329 200.942 87.4542C200.723 87.1259 200.449 86.8386 200.134 86.6198C199.081 86.6061 197.864 86.6471 196.51 86.7429C194.389 86.9344 192.789 87.0575 191.722 87.1259C191.12 87.1669 190.751 87.1943 190.573 87.208C190.149 87.249 189.766 87.3037 189.438 87.3721C188.726 87.5089 188.111 87.7414 187.632 88.0697C186.592 89.0546 186.456 90.1489 187.208 91.3527C187.235 91.681 187.208 92.7753 187.126 94.6356C187.057 96.496 187.003 98.1648 186.962 99.6421C186.921 101.119 186.907 101.968 186.921 102.2C186.934 102.419 186.962 102.788 186.989 103.281C187.016 103.773 187.057 104.266 187.112 104.731C187.167 105.209 187.222 105.62 187.276 105.975C187.331 106.331 187.386 106.646 187.427 106.906L187.659 107.713C187.728 107.945 187.837 108.178 187.96 108.383C188.152 108.711 188.425 108.985 188.795 109.19C189.164 109.409 189.561 109.587 189.971 109.71C190.395 109.819 191.175 109.901 192.324 109.956C193.459 109.997 194.567 109.956 195.648 109.847C196.728 109.737 197.713 109.546 198.63 109.272C199.546 109.012 200.34 108.547 200.983 107.891C201.174 107.535 201.325 107.152 201.434 106.741C201.571 106.235 201.584 105.757 201.489 105.305Z" fill="white"/>
<path d="M199.861 89.3141C199.793 88.9448 199.56 88.6438 199.177 88.3976C198.999 88.2882 198.808 88.2061 198.575 88.124C193.487 88.3566 190.696 88.507 190.231 88.5618C189.753 88.6301 189.397 88.7396 189.164 88.9174C188.945 89.0952 188.795 89.3004 188.727 89.533C188.672 89.7655 188.658 89.9844 188.686 90.1896C188.713 90.3947 188.768 90.5726 188.836 90.723C188.891 90.8325 189.014 90.9419 189.192 91.0513C188.918 96.605 189.082 102.145 189.711 107.644C189.835 107.822 189.999 107.959 190.204 108.082C190.409 108.205 190.655 108.3 190.943 108.369C191.161 108.41 191.421 108.451 191.736 108.465C192.201 108.492 192.83 108.451 193.61 108.355C194.39 108.259 195.005 108.205 195.457 108.164C195.908 108.123 196.442 108.082 197.043 108.027C197.645 107.959 198.097 107.849 198.398 107.685C198.685 107.521 198.904 107.329 199.054 107.11C199.191 106.905 199.287 106.659 199.355 106.385C199.424 106.057 199.341 105.743 199.136 105.428C198.945 105.141 198.74 104.963 198.507 104.867C198.288 104.785 198.015 104.73 197.7 104.703C197.385 104.676 196.866 104.676 196.113 104.676C195.375 104.676 194.718 104.703 194.171 104.73C193.624 104.771 193.254 104.785 193.063 104.758C192.885 103.007 192.803 101.256 192.83 99.5049C193.104 99.3544 193.446 99.2724 193.843 99.2587C193.966 99.2587 194.431 99.286 195.238 99.3408C195.908 99.3681 196.565 99.3134 197.221 99.1766C197.44 99.1356 197.632 99.0809 197.782 99.0125C197.974 98.9304 198.124 98.8073 198.233 98.6705C198.357 98.52 198.439 98.3285 198.48 98.1097C198.507 97.9592 198.521 97.7403 198.507 97.4668C198.507 97.2205 198.493 97.029 198.466 96.8786C198.411 96.6734 198.329 96.4955 198.22 96.3588C198.083 96.1946 197.878 96.0852 197.618 96.0305C197.426 95.9894 197.18 95.9757 196.866 95.9894C195.949 96.0031 194.677 96.0168 193.076 96.0441C192.953 94.5531 192.94 93.0621 193.049 91.5711C193.706 91.5438 194.417 91.5027 195.169 91.4617C196.551 91.3933 197.426 91.3249 197.782 91.2839C198.151 91.2292 198.48 91.1334 198.767 90.9966C199.109 90.8325 199.382 90.5999 199.588 90.2853C199.861 89.9844 199.93 89.6561 199.861 89.3141Z" fill="#FE451D"/>
<path d="M166.867 97.4704C166.826 97.0053 166.662 96.6086 166.375 96.2803C166.334 96.2393 166.238 96.1436 166.087 96.0068L166.074 95.9794C166.06 95.9521 166.046 95.911 166.033 95.8289L165.978 95.6101C165.951 95.5143 165.923 95.4186 165.91 95.3502C165.896 94.9808 165.841 94.5158 165.773 93.9276C165.691 93.2163 165.65 92.4502 165.65 91.6021C165.663 90.8361 165.732 90.0427 165.868 89.2357C166.019 88.4286 166.087 87.8815 166.087 87.5805C166.087 87.0471 165.937 86.4862 165.622 85.9117C165.308 85.2825 164.884 84.8037 164.364 84.4754C162.996 83.5999 161.491 83.983 159.85 85.6108C159.754 85.7065 159.658 85.816 159.59 85.9254C159.303 86.1579 159.043 86.9513 158.837 88.3329C158.619 89.7144 158.496 91.096 158.454 92.4913C158.427 93.8865 158.099 94.4474 157.497 94.1875C157.182 93.271 157.155 92.1493 157.442 90.7951C157.812 89.0031 157.524 87.348 156.567 85.8433C156.389 85.6928 156.184 85.5971 155.938 85.556C155.637 85.5013 155.336 85.4466 155.048 85.3919C154.501 85.2961 154.05 85.2551 153.681 85.2551C153.202 85.2551 152.832 85.2962 152.559 85.3782C152.367 85.3372 152.08 85.4056 151.683 85.5834C151.027 85.8707 150.616 86.1169 150.48 86.3221C150.069 86.8555 149.823 87.3617 149.741 87.8267C149.714 87.9635 149.673 88.4697 149.618 89.3314C149.563 90.1522 149.536 90.6583 149.536 90.8635C149.536 90.9729 149.563 91.4243 149.618 92.2177C149.673 93.0111 149.7 93.7361 149.7 94.3926V95.8289C149.686 95.8563 149.659 96.1162 149.618 96.595C149.577 96.9233 149.495 97.1695 149.399 97.3063C149.002 97.9081 148.729 98.3322 148.551 98.6058C148.209 98.9751 147.976 99.3308 147.84 99.6864C147.662 100.151 147.58 100.726 147.621 101.396C147.634 102.067 147.703 102.614 147.826 103.051C147.935 103.489 148.045 103.913 148.141 104.296C148.236 104.693 148.346 104.898 148.469 104.925C148.578 104.953 148.783 105.062 149.071 105.254C149.084 105.295 149.084 105.322 149.098 105.336C149.153 107.073 149.317 108.578 149.577 109.85C149.591 109.905 149.604 109.959 149.618 110.014C149.7 110.247 149.796 110.493 149.878 110.78L149.891 110.807C149.919 110.835 149.946 110.862 149.974 110.903C150.097 111.149 150.274 111.396 150.534 111.642C151.136 112.216 151.902 112.545 152.805 112.586L154.077 112.709C155.199 112.586 156.047 111.929 156.608 110.739C157.182 109.549 157.346 108.277 157.114 106.923C156.881 105.568 156.895 104.583 157.141 103.995C157.511 103.133 157.853 103.175 158.154 104.105C158.154 104.132 158.154 104.146 158.167 104.173C158.236 104.57 158.277 105.021 158.29 105.555C158.304 105.664 158.304 106.129 158.304 106.95C158.318 107.524 158.331 107.99 158.359 108.345C158.4 108.851 158.482 109.316 158.605 109.713C158.892 110.725 159.385 111.491 160.11 112.011C160.315 112.148 160.52 112.244 160.725 112.298C160.999 112.394 161.327 112.449 161.696 112.449C162.421 112.449 163.064 112.326 163.652 112.093C164.583 111.724 165.143 111.3 165.335 110.835C165.458 110.616 165.526 110.383 165.554 110.123C165.595 110 165.704 109.563 165.868 108.81C166.101 107.825 166.156 106.211 166.019 103.995C165.992 103.53 165.978 103.325 165.992 103.421C165.937 102.792 165.91 102.422 165.91 102.313C165.91 102.272 165.882 102.135 165.855 101.875C165.841 101.684 165.827 101.41 165.827 101.027V100.931C165.937 100.398 166.087 99.9463 166.279 99.5496C166.306 99.4949 166.375 99.3581 166.498 99.1529C166.58 98.9888 166.648 98.8657 166.689 98.7562C166.853 98.3459 166.922 97.9081 166.867 97.4704Z" fill="white"/>
<path d="M164.077 86.3632C163.639 85.8707 163.078 85.6245 162.408 85.6245C161.122 85.6245 160.479 86.3632 160.479 87.8405C160.479 88.5108 160.37 91.5201 160.137 96.8413L155.076 97.9492C155.103 96.4856 155.172 95.0493 155.309 93.613C155.705 92.2588 155.897 91.0824 155.897 90.0838C155.897 88.1004 155.268 87.1155 153.982 87.1155C153.229 87.1155 152.628 87.5396 152.19 88.3877C151.862 89.0716 151.684 89.8103 151.656 90.6173C151.615 94.1328 151.588 96.8413 151.588 98.729C150.22 99.2077 149.536 100.042 149.536 101.246C149.536 102.409 150.152 102.997 151.383 102.997H151.52C151.479 105.883 151.451 107.894 151.438 109.043C151.41 110.452 152.026 111.149 153.27 111.149C153.927 111.149 154.447 110.903 154.844 110.438C155.254 109.973 155.459 109.412 155.445 108.756C155.268 105.158 155.145 102.764 155.076 101.574C156.376 101.205 158.003 100.89 159.959 100.63C159.823 103.913 159.741 106.129 159.741 107.278C159.741 108.154 159.918 108.933 160.26 109.617C160.698 110.493 161.327 110.931 162.148 110.931C162.969 110.931 163.584 110.493 163.981 109.617C164.255 108.961 164.405 108.181 164.405 107.251C164.405 106.334 164.268 105.295 164.008 104.118C163.94 102.997 163.913 101.643 163.926 100.042C164.569 99.7549 164.898 99.0846 164.898 98.045C164.898 97.1285 164.624 96.5403 164.077 96.2667C164.186 94.1191 164.378 91.4107 164.651 88.1414C164.706 87.4438 164.515 86.8419 164.077 86.3632Z" fill="#FE451D"/>
<path d="M90.6641 85.359C90.1853 84.7981 89.4877 84.4562 88.5575 84.3331C87.9146 84.251 86.492 84.292 84.276 84.4425C82.06 84.593 80.2544 84.8392 78.8454 85.1538C77.4365 85.4547 76.2328 85.8104 75.2342 86.2071C74.1399 86.6311 72.9909 87.1646 71.8008 87.7938C70.2003 88.6283 69.3112 89.3943 69.1334 90.0509C68.9556 90.7075 68.9145 91.364 68.9966 92.0343C69.0787 92.7046 69.2975 93.2654 69.6395 93.7442C69.9268 94.1546 70.2961 94.5102 70.7065 94.8112C70.515 97.0135 70.3508 99.462 70.214 102.157C70.0772 104.838 70.1046 106.849 70.2687 108.217C70.4329 109.571 70.8706 110.597 71.6093 111.322C72.3343 112.033 73.2508 112.348 74.3861 112.252C75.5215 112.156 76.3422 111.951 76.862 111.595C77.3681 111.253 77.7648 110.816 78.0658 110.282C78.353 109.762 78.6403 107.3 78.9138 102.909C79.1053 99.7629 79.2695 97.7658 79.3789 96.9314C79.4063 96.9451 79.42 96.9724 79.4473 97.0135C79.5568 97.1639 79.6115 97.3281 79.6251 97.5332L80.1723 104.085C80.2681 105.221 80.3775 106.069 80.4732 106.657C80.6511 107.601 80.9383 108.558 81.3487 109.543C81.7454 110.528 82.3336 111.226 83.0996 111.623C83.8519 112.019 84.659 112.17 85.4934 112.047C86.3278 111.937 86.9571 111.568 87.4085 110.952C87.8599 110.337 88.2292 109.434 88.5301 108.23C88.749 107.327 88.8858 106.643 88.9132 106.165C88.749 100.857 88.6533 97.629 88.6533 96.4937C88.6259 95.3446 88.5985 94.647 88.5849 94.3871C88.5575 94.1272 88.5301 93.8263 88.5028 93.4843C88.4481 93.0192 88.4207 92.431 88.4207 91.6923C88.9405 91.2683 89.3646 90.9126 89.6655 90.6117C90.1716 90.1056 90.5683 89.5858 90.8419 89.066C91.1565 88.4368 91.307 87.8075 91.307 87.1509C91.2933 86.4396 91.0744 85.8377 90.6641 85.359Z" fill="white"/>
<path d="M86.314 90.7758C87.1758 90.5569 87.9555 90.2012 88.6531 89.7225C89.3507 89.2437 89.6243 88.5734 89.4602 87.7254C89.296 86.8773 88.954 86.3027 88.4342 86.0292C87.9008 85.7556 87.2168 85.6462 86.3687 85.6735C85.0145 85.7145 83.7424 85.824 82.566 85.9881C81.5264 86.1523 80.4868 86.3575 79.4472 86.5626C78.2297 86.8499 76.9986 87.1919 75.7675 87.6022C74.5227 88.0126 73.4558 88.4777 72.5666 88.9838C71.6775 89.4899 71.1167 90.2012 70.8841 91.1314C70.6379 92.0479 70.9936 92.6498 71.9511 92.937L72.3341 92.9781C72.3204 93.0465 72.3204 93.1149 72.3204 93.1833C72.3068 93.3337 72.2384 94.0861 72.1016 95.4129C72.1016 95.4676 72.0879 95.536 72.0742 95.6044C71.9374 96.9313 71.7459 98.7916 71.5407 101.213C71.2945 103.743 71.4176 105.959 71.9101 107.888C72.4025 109.803 73.3327 110.556 74.6869 110.118C76.0411 109.68 76.684 108.422 76.6019 106.342C76.5335 104.263 76.5062 102.061 76.5335 99.7218C76.5199 97.3827 76.5883 95.0983 76.6977 92.8686V92.7318C78.3939 91.9385 80.0354 91.4597 81.6084 91.2956C81.5537 91.6512 81.5537 92.4309 81.5948 93.6347C81.6632 94.8521 81.7315 96.5483 81.7999 98.7232C81.8547 100.898 81.9367 103.018 82.0188 105.043C82.1146 107.081 82.3608 108.476 82.7575 109.229C83.1405 109.967 83.9612 110.309 85.2197 110.255C86.4645 110.2 87.0527 108.969 86.9843 106.575C86.9159 104.181 86.8201 101.76 86.7107 99.3114C86.6012 96.8629 86.5192 95.0162 86.4234 93.7578C86.3414 92.4993 86.3003 91.5144 86.314 90.7758Z" fill="#FE451D"/>
<path d="M127.869 89.3038C127.664 88.5515 127.404 88.0043 127.062 87.6623C127.021 87.6213 126.967 87.5666 126.912 87.5255C126.802 87.4298 126.283 87.1973 125.393 86.8006C124.504 86.4176 123.136 86.1166 121.276 85.8704C119.429 85.6515 117.843 85.46 116.557 85.2822C115.271 85.0907 114.368 85.0633 113.876 85.1864C113.37 85.3096 112.946 85.4874 112.59 85.7199C112.248 85.9525 111.851 86.4586 111.4 87.2246C110.948 88.0043 111.373 89.3038 112.631 91.1642C113.438 91.5472 113.985 91.8755 114.272 92.1627C114.218 93.6948 114.19 95.5277 114.19 95.5277H114.149C114.136 95.6782 114.122 95.815 114.122 95.9518C114.108 96.2801 114.095 96.6084 114.04 96.9367C114.026 97.2239 114.013 97.5112 114.013 97.8121C113.985 98.8654 113.917 99.8913 113.848 100.931C113.78 101.793 113.739 102.641 113.712 103.516C113.698 103.968 113.684 104.405 113.684 104.843C113.657 105.295 113.657 105.76 113.643 106.211C113.643 106.526 113.63 106.84 113.63 107.155V107.866C113.63 108.263 113.657 108.673 113.725 109.056C113.753 109.207 113.78 109.371 113.821 109.535C113.848 109.631 113.862 109.74 113.889 109.836C113.903 109.863 113.944 109.932 114.04 110.096C114.136 110.246 114.505 110.602 115.189 111.135C115.873 111.669 117.063 111.737 118.759 111.341L118.677 111.3L118.773 111.341C118.841 111.313 118.91 111.3 118.978 111.272C120.113 110.999 120.852 110.342 121.221 109.289C121.249 109.207 121.262 109.138 121.276 109.056C121.303 108.947 121.317 108.837 121.317 108.728V107.702L121.454 106.922V106.58C121.454 106.58 121.386 106.184 121.317 105.978V105.842V105.705C121.386 105.541 121.372 105.363 121.372 105.185C121.372 105.007 121.358 104.829 121.454 104.652V104.419C121.358 104.241 121.372 104.077 121.372 103.913C121.372 103.612 121.386 103.311 121.386 103.01C121.386 102.778 121.399 102.545 121.413 102.326C121.427 102.08 121.427 101.834 121.44 101.588C121.454 101.205 121.468 100.821 121.468 100.425C121.468 100.151 121.481 99.8913 121.481 99.6177C121.495 99.3442 121.509 99.0706 121.509 98.8107C121.522 98.5508 121.536 98.1131 121.522 97.4975C121.522 96.882 121.591 95.5688 121.741 93.5853C122.904 93.8999 124.149 94.0094 125.448 93.941C127.008 93.6127 127.842 92.45 127.965 90.4802C127.938 89.9057 127.924 89.5227 127.869 89.3038Z" fill="white"/>
<path d="M126.146 91.0003C126.255 90.5079 126.173 90.0155 125.913 89.5367C125.64 89.0442 125.434 88.7296 125.257 88.6065C125.079 88.4834 124.805 88.3603 124.436 88.2235C124.053 88.1004 123.629 87.9773 123.15 87.8542C122.671 87.7447 122.165 87.6353 121.659 87.5396C121.139 87.4438 120.442 87.348 119.593 87.2523C118.732 87.1565 117.925 87.0471 117.159 86.9377C116.57 86.8693 115.982 86.8283 115.394 86.8146C114.806 86.8009 114.354 86.8419 114.026 86.9377C113.876 86.9787 113.753 87.0334 113.629 87.1292C113.424 87.2933 113.274 87.5122 113.178 87.7584C113.082 88.032 113.014 88.3329 112.973 88.6202C112.863 89.6735 113.26 90.3985 114.177 90.7815C114.587 90.8909 114.984 90.9593 115.339 90.9867C115.736 91.014 116.146 91.0551 116.543 91.0961L115.914 99.9874L115.531 107.593C115.544 107.771 115.558 107.962 115.572 108.14C115.585 108.222 115.627 108.345 115.695 108.564C115.777 108.769 115.941 108.974 116.201 109.193C116.461 109.412 116.707 109.563 116.981 109.658C117.254 109.754 117.46 109.809 117.61 109.823C117.76 109.85 117.966 109.836 118.239 109.795C118.513 109.768 118.704 109.645 118.855 109.467C119.005 109.303 119.087 109.043 119.128 108.728C119.169 108.4 119.197 108.072 119.224 107.743C119.238 107.415 119.251 106.964 119.279 106.417C119.306 105.869 119.32 105.213 119.361 104.447C119.361 104.337 119.375 104.228 119.375 104.118C119.402 102.846 119.443 101.574 119.484 100.316C119.525 99.3992 119.566 98.4964 119.58 97.5662C119.607 96.8686 119.621 96.1573 119.634 95.4597C119.648 95.3913 119.648 95.3229 119.648 95.2545C119.662 94.9262 119.675 94.5842 119.675 94.2696C119.689 93.9687 119.703 93.6677 119.717 93.3668C119.744 93.0659 119.744 92.7649 119.744 92.4366C119.758 92.1083 119.771 91.78 119.826 91.4244C119.867 91.4107 119.949 91.4244 120.086 91.4381C120.277 91.4654 120.578 91.5065 120.989 91.5612C121.399 91.6159 121.891 91.6706 122.452 91.7116C123.013 91.7664 123.547 91.8211 124.039 91.8895C124.532 91.9579 124.983 91.9442 125.407 91.8347C125.776 91.78 126.036 91.4928 126.146 91.0003Z" fill="#FE451D"/>
<path d="M145.572 87.3746C145.531 86.7728 145.49 86.3077 145.449 86.0067C145.353 85.5006 145.203 85.0766 144.998 84.7209C144.751 84.3106 144.245 83.9549 143.493 83.6676C143.028 83.4898 142.522 83.3804 141.92 83.353C141.879 83.353 141.852 83.353 141.824 83.3394C141.592 83.3257 141.345 83.3394 141.099 83.3667C139.376 83.6266 137.857 85.0629 136.571 87.6893C135.094 90.6713 133.89 93.3387 132.96 95.6641C132.317 95.6914 131.674 95.8693 131.059 96.1702C130.416 96.4712 129.869 96.8952 129.431 97.4013L129.335 98.0989C128.692 100.041 128.774 101.355 129.595 102.038C129.896 102.203 130.129 102.312 130.32 102.353C130.512 102.38 130.525 102.476 130.389 102.586C130.252 102.695 129.951 103.352 129.472 104.569C129.007 105.787 128.747 106.949 128.733 108.057C128.747 108.509 128.911 109.193 129.253 110.123C129.595 111.053 130.539 111.545 132.071 111.627C132.55 111.764 133.165 111.723 133.89 111.518C134.629 111.313 135.286 110.861 135.887 110.15C136.476 109.439 136.968 108.495 137.337 107.319C137.502 106.771 137.652 106.347 137.789 106.019C137.844 105.882 137.898 105.759 137.953 105.622C138.062 105.978 138.145 106.416 138.227 106.895C138.281 107.223 138.363 107.989 138.514 109.193C138.651 110.369 139.047 111.313 139.649 111.997C140.265 112.681 141.222 113.077 142.535 113.214C143.835 113.337 144.888 112.954 145.682 112.01C146.311 111.272 146.708 110.109 146.899 108.481V108.454C146.147 96.2796 145.695 89.2623 145.572 87.3746Z" fill="white"/>
<path d="M142.617 85.9788C142.125 85.7326 141.673 85.6368 141.304 85.6642C140.935 85.6915 140.62 85.8147 140.333 86.0062C140.046 86.2113 139.854 86.3892 139.731 86.5533C139.704 86.6217 139.663 86.6901 139.622 86.7585C137.624 90.4518 135.874 94.1178 134.328 97.7837C133.89 97.7837 133.507 97.8111 133.192 97.8795C132.686 97.9753 132.262 98.1394 131.893 98.3856C131.483 98.6592 131.195 99.0285 131.045 99.5073C130.867 99.9997 130.894 100.424 131.127 100.807C131.264 101.012 131.442 101.176 131.674 101.313C131.893 101.436 132.153 101.518 132.426 101.545C132.536 101.559 132.659 101.573 132.796 101.573C132.276 102.927 131.797 104.268 131.332 105.622C131.182 106.073 131.059 106.429 131.004 106.702C130.908 107.099 130.881 107.482 130.922 107.81C130.963 108.193 131.113 108.549 131.36 108.864C131.606 109.206 131.907 109.425 132.29 109.534C132.659 109.643 133.056 109.616 133.466 109.452C133.849 109.301 134.191 109.069 134.465 108.768C134.697 108.508 134.902 108.18 135.08 107.783C135.19 107.551 135.326 107.195 135.504 106.716C135.969 105.376 136.599 103.556 137.392 101.245C137.488 101.245 137.583 101.231 137.693 101.231C138.336 101.217 139.17 101.19 140.182 101.176C140.196 103.502 140.319 105.594 140.524 107.468C140.743 109.397 141.208 110.478 141.933 110.71C142.658 110.943 143.151 110.998 143.452 110.875C143.753 110.751 144.026 110.505 144.3 110.136C144.573 109.753 144.71 109.397 144.724 109.042C144.738 108.686 144.751 108.248 144.751 107.715C144.751 107.181 144.642 105.964 144.464 104.049C144.3 102.435 144.122 100.273 143.944 97.5649C143.78 94.8428 143.671 92.4763 143.63 90.4792C143.588 88.4821 143.547 87.292 143.493 86.9227C143.424 86.5123 143.137 86.2114 142.617 85.9788ZM140.169 97.6606C139.663 97.6606 139.143 97.688 138.623 97.7017C139.061 96.4295 139.553 95.048 140.059 93.5569C140.114 94.9248 140.155 96.2927 140.169 97.6606Z" fill="#FE451D"/>
<path d="M185.584 87.964C185.557 87.8683 185.529 87.7725 185.488 87.6768C185.037 86.2952 184.23 85.4471 183.094 85.1598C182.534 85.0094 181.85 85.2145 181.015 85.748C180.194 86.2678 179.552 86.9107 179.086 87.6768C178.594 88.5248 178.143 89.4003 177.746 90.3031C177.732 90.3305 177.5 90.6724 177.035 91.329C177.021 90.6998 177.007 90.0569 177.007 89.4003C177.007 88.3744 176.925 87.5947 176.775 87.0612C176.405 85.8027 175.626 85.2556 174.463 85.4471C173.916 85.4608 173.382 85.4881 172.876 85.5428C171.891 85.6249 171.248 85.7754 170.961 85.9806C170.537 86.09 170.222 86.2815 170.017 86.5414C169.826 86.8013 169.662 87.0338 169.525 87.239C169.156 88.3607 168.937 89.5097 168.855 90.6861C168.786 91.9446 168.718 93.203 168.677 94.4615C168.595 97.0879 168.376 99.6869 168.048 102.286L167.774 103.421C167.459 104.502 167.528 106.225 167.993 108.565L168.184 109.071C168.458 109.755 168.937 110.439 169.621 111.109C169.703 111.164 169.785 111.218 169.88 111.259C170.387 111.519 171.18 111.656 172.233 111.656C172.425 111.656 172.603 111.642 172.78 111.601C172.917 111.574 173.587 111.382 174.805 110.999C176.009 110.603 177.089 109.686 178.047 108.25C178.074 108.195 178.115 108.154 178.143 108.113C178.102 108.428 178.279 108.989 178.676 109.809C179.196 110.876 180.29 111.464 181.959 111.574C183.628 111.683 184.695 111.396 185.16 110.739C185.433 110.37 185.557 109.837 185.557 109.153C185.557 108.865 185.543 108.469 185.516 107.949C185.392 106.649 185.338 105.336 185.351 104.037C185.365 102.669 185.379 101.315 185.42 99.9468C185.461 98.5789 185.516 97.211 185.611 95.8431C185.693 94.5436 185.789 93.2304 185.885 91.9172C185.994 90.5767 185.885 89.2635 185.584 87.964Z" fill="white"/>
<path d="M184.311 90.7139C184.38 89.7974 184.311 89.004 184.106 88.3337C183.805 87.3899 183.244 86.9111 182.424 86.9111C181.329 86.9111 180.372 87.8687 179.578 89.7837C178.58 92.2596 177.595 94.7492 176.61 97.2387C174.859 101.425 173.765 103.709 173.314 104.119V103.873C173.3 102.245 173.573 99.8241 174.148 96.6232C174.709 93.436 174.996 91.0559 174.996 89.4691C174.996 88.8125 174.805 88.238 174.422 87.7729C174.039 87.3078 173.532 87.089 172.889 87.089C171.795 87.089 171.07 87.7045 170.742 88.9219C170.687 90.6592 170.455 93.4634 170.031 97.3755C169.634 100.973 169.442 103.777 169.442 105.761C169.442 107.252 169.661 108.401 170.113 109.194C170.523 109.892 171.015 110.179 171.576 110.056C173.177 109.728 174.668 108.51 176.063 106.39L176.829 105.132C177.034 104.748 177.239 104.352 177.445 103.941C178.347 102.136 179.373 99.3863 180.536 95.7067C180.673 95.3784 180.769 95.1322 180.823 94.968C180.837 95.1048 180.837 95.2416 180.823 95.3784C180.728 97.6081 180.645 99.8378 180.536 102.067C180.427 104.735 180.235 106.964 179.962 108.756C180.728 109.878 181.466 110.439 182.177 110.439C183.19 110.439 183.764 109.687 183.928 108.168C183.751 106.458 183.655 104.612 183.655 102.642C183.655 100.057 183.874 96.076 184.311 90.7139Z" fill="#FE451D"/>
<path d="M110.076 87.964C110.049 87.8683 110.021 87.7725 109.98 87.6768C109.529 86.2952 108.722 85.4471 107.587 85.1598C107.026 85.0094 106.342 85.2145 105.507 85.748C104.687 86.2678 104.044 86.9107 103.579 87.6768C103.086 88.5248 102.635 89.4003 102.238 90.3031C102.224 90.3305 101.992 90.6724 101.527 91.329C101.513 90.6998 101.499 90.0569 101.499 89.4003C101.499 88.3744 101.417 87.5947 101.267 87.0612C100.898 85.8027 100.118 85.2556 98.9551 85.4471C98.408 85.4608 97.8745 85.4881 97.3684 85.5428C96.3835 85.6249 95.7406 85.7754 95.4533 85.9806C95.0293 86.09 94.7147 86.2815 94.5095 86.5414C94.318 86.8013 94.1538 87.0338 94.017 87.239C93.6477 88.3607 93.4288 89.5097 93.3468 90.6861C93.2784 91.9446 93.21 93.203 93.1689 94.4615C93.0869 97.0879 92.868 99.6869 92.5397 102.286L92.2661 103.421C91.9515 104.502 92.0199 106.225 92.485 108.565L92.6765 109.071C92.9501 109.755 93.4288 110.439 94.1128 111.109C94.1949 111.164 94.2769 111.218 94.3727 111.259C94.8788 111.519 95.6722 111.656 96.7255 111.656C96.917 111.656 97.0948 111.642 97.2726 111.601C97.4094 111.574 98.0797 111.382 99.2971 110.999C100.501 110.603 101.581 109.686 102.539 108.25C102.566 108.195 102.607 108.154 102.635 108.113C102.594 108.428 102.772 108.989 103.168 109.809C103.688 110.876 104.782 111.464 106.451 111.574C108.12 111.683 109.187 111.396 109.652 110.739C109.926 110.37 110.049 109.837 110.049 109.153C110.049 108.865 110.035 108.469 110.008 107.949C109.885 106.649 109.83 105.336 109.844 104.037C109.857 102.669 109.871 101.315 109.912 99.9468C109.953 98.5789 110.008 97.211 110.103 95.8431C110.186 94.5436 110.281 93.2304 110.377 91.9172C110.486 90.5767 110.377 89.2635 110.076 87.964Z" fill="white"/>
<path d="M108.804 90.7139C108.872 89.7974 108.804 89.004 108.598 88.3337C108.297 87.3899 107.737 86.9111 106.916 86.9111C105.822 86.9111 104.864 87.8687 104.071 89.7837C103.072 92.2596 102.087 94.7492 101.102 97.2387C99.3514 101.425 98.2571 103.709 97.8057 104.119V103.873C97.792 102.245 98.0656 99.8241 98.6401 96.6232C99.201 93.436 99.4882 91.0559 99.4882 89.4691C99.4882 88.8125 99.2967 88.238 98.9137 87.7729C98.5307 87.3078 98.0246 87.089 97.3817 87.089C96.2874 87.089 95.5624 87.7045 95.2341 88.9219C95.1794 90.6592 94.9468 93.4634 94.5228 97.3755C94.1261 100.973 93.9346 103.777 93.9346 105.761C93.9346 107.252 94.1534 108.401 94.6048 109.194C95.0152 109.892 95.5077 110.179 96.0685 110.056C97.6689 109.728 99.1599 108.51 100.555 106.39L101.321 105.132C101.526 104.748 101.732 104.352 101.937 103.941C102.84 102.136 103.865 99.3863 105.028 95.7067C105.165 95.3784 105.261 95.1322 105.315 94.968C105.329 95.1048 105.329 95.2416 105.315 95.3784C105.22 97.6081 105.138 99.8378 105.028 102.067C104.919 104.735 104.727 106.964 104.454 108.756C105.22 109.878 105.958 110.439 106.67 110.439C107.682 110.439 108.256 109.687 108.421 108.168C108.243 106.458 108.147 104.612 108.147 102.642C108.147 100.057 108.366 96.076 108.804 90.7139Z" fill="#FE451D"/>
<path d="M49.252 92.3329C49.2246 91.7584 49.1562 91.2113 49.0468 90.6915L48.5954 89.1731C48.7185 89.0226 48.7869 88.8585 48.7732 88.6806C48.5954 85.9312 47.0907 84.2897 44.2865 83.7699C41.879 83.3595 39.6083 83.7289 37.4744 84.8779C35.2447 85.9996 33.4665 87.6821 32.1396 89.9528C30.5665 92.6475 29.568 95.5612 29.1713 98.7073C28.8156 101.594 29.0619 104.507 29.91 107.448C30.7717 110.389 32.3311 112.14 34.5745 112.728C36.8178 113.316 38.8423 113.33 40.6206 112.783C42.4125 112.249 44.2455 110.362 46.1332 107.12C46.9676 105.465 47.6242 103.878 48.0756 102.36C49.0468 99.0903 49.4298 95.739 49.252 92.3329ZM38.172 98.9535C38.5687 96.0673 39.2937 94.1249 40.3333 93.1126C41.3729 92.1004 41.7286 92.9074 41.3866 95.5338C41.3182 96.5734 41.0036 97.8182 40.4291 99.2545C38.5277 101.936 37.7754 101.84 38.172 98.9535ZM47.036 85.9722C47.0907 86.0543 47.1181 86.15 47.1181 86.2595L47.036 85.9722Z" fill="white"/>
<path d="M47.0767 90.1579L46.1191 87.4358C46.5842 87.2716 46.8578 87.0938 46.9125 86.9023C47.0493 86.4783 46.9672 86.1637 46.6389 85.9858C44.5597 84.8505 42.289 84.7274 39.8268 85.6028C38.9787 85.9721 38.2127 86.5056 37.5288 87.2033C35.9146 88.8721 34.6015 90.8145 33.5755 93.0305C33.4388 93.3177 33.3156 93.6187 33.1925 93.9196C33.1515 93.988 33.1241 94.0564 33.0831 94.1248C32.0709 96.3271 31.4006 98.6115 31.0997 100.937C30.7987 103.262 30.9902 105.328 31.6468 107.12C32.3034 108.898 33.5345 110.198 35.3401 111.005C37.1321 111.812 39.0198 111.319 40.9759 109.527C42.9593 107.735 44.423 105.738 45.3668 103.563C45.4352 103.399 45.5173 103.221 45.5993 103.043C45.6814 102.866 45.7772 102.674 45.8593 102.469C46.8031 100.294 47.3503 98.0917 47.5144 95.8894C47.6785 93.7008 47.5281 91.7857 47.0767 90.1579ZM40.2235 89.474C41.906 88.5028 43.1371 88.9952 43.9032 90.9239C44.6692 92.839 44.6555 95.2054 43.8621 98.0096C43.6022 98.6799 43.3423 99.3502 43.0961 100.02C42.9183 100.486 42.7404 100.937 42.5763 101.361C42.0428 102.483 41.482 103.454 40.8938 104.288C39.8815 105.684 38.6231 106.258 37.1047 106.012C35.5864 105.766 34.9161 104.11 35.0939 101.033C35.2581 98.1327 35.7642 95.6295 36.5986 93.5093C37.5014 91.6763 38.7188 90.3357 40.2235 89.474Z" fill="#FE451D"/>
<path d="M159.631 71.1079C159.536 70.6976 159.344 70.3146 159.057 69.9589C158.797 69.6306 158.469 69.3433 158.086 69.1108C157.443 68.7141 156.608 68.4542 155.61 68.3448C154.898 68.2627 154.173 68.249 153.435 68.3174C153.407 68.1396 153.407 67.9618 153.448 67.784C153.476 67.6198 153.517 67.4967 153.585 67.4009C153.626 67.3325 153.722 67.2505 153.859 67.1547C153.968 67.0726 154.064 67.0043 154.146 66.9632C154.529 66.9359 154.994 66.8948 155.528 66.8401C156.321 66.7307 157.019 66.5255 157.607 66.2246C158.304 65.8552 158.797 65.3628 159.084 64.7609C159.276 64.3642 159.371 63.9265 159.358 63.4204C159.358 62.9826 159.276 62.5312 159.125 62.0525C158.893 61.2728 158.578 60.753 158.181 60.4931C157.798 60.2195 157.525 60.069 157.361 60.0143C157.196 59.9733 156.964 59.9459 156.649 59.9322C156.335 59.9322 155.787 59.9733 155.008 60.069C154.214 60.1648 153.722 60.1785 153.53 60.1101V59.8912C153.53 59.5766 153.571 59.3167 153.667 59.0978C153.831 59.0431 154.009 59.0157 154.228 59.0021H154.871C155.569 59.0021 156.212 58.9063 156.8 58.7285C157.47 58.537 158.031 58.2224 158.482 57.812C158.906 57.429 159.221 56.9639 159.426 56.4167C159.645 55.9106 159.713 55.3635 159.659 54.8163C159.604 54.2555 159.412 53.7357 159.084 53.2569C158.865 52.9286 158.592 52.6413 158.277 52.4225C157.224 52.4088 156.006 52.4498 154.652 52.5456C152.532 52.7371 150.931 52.8602 149.864 52.9286C149.263 52.9696 148.893 52.997 148.715 53.0107C148.291 53.0517 147.908 53.1064 147.58 53.1748C146.869 53.3116 146.253 53.5442 145.774 53.8725C144.735 54.8573 144.598 55.9517 145.35 57.1554C145.378 57.4837 145.35 58.578 145.268 60.4384C145.2 62.2987 145.145 63.9675 145.104 65.4448C145.063 66.9222 145.05 67.7703 145.063 68.0028C145.077 68.2217 145.104 68.591 145.132 69.0835C145.159 69.5759 145.2 70.0683 145.255 70.5334C145.309 71.0122 145.364 71.4226 145.419 71.7782C145.474 72.1339 145.528 72.4485 145.569 72.7084L145.802 73.5154C145.87 73.748 145.98 73.9805 146.103 74.1857C146.294 74.514 146.568 74.7876 146.937 74.9928C147.307 75.2116 147.703 75.3895 148.114 75.5126C148.538 75.622 149.317 75.7041 150.466 75.7588C151.602 75.7998 152.71 75.7588 153.79 75.6494C154.871 75.5399 155.856 75.3484 156.772 75.0748C157.689 74.8149 158.482 74.3498 159.125 73.6933C159.317 73.3376 159.467 72.9546 159.577 72.5442C159.713 72.0381 159.727 71.5593 159.631 71.1079Z" fill="white"/>
<path d="M158.004 55.1168C157.935 54.7475 157.703 54.4466 157.32 54.2003C157.142 54.0909 156.951 54.0088 156.718 53.9268C151.629 54.1593 148.839 54.3098 148.374 54.3645C147.895 54.4329 147.539 54.5423 147.307 54.7201C147.088 54.898 146.938 55.1032 146.869 55.3357C146.814 55.5682 146.801 55.7871 146.828 55.9923C146.855 56.1975 146.91 56.3753 146.979 56.5258C147.033 56.6352 147.156 56.7446 147.334 56.8541C147.061 62.4077 147.225 67.9477 147.854 73.4466C147.977 73.6244 148.141 73.7612 148.346 73.8844C148.552 74.0075 148.798 74.1032 149.085 74.1716C149.304 74.2126 149.564 74.2537 149.879 74.2674C150.344 74.2947 150.973 74.2537 151.753 74.1579C152.532 74.0622 153.148 74.0075 153.599 73.9664C154.051 73.9254 154.584 73.8843 155.186 73.8296C155.788 73.7612 156.239 73.6518 156.54 73.4877C156.827 73.3235 157.046 73.132 157.197 72.9131C157.334 72.708 157.429 72.4617 157.498 72.1882C157.566 71.8599 157.484 71.5452 157.279 71.2306C157.087 70.9434 156.882 70.7656 156.65 70.6698C156.431 70.5877 156.157 70.533 155.843 70.5056C155.528 70.4783 155.008 70.4783 154.256 70.4783C153.517 70.4783 152.861 70.5056 152.313 70.533C151.766 70.574 151.397 70.5877 151.205 70.5604C151.028 68.8095 150.945 67.0586 150.973 65.3076C151.246 65.1572 151.588 65.0751 151.985 65.0614C152.108 65.0614 152.573 65.0888 153.38 65.1435C154.051 65.1709 154.707 65.1161 155.364 64.9794C155.583 64.9383 155.774 64.8836 155.925 64.8152C156.116 64.7331 156.267 64.61 156.376 64.4732C156.499 64.3228 156.581 64.1313 156.622 63.9124C156.65 63.7619 156.663 63.5431 156.65 63.2695C156.65 63.0233 156.636 62.8318 156.609 62.6813C156.554 62.4761 156.472 62.2983 156.362 62.1615C156.226 61.9973 156.02 61.8879 155.76 61.8332C155.569 61.7922 155.323 61.7785 155.008 61.7922C154.092 61.8058 152.82 61.8195 151.219 61.8469C151.096 60.3559 151.082 58.8649 151.192 57.3739C151.848 57.3465 152.56 57.3055 153.312 57.2644C154.694 57.196 155.569 57.1276 155.925 57.0866C156.294 57.0319 156.622 56.9361 156.91 56.7993C157.251 56.6352 157.525 56.4027 157.73 56.088C158.004 55.7871 158.072 55.4588 158.004 55.1168Z" fill="#FE451D"/>
<path d="M175.226 71.1079C175.13 70.6976 174.939 70.3146 174.651 69.9589C174.392 69.6306 174.063 69.3433 173.68 69.1108C173.037 68.7141 172.203 68.4542 171.204 68.3448C170.493 68.2627 169.768 68.249 169.029 68.3174C169.002 68.1396 169.002 67.9618 169.043 67.784C169.07 67.6198 169.112 67.4967 169.18 67.4009C169.221 67.3325 169.317 67.2505 169.453 67.1547C169.563 67.0726 169.659 67.0043 169.741 66.9632C170.124 66.9359 170.589 66.8948 171.122 66.8401C171.916 66.7307 172.613 66.5255 173.202 66.2246C173.899 65.8552 174.392 65.3628 174.679 64.7609C174.87 64.3642 174.966 63.9265 174.952 63.4204C174.952 62.9826 174.87 62.5312 174.72 62.0525C174.487 61.2728 174.173 60.753 173.776 60.4931C173.393 60.2195 173.119 60.069 172.955 60.0143C172.791 59.9733 172.559 59.9459 172.244 59.9322C171.929 59.9322 171.382 59.9733 170.603 60.069C169.809 60.1648 169.317 60.1785 169.125 60.1101V59.8912C169.125 59.5766 169.166 59.3167 169.262 59.0978C169.426 59.0431 169.604 59.0157 169.823 59.0021H170.466C171.163 59.0021 171.806 58.9063 172.394 58.7285C173.065 58.537 173.626 58.2224 174.077 57.812C174.501 57.429 174.816 56.9639 175.021 56.4167C175.24 55.9106 175.308 55.3635 175.253 54.8163C175.199 54.2555 175.007 53.7357 174.679 53.2569C174.46 52.9286 174.186 52.6413 173.872 52.4225C172.818 52.4088 171.601 52.4498 170.247 52.5456C168.127 52.7371 166.526 52.8602 165.459 52.9286C164.857 52.9696 164.488 52.997 164.31 53.0107C163.886 53.0517 163.503 53.1064 163.175 53.1748C162.464 53.3116 161.848 53.5442 161.369 53.8725C160.33 54.8573 160.193 55.9517 160.945 57.1554C160.973 57.4837 160.945 58.578 160.863 60.4384C160.795 62.2987 160.74 63.9675 160.699 65.4448C160.658 66.9222 160.644 67.7703 160.658 68.0028C160.672 68.2217 160.699 68.591 160.726 69.0835C160.754 69.5759 160.795 70.0683 160.849 70.5334C160.904 71.0122 160.959 71.4226 161.014 71.7782C161.068 72.1339 161.123 72.4485 161.164 72.7084L161.397 73.5154C161.465 73.748 161.574 73.9805 161.698 74.1857C161.889 74.514 162.163 74.7876 162.532 74.9928C162.901 75.2116 163.298 75.3895 163.708 75.5126C164.132 75.622 164.912 75.7041 166.061 75.7588C167.196 75.7998 168.304 75.7588 169.385 75.6494C170.466 75.5399 171.451 75.3484 172.367 75.0748C173.284 74.8149 174.077 74.3498 174.72 73.6933C174.911 73.3376 175.062 72.9546 175.171 72.5442C175.308 72.0381 175.322 71.5593 175.226 71.1079Z" fill="white"/>
<path d="M173.598 55.1168C173.529 54.7475 173.297 54.4466 172.914 54.2003C172.736 54.0909 172.544 54.0088 172.312 53.9268C167.223 54.1593 164.433 54.3098 163.968 54.3645C163.489 54.4329 163.133 54.5423 162.901 54.7201C162.682 54.898 162.531 55.1032 162.463 55.3357C162.408 55.5682 162.395 55.7871 162.422 55.9923C162.449 56.1975 162.504 56.3753 162.572 56.5258C162.627 56.6352 162.75 56.7446 162.928 56.8541C162.654 62.4077 162.819 67.9477 163.448 73.4466C163.571 73.6244 163.735 73.7612 163.94 73.8844C164.145 74.0075 164.392 74.1032 164.679 74.1716C164.898 74.2126 165.158 74.2537 165.472 74.2674C165.937 74.2947 166.567 74.2537 167.346 74.1579C168.126 74.0622 168.742 74.0075 169.193 73.9664C169.644 73.9254 170.178 73.8843 170.78 73.8296C171.382 73.7612 171.833 73.6518 172.134 73.4877C172.421 73.3235 172.64 73.132 172.791 72.9131C172.927 72.708 173.023 72.4617 173.091 72.1882C173.16 71.8599 173.078 71.5452 172.873 71.2306C172.681 70.9434 172.476 70.7656 172.243 70.6698C172.024 70.5877 171.751 70.533 171.436 70.5056C171.122 70.4783 170.602 70.4783 169.85 70.4783C169.111 70.4783 168.454 70.5056 167.907 70.533C167.36 70.574 166.991 70.5877 166.799 70.5604C166.621 68.8095 166.539 67.0586 166.567 65.3076C166.84 65.1572 167.182 65.0751 167.579 65.0614C167.702 65.0614 168.167 65.0888 168.974 65.1435C169.644 65.1709 170.301 65.1161 170.958 64.9794C171.176 64.9383 171.368 64.8836 171.518 64.8152C171.71 64.7331 171.86 64.61 171.97 64.4732C172.093 64.3228 172.175 64.1313 172.216 63.9124C172.243 63.7619 172.257 63.5431 172.243 63.2695C172.243 63.0233 172.23 62.8318 172.202 62.6813C172.148 62.4761 172.066 62.2983 171.956 62.1615C171.819 61.9973 171.614 61.8879 171.354 61.8332C171.163 61.7922 170.917 61.7785 170.602 61.7922C169.685 61.8058 168.413 61.8195 166.813 61.8469C166.69 60.3559 166.676 58.8649 166.785 57.3739C167.442 57.3465 168.153 57.3055 168.906 57.2644C170.287 57.196 171.163 57.1276 171.518 57.0866C171.888 57.0319 172.216 56.9361 172.503 56.7993C172.845 56.6352 173.119 56.4027 173.324 56.088C173.598 55.7871 173.666 55.4588 173.598 55.1168Z" fill="#FE451D"/>
<path d="M95.8503 53.2505C95.2758 51.6774 94.2635 50.542 92.8135 49.8307C90.9395 48.9279 89.0518 48.7638 87.1231 49.3246C85.1123 49.9128 83.1699 50.6788 81.2959 51.5953C80.0237 52.416 79.2714 54.0575 79.0799 56.5334C79.0662 56.6839 79.2304 57.231 79.5587 58.1475C79.9006 59.064 80.0374 60.1446 79.9827 61.4031C79.928 62.6616 79.9006 64.1252 79.8733 65.7941C79.8459 67.4629 79.8596 69.3095 79.9006 71.3204C79.9417 72.401 79.9417 73.4816 79.928 74.5623C79.9143 75.6566 80.2563 76.6278 80.9539 77.4759C81.9661 78.707 83.3067 79.2405 84.9618 79.09C87.0958 78.8575 88.4363 77.6674 88.9971 75.5061C89.1613 74.8359 89.1886 74.1519 89.0655 73.4543C88.6688 71.4161 88.6004 69.4327 88.833 67.4902C88.8467 67.2851 88.9561 67.162 89.1339 67.1209C91.0763 66.4506 92.5947 65.2879 93.6753 63.6191C94.8791 62.3333 95.7135 60.8286 96.1512 59.0777C96.1786 58.9546 96.2196 58.8178 96.247 58.6947C96.63 56.8617 96.4932 55.0424 95.8503 53.2505Z" fill="white"/>
<path d="M91.6647 62.3199C92.6906 61.2256 93.3472 59.9671 93.6618 58.5445C93.7576 58.0931 93.826 57.6143 93.8396 57.1356C93.9764 55.3436 93.3062 53.9347 91.8152 52.8951C90.4199 51.9102 88.9015 51.5819 87.2601 51.8965C86.3846 52.0743 85.5639 52.389 84.7979 52.8404C83.7583 53.4422 82.8828 54.2493 82.1852 55.2616C81.6791 55.9729 81.5696 56.6705 81.8432 57.3544C81.939 57.6143 82.1031 57.8742 82.3083 58.1204L82.2399 74.8361C82.5956 75.5064 83.1017 75.9852 83.7446 76.2861C84.4832 76.6144 85.0988 76.4776 85.5776 75.9031C85.8785 75.5337 86.0427 75.1234 86.0563 74.6583C86.1658 71.7584 86.2205 68.8311 86.1931 65.9038C86.453 65.7943 86.6992 65.6986 86.9591 65.5892C88.7648 64.8231 90.3378 63.7288 91.6647 62.3199ZM89.6129 58.1341C89.1615 59.1601 88.0535 60.2407 86.3025 61.3897L86.3299 60.6374C86.3162 59.4883 86.3299 58.695 86.3436 58.2846C86.3436 58.1205 86.3573 57.97 86.3709 57.8195C86.3983 57.3134 86.453 56.8893 86.5351 56.5474C86.8907 55.8771 87.5473 55.5898 88.5185 55.6993C88.9152 55.7403 89.2846 55.8908 89.6265 56.1507C89.7907 56.4927 89.8591 56.8346 89.8454 57.1766C89.8454 57.4639 89.7633 57.7922 89.6129 58.1341Z" fill="#FE451D"/>
<path d="M133.336 53.2911C133.103 53.2501 132.871 53.2364 132.652 53.2638C131.831 53.3458 131.188 53.4963 130.723 53.7152C130.135 53.934 129.643 54.4128 129.246 55.1241C129.15 55.3293 129.082 55.5071 129.027 55.6576C128.521 57.4222 128.275 56.875 128.275 53.9888C128.193 53.3185 128.138 52.9081 128.138 52.7577C128.097 52.1695 127.905 51.636 127.591 51.1299C127.262 50.6101 126.797 50.227 126.196 49.9671C125.621 49.7209 125.019 49.6388 124.39 49.7072C123.651 49.7893 122.967 50.0902 122.311 50.6237C121.654 51.1435 121.148 51.7044 120.806 52.2926C120.464 52.8808 120.054 53.6878 119.602 54.7274C119.151 55.7533 118.905 57.6274 118.877 60.3495C118.836 63.0716 118.631 66.4913 118.262 70.6224C118.18 71.5252 118.18 72.469 118.262 73.4539C118.344 74.4251 118.44 75.1774 118.535 75.7109C118.631 76.2307 118.823 76.6821 119.137 77.0651C119.438 77.4482 119.876 77.7901 120.437 78.1047C121.039 78.433 121.764 78.5835 122.612 78.5698C123.118 78.5561 123.87 78.4604 124.896 78.2826C127.782 77.7628 130.559 77.4345 133.213 77.2703V77.284C134.964 77.1746 136.66 77.1472 138.301 77.2019C138.999 77.2156 139.587 77.2019 140.093 77.1609C140.599 77.1062 141.16 76.9147 141.776 76.5864C142.405 76.2581 142.788 75.41 142.939 74.0421C143.103 72.6742 142.761 71.6483 141.913 70.9507L143.814 59.4877C143.937 58.5028 144.019 57.7094 144.06 57.0939C144.088 56.4783 144.101 55.9175 144.074 55.4114C144.033 54.8916 143.992 54.4402 143.937 54.0572C143.882 53.6605 143.787 53.2638 143.623 52.8397C143.458 52.4157 143.171 52.0463 142.788 51.7454C142.405 51.4445 142.008 51.2393 141.625 51.1299C141.242 51.0341 140.846 50.9657 140.449 50.952C140.039 50.9247 139.574 50.9931 139.067 51.1162C138.561 51.253 138.096 51.6223 137.672 52.2378C137.248 52.8534 136.934 54.1255 136.742 56.0543C136.537 57.983 136.359 58.5575 136.195 57.8052C135.976 56.0953 135.593 54.9736 135.073 54.4128C135.018 54.3444 134.95 54.2897 134.909 54.235C134.649 53.9204 134.335 53.6741 133.952 53.51C133.719 53.4416 133.527 53.3595 133.336 53.2911Z" fill="white"/>
<path d="M131.339 55.5893C131.298 55.6029 131.23 55.6577 131.148 55.7534C130.764 56.0817 130.45 56.6562 130.19 57.4906C129.834 59.1868 129.492 61.6901 129.15 65.0277L128.658 72.1681C128.48 72.1818 128.316 72.1955 128.152 72.2092C127.536 72.2776 126.934 72.346 126.346 72.4281V72.4417C125.744 72.5375 125.156 72.6332 124.595 72.7427C124.623 71.2654 124.732 69.6376 124.91 67.873C125.033 66.6692 125.252 64.8773 125.566 62.4971L126.291 57.1076C126.565 56.0133 126.647 54.9053 126.551 53.7837C126.456 52.6209 125.785 51.978 124.554 51.8412C123.309 51.7044 122.516 52.4431 122.16 54.0435L121.764 56.4921C121.75 56.6289 121.736 56.752 121.723 56.8888C121.627 57.8189 121.518 59.5425 121.353 62.0731C121.203 64.59 121.121 66.765 121.107 68.6116C121.08 70.4446 121.107 71.7851 121.176 72.6196C121.217 73.1667 121.244 73.5497 121.258 73.7823C121.244 73.9738 121.244 74.1516 121.244 74.3021V74.3158C121.23 74.6304 121.244 74.8629 121.271 75.0271C121.34 75.4101 121.518 75.7384 121.791 76.0119C122.051 76.2582 122.366 76.436 122.749 76.5591C123.091 76.6685 123.46 76.7096 123.87 76.6959C124.185 76.6822 124.568 76.6412 124.992 76.5728C125.238 76.5317 125.608 76.4497 126.086 76.3402C126.415 76.2718 126.811 76.2171 127.249 76.1624C127.714 76.1077 128.234 76.053 128.795 75.9983C130.6 75.8478 132.379 75.7384 134.157 75.6563V75.67C135.538 75.6153 136.92 75.5879 138.288 75.5742C138.712 75.5742 139.04 75.5469 139.245 75.5195C139.601 75.4785 139.902 75.3827 140.135 75.2459C140.422 75.0818 140.641 74.8629 140.819 74.5757C140.996 74.2884 141.078 73.9738 141.092 73.6455C141.106 73.3309 141.024 73.0162 140.846 72.7153C140.682 72.4281 140.463 72.1955 140.189 72.0177C140.025 71.9219 139.834 71.8399 139.628 71.7852L142.2 56.369C142.255 56.0407 142.282 55.8081 142.31 55.6713C142.31 55.4935 142.323 55.343 142.323 55.2063V55.1242C142.31 55.0695 142.31 55.0148 142.31 54.9737C142.227 54.4539 142.009 54.0162 141.626 53.6332C141.243 53.2638 140.791 53.1271 140.258 53.2365C139.711 53.3459 139.341 53.5237 139.122 53.7973C138.903 54.0709 138.671 54.4539 138.438 54.9464C138.329 55.2336 138.22 55.7671 138.083 56.5331C137.946 57.2991 137.659 59.2415 137.221 62.3877C136.783 65.5202 136.455 68.0097 136.25 69.8427L136.072 71.4021C136.017 71.58 136.004 71.7031 136.017 71.7441C135.73 71.7578 135.456 71.7578 135.196 71.7715V71.7578C134.047 71.7988 133.035 71.8399 132.16 71.8809C132.16 71.8399 132.16 71.7988 132.173 71.7715C132.666 66.9838 133.377 62.5792 134.294 58.5713C134.389 58.0925 134.444 57.7232 134.458 57.4633V57.2444V57.1076C134.43 56.834 134.348 56.5878 134.225 56.3963C134.061 56.1091 133.801 55.8765 133.473 55.6987C133.131 55.5072 132.789 55.3978 132.42 55.3841C132.351 55.3704 132.283 55.3704 132.242 55.3704H132.132C131.859 55.4114 131.585 55.4798 131.339 55.5893Z" fill="#FE451D"/>
<path d="M51.7021 61.276C51.7021 61.276 59.7453 56.3379 56.5034 52.4394C54.3421 49.8404 48.3234 54.9426 48.3234 54.9426C47.6394 54.0398 46.764 52.8224 46.0937 51.9196C44.7805 50.1003 43.057 49.6352 40.9231 50.5517C39.8835 50.9758 39.3363 51.7691 39.2542 52.8908C39.1311 54.5186 39.2679 55.0384 40.5674 57.1586L42.2362 59.9765C40.0886 62.5071 38.5977 65.1745 37.8316 67.6367C37.0656 70.1126 36.4911 71.8362 36.4364 73.0399C36.3543 74.6814 36.2996 76.3229 37.6128 77.212C38.6934 77.9506 39.1858 77.9643 40.4853 77.9643C41.5523 77.9643 43.2211 76.8563 43.8093 74.8182C44.4112 72.7526 45.7107 68.5258 46.0253 68.2112C46.3536 68.5258 47.6121 73.3545 48.6927 75.5158C48.98 76.0493 50.1016 77.6497 52.5365 77.1983C53.5898 77.0068 54.219 76.8153 54.903 76.2271C56.1067 74.955 55.9973 72.78 55.6416 70.9197C54.903 67.1032 53.5077 64.7231 51.7021 61.276Z" fill="white"/>
<path d="M39.6514 75.7483C39.966 75.803 40.2943 75.762 40.6226 75.6115C40.9372 75.461 41.1835 75.2695 41.3886 75.0096C41.5528 74.7908 41.7032 74.5035 41.8127 74.1752C41.8811 73.9974 41.9768 73.6965 42.0589 73.3134C42.524 71.3163 42.9754 69.7296 43.4405 68.5258C44.1244 66.8023 44.9588 65.3523 45.9711 64.1486C46.1899 63.8886 46.3541 63.6698 46.4772 63.5467C46.4909 63.533 46.4909 63.5193 46.5046 63.5193C47.0107 64.5452 47.5852 66.0636 48.2418 68.0881C48.8984 70.1126 49.2951 71.4668 49.4729 72.096C49.6507 72.6569 49.8012 73.1356 49.938 73.5186C50.0474 73.8332 50.1568 74.0931 50.2663 74.2846C50.4304 74.5445 50.6083 74.7634 50.8134 74.9002C51.1964 75.2011 51.6889 75.2695 52.2771 75.1601C52.8516 75.078 53.2893 74.8181 53.5766 74.4351C53.8638 74.0658 53.987 73.6144 53.9596 73.0946C53.9459 72.7253 53.8365 72.2465 53.6586 71.672C53.1388 70.0442 52.8242 69.1003 52.7422 68.8267C52.0719 66.6381 50.0748 62.466 49.2677 60.8656C49.2677 60.8656 49.4455 60.6057 49.7054 60.3868C54.4383 56.2421 55.9704 55.6676 54.835 54.1219C53.645 52.5078 50.4988 55.4214 47.9819 57.5416C47.7767 57.7194 47.6673 57.8426 47.6673 57.8426C47.1612 57.0218 45.6565 54.3818 44.6442 53.1096C44.4527 52.8497 44.2886 52.6446 44.1381 52.5214C43.9192 52.3299 43.7004 52.1931 43.4542 52.1247C43.0438 52.0016 42.6061 52.07 42.1683 52.3026C41.7443 52.5351 41.457 52.8497 41.3339 53.2327C41.2245 53.6158 41.2655 54.0261 41.457 54.4912C41.5801 54.7785 41.9358 55.4077 42.524 56.4336C43.0985 57.4595 43.7825 58.7727 44.5485 60.4005C44.5211 60.4142 44.4664 60.4689 44.3706 60.551C43.0848 61.9052 41.9768 63.4373 41.033 65.1471C40.2943 66.5424 39.6924 68.006 39.2274 69.5244V69.5517C38.5708 71.1932 38.3246 72.7116 38.4887 74.0521C38.5161 74.4762 38.6392 74.8181 38.817 75.1054C39.0495 75.4474 39.3231 75.6526 39.6514 75.7483Z" fill="#FE451D"/>
<path d="M78.251 57.9989C78.2237 57.4244 78.1553 56.8773 78.0458 56.3575L77.5944 54.8391C77.7175 54.6886 77.7859 54.5245 77.7723 54.3467C77.5944 51.5972 76.0897 49.9557 73.2856 49.4359C70.8781 49.0255 68.6073 49.3949 66.4734 50.5439C64.2438 51.6656 62.4655 53.3481 61.1386 55.6188C59.5656 58.3136 58.567 61.2272 58.1703 64.3733C57.8147 67.2596 58.0609 70.1732 58.909 73.1142C59.7707 76.0552 61.3302 77.8061 63.5735 78.3943C65.8168 78.9825 67.8413 78.9961 69.6196 78.449C71.4115 77.9155 73.2445 76.0278 75.1322 72.7859C75.9666 71.1307 76.6232 69.544 77.0746 68.0256C78.0458 64.7563 78.4288 61.405 78.251 57.9989ZM67.1711 64.6195C67.5678 61.7333 68.2927 59.7909 69.3323 58.7786C70.3719 57.7664 70.7276 58.5735 70.3856 61.1998C70.3172 62.2394 70.0026 63.4842 69.4281 64.9205C67.5267 67.6016 66.7744 67.5058 67.1711 64.6195ZM76.035 51.6382C76.0897 51.7203 76.1171 51.8161 76.1171 51.9255L76.035 51.6382Z" fill="white"/>
<path d="M76.0757 55.8234L75.1182 53.1013C75.5833 52.9372 75.8568 52.7593 75.9115 52.5678C76.0483 52.1438 75.9663 51.8292 75.638 51.6514C73.5588 50.516 71.2881 50.3929 68.8259 51.2683C67.9778 51.6377 67.2117 52.1712 66.5278 52.8688C64.9137 54.5376 63.6005 56.48 62.5746 58.696C62.4378 58.9833 62.3147 59.2842 62.1916 59.5851C62.1505 59.6535 62.1232 59.7219 62.0821 59.7903C61.0699 61.9926 60.3996 64.277 60.0987 66.6024C59.7977 68.9279 59.9892 70.9934 60.6458 72.7853C61.3024 74.5636 62.5335 75.8631 64.3392 76.6702C66.1311 77.4772 68.0188 76.9848 69.9749 75.1928C71.9583 73.4009 73.422 71.4038 74.3658 69.2288C74.4342 69.0647 74.5163 68.8868 74.5984 68.709C74.6804 68.5312 74.7762 68.3397 74.8583 68.1345C75.8021 65.9595 76.3493 63.7572 76.5134 61.5549C76.6776 59.3663 76.5271 57.4512 76.0757 55.8234ZM69.2225 55.1395C70.9051 54.1683 72.1362 54.6607 72.9022 56.5895C73.6682 58.5045 73.6545 60.871 72.8611 63.6752C72.6012 64.3454 72.3413 65.0157 72.0951 65.686C71.9173 66.151 71.7395 66.6025 71.5753 67.0265C71.0418 68.1482 70.481 69.1194 69.8928 69.9538C68.8806 71.349 67.6221 71.9236 66.1037 71.6773C64.5854 71.4311 63.9151 69.776 64.0929 66.6982C64.2571 63.7983 64.7632 61.295 65.5976 59.1748C66.5004 57.3418 67.7179 56.0013 69.2225 55.1395Z" fill="#FE451D"/>
<path d="M117.373 57.9989C117.346 57.4244 117.277 56.8773 117.168 56.3575L116.716 54.8391C116.84 54.6886 116.908 54.5245 116.894 54.3467C116.716 51.5972 115.212 49.9557 112.408 49.4359C110 49.0255 107.729 49.3949 105.596 50.5439C103.366 51.6656 101.588 53.3481 100.261 55.6188C98.6876 58.3136 97.6891 61.2272 97.2924 64.3733C96.9367 67.2596 97.1829 70.1732 98.031 73.1142C98.8928 76.0552 100.452 77.8061 102.696 78.3943C104.939 78.9825 106.963 78.9961 108.742 78.449C110.534 77.9155 112.367 76.0278 114.254 72.7859C115.089 71.1307 115.745 69.544 116.197 68.0256C117.168 64.7563 117.551 61.405 117.373 57.9989ZM106.293 64.6195C106.69 61.7333 107.415 59.7909 108.454 58.7786C109.494 57.7664 109.85 58.5735 109.508 61.1998C109.439 62.2394 109.125 63.4842 108.55 64.9205C106.649 67.6016 105.896 67.5058 106.293 64.6195ZM115.157 51.6382C115.212 51.7203 115.239 51.8161 115.239 51.9255L115.157 51.6382Z" fill="white"/>
<path d="M115.199 55.8234L114.241 53.1013C114.706 52.9372 114.98 52.7593 115.035 52.5678C115.171 52.1438 115.089 51.8292 114.761 51.6514C112.682 50.516 110.411 50.3929 107.949 51.2683C107.101 51.6377 106.335 52.1712 105.651 52.8688C104.037 54.5376 102.724 56.48 101.698 58.696C101.561 58.9833 101.438 59.2842 101.315 59.5851C101.274 59.6535 101.246 59.7219 101.205 59.7903C100.193 61.9926 99.5227 64.277 99.2217 66.6024C98.9208 68.9279 99.1123 70.9934 99.7689 72.7853C100.425 74.5636 101.657 75.8631 103.462 76.6702C105.254 77.4772 107.142 76.9848 109.098 75.1928C111.081 73.4009 112.545 71.4038 113.489 69.2288C113.557 69.0647 113.639 68.8868 113.721 68.709C113.803 68.5312 113.899 68.3397 113.981 68.1345C114.925 65.9595 115.472 63.7572 115.636 61.5549C115.801 59.3663 115.65 57.4512 115.199 55.8234ZM108.346 55.1395C110.028 54.1683 111.259 54.6607 112.025 56.5895C112.791 58.5045 112.778 60.871 111.984 63.6752C111.724 64.3454 111.464 65.0157 111.218 65.686C111.04 66.151 110.863 66.6025 110.698 67.0265C110.165 68.1482 109.604 69.1194 109.016 69.9538C108.004 71.349 106.745 71.9236 105.227 71.6773C103.708 71.4311 103.038 69.776 103.216 66.6982C103.38 63.7983 103.886 61.295 104.721 59.1748C105.623 57.3418 106.841 56.0013 108.346 55.1395Z" fill="#FE451D"/>
</svg>
