<svg width="289" height="233" fill="none" xmlns="http://www.w3.org/2000/svg"><path d="M.676 183.095c4.766 25.058 33.4 41.5 64.001 36.797 15.208-2.337 28.044-9.519 36.548-19.162-.428 2.323-.464 4.673-.03 6.951 3.498 18.393 34.782 28.957 69.796 23.577 35.014-5.38 53.617-24.685 50.118-43.078l-.144-.759c5.629 5.214 13.987 8.011 22.623 6.684 13.893-2.135 23.232-13.99 20.857-26.478-.594-3.121-1.813-5.973-3.625-8.387 17.609-4.442 29.515-16.518 27.22-28.584-1.717-9.027-10.891-15.607-22.942-18.01 8.705-10.108 12.798-22.113 10.503-34.178-5.183-27.253-34.21-44.468-73.543-38.425-19.149 2.943-35.427 10.828-46.573 21.311-17.187-6.042-40.258-7.968-64.665-4.218-4.505.692-8.98 1.553-13.233 2.554-.048-.253.013-.436-.035-.69-.963-5.062-8.774-8.03-17.503-6.688-8.73 1.341-15 6.473-14.037 11.535.4 2.11 2.084 3.848 4.454 5.134C25.61 80.53 10.52 97.697 13.664 114.234c1.54 8.099 7.193 14.959 15.75 20.331C9.139 144.28-3.08 163.351.677 183.095zm69.5-161.208c-2.807 2.704-1.96 8.844 1.91 13.776 3.87 4.931 9.24 6.717 12.048 4.014 2.808-2.703 1.96-8.844-1.91-13.775-3.869-4.932-9.24-6.718-12.048-4.015zM87.433 3.575C85.22.754 82.1-.255 80.462 1.32c-1.637 1.576-1.17 5.14 1.044 7.961 2.213 2.821 5.335 3.83 6.971 2.255 1.637-1.576 1.17-5.14-1.044-7.961z" fill="#fff"/></svg>