<svg width="489" height="324" fill="none" xmlns="http://www.w3.org/2000/svg"><path d="M1.119 241.927c7.892 41.492 55.304 68.716 105.975 60.93 25.181-3.869 46.436-15.763 60.516-31.73-.709 3.848-.768 7.739-.05 11.511 5.793 30.456 57.592 47.947 115.569 39.039 57.977-8.909 100.371-40.873 94.578-71.329l-.239-1.257c9.321 8.633 23.16 13.264 37.46 11.067 23.004-3.535 38.467-23.165 34.535-43.842-.983-5.169-3.001-9.891-6.002-13.888 29.157-7.355 48.871-27.351 45.071-47.329-2.843-14.948-18.034-25.843-37.988-29.822 14.414-16.737 21.191-36.615 17.392-56.593-8.583-45.125-68.238-73.63-133.365-63.623-31.708 4.872-58.66 17.928-77.116 35.286-28.46-10.005-66.66-13.194-107.073-6.985-7.461 1.147-14.868 2.573-21.912 4.23-.08-.42.022-.722-.057-1.142-1.595-8.382-14.528-13.296-28.984-11.075-14.455 2.221-24.837 10.718-23.242 19.1.663 3.493 3.45 6.371 7.376 8.501-41.157 19.121-66.146 47.548-60.938 74.93 2.551 13.411 11.91 24.771 26.08 33.665-33.574 16.087-53.804 47.665-47.586 80.356zM44.531 27.76c3.325 4.136 11.755 3.732 18.913-.915 7.158-4.648 10.233-11.714 6.908-15.85-3.324-4.136-11.754-3.733-18.912.914-7.158 4.648-10.233 11.714-6.909 15.85zM21.794 2.133c-4.095 2.658-5.843 6.768-3.905 9.18 1.938 2.41 6.828 2.21 10.923-.449 4.094-2.658 5.843-6.768 3.905-9.179-1.938-2.411-6.828-2.21-10.923.448z" fill="#fff"/></svg>