<svg width="619" height="321" fill="none" xmlns="http://www.w3.org/2000/svg"><path d="M1.119 238.867c7.892 41.493 55.304 68.717 105.975 60.93 25.181-3.869 46.436-15.762 60.516-31.729-.709 3.848-.768 7.739-.05 11.51 5.793 30.456 187.592 47.947 245.569 39.039 57.977-8.909 100.371-40.873 94.578-71.329l-.239-1.257c9.321 8.633 23.16 13.265 37.46 11.067 23.004-3.534 38.467-23.165 34.535-43.841-.983-5.169-3.001-9.892-6.002-13.888 29.157-7.356 48.871-27.352 45.071-47.33-2.843-14.948-18.034-25.842-37.988-29.822 14.414-16.737 21.191-36.614 17.392-56.592C589.353 20.5 529.698-8.006 464.571 2c-31.708 4.872-58.66 17.929-77.116 35.286-28.46-10.005-196.66-13.194-237.073-6.984a285.773 285.773 0 00-21.912 4.23c-.08-.42.022-.723-.057-1.142-1.595-8.382-14.528-13.297-28.984-11.076-14.455 2.222-24.837 10.718-23.242 19.1.663 3.493 3.45 6.372 7.376 8.501-41.157 19.121-66.146 47.548-60.938 74.931 2.551 13.411 11.91 24.77 26.08 33.664-33.574 16.087-53.804 47.665-47.586 80.356z" fill="#fff"/></svg>