<svg width="12" height="12" fill="none" xmlns="http://www.w3.org/2000/svg"><path d="M3.041 1.177h0-.003c-.458.141-.847.26-1.162.486l-.002.002h0C1.17 2.162.879 3.119.707 4.152h0l-.061.355c-.107.62-.214 1.237-.24 1.846-.03.718.055 1.38.365 1.957.855 1.568 2.667 2.86 4.422 2.868.957 0 1.903-.261 2.899-.535l.005-.002c.86-.24 1.637-.483 2.158-1.021.456-.482.684-1.148.924-1.892.3-.947.46-1.778.413-2.565-.045-.78-.293-1.54-.841-2.347l-7.71-1.64zm0 0C4.353.773 5.621.406 6.894.499m-3.853.678L6.894.499m0 0c1.54.119 2.98 1.032 3.857 2.317L6.894.499z" fill="#FE451D" stroke="#fff" stroke-width=".8"/></svg>